<svg width="59" height="146" viewBox="0 0 59 146" fill="none" xmlns="http://www.w3.org/2000/svg">
<path d="M47.989 57.8609L47.8958 56.9643H46.9944H11.3528H10.4513L10.3582 57.8609L1.44774 143.599L1.33307 144.702H2.44238H55.9048H57.0141L56.8994 143.599L47.989 57.8609ZM48.6766 9.12644C43.706 4.29648 37.1708 1.91785 29.1736 1.91785C21.2999 1.91785 14.7715 4.3012 9.67556 9.1217C4.59588 13.9268 2.03641 19.798 2.03641 26.6789C2.03641 33.5607 4.59701 39.3715 9.68613 44.048C14.7832 48.7318 21.308 51.044 29.1736 51.044C37.1626 51.044 43.6942 48.7365 48.666 44.0434C53.7519 39.3677 56.3107 33.5584 56.3107 26.6789C56.3107 19.8003 53.753 13.9307 48.6766 9.12644Z" stroke="url(#paint0_linear_522_359)" stroke-width="2"/>
<defs>
<linearGradient id="paint0_linear_522_359" x1="29.1736" y1="2.91785" x2="29.1736" y2="143.702" gradientUnits="userSpaceOnUse">
<stop stop-color="#7039C7"/>
<stop offset="0.519107" stop-color="#29A9FF"/>
<stop offset="1" stop-color="#8EFE00"/>
</linearGradient>
</defs>
</svg>
