<svg width="33" height="31" viewBox="0 0 33 31" fill="none" xmlns="http://www.w3.org/2000/svg">
<path d="M29.8005 12.0199V7.36564C29.8005 5.50354 29.8005 4.57249 29.4784 3.86137C29.1951 3.23601 28.7428 2.72735 28.1868 2.40869C27.5544 2.04614 26.7271 2.04614 25.072 2.04614H7.93208C6.27693 2.04614 5.44961 2.04614 4.81728 2.40869C4.26124 2.72735 3.80893 3.23601 3.52568 3.86137C3.20352 4.57249 3.20353 5.50354 3.20353 7.36564V12.0199M7.09179 18.6689H7.10824M2.38867 28.6426C3.07337 26.7057 4.9205 25.3179 7.09179 25.3179C9.26307 25.3179 11.1102 26.7057 11.7949 28.6426M16.5 18.6689H16.5165M11.7969 28.6426C12.4816 26.7057 14.3287 25.3179 16.5 25.3179C18.6713 25.3179 20.5184 26.7057 21.2031 28.6426M25.9083 18.6689H25.9247M21.2051 28.6426C21.8898 26.7057 23.737 25.3179 25.9083 25.3179C28.0795 25.3179 29.9267 26.7057 30.6114 28.6426M8.75342 18.6689C8.75342 19.587 8.00937 20.331 7.09129 20.331C6.17321 20.331 5.42917 19.587 5.42917 18.6689C5.42917 17.7508 6.17321 17.0068 7.09129 17.0068C8.00937 17.0068 8.75342 17.7508 8.75342 18.6689ZM18.1621 18.6689C18.1621 19.587 17.4181 20.331 16.5 20.331C15.5819 20.331 14.8379 19.587 14.8379 18.6689C14.8379 17.7508 15.5819 17.0068 16.5 17.0068C17.4181 17.0068 18.1621 17.7508 18.1621 18.6689ZM27.5704 18.6689C27.5704 19.587 26.8263 20.331 25.9083 20.331C24.9902 20.331 24.2461 19.587 24.2461 18.6689C24.2461 17.7508 24.9902 17.0068 25.9083 17.0068C26.8263 17.0068 27.5704 17.7508 27.5704 18.6689Z" stroke="#1D1B22" stroke-width="4" stroke-linecap="round" stroke-linejoin="round"/>
</svg>
