<svg width="29" height="35" viewBox="0 0 29 35" fill="none" xmlns="http://www.w3.org/2000/svg">
<path d="M9.51351 2.24316V5.56791M14.5004 2.24316V5.56791M19.4873 2.24316V5.56791M16.1625 12.2169H9.51351M19.4873 18.8659H9.51351M8.18351 32.1644H20.8168C22.6789 32.1644 23.6099 32.1644 24.321 31.8019C24.9464 31.4832 25.4551 30.9745 25.7737 30.3492C26.1363 29.6381 26.1363 28.707 26.1363 26.8449V9.22479C26.1363 7.36269 26.1363 6.43164 25.7737 5.72051C25.4551 5.09516 24.9464 4.58649 24.321 4.26783C23.6099 3.90529 22.6789 3.90529 20.8168 3.90529H8.18351C6.32141 3.90529 5.39036 3.90529 4.67924 4.26783C4.05388 4.58649 3.54522 5.09516 3.22656 5.72051C2.86401 6.43164 2.86401 7.36269 2.86401 9.22479V26.8449C2.86401 28.707 2.86401 29.6381 3.22656 30.3492C3.54522 30.9745 4.05388 31.4832 4.67924 31.8019C5.39036 32.1644 6.32141 32.1644 8.18351 32.1644Z" stroke="#202020" stroke-width="4" stroke-linecap="round" stroke-linejoin="round"/>
</svg>
