<svg width="35" height="35" viewBox="0 0 35 35" fill="none" xmlns="http://www.w3.org/2000/svg">
<path d="M12.5138 27.1778V32.1646M22.4875 27.1778V32.1646M9.18906 32.1646H25.8118M2.53956 17.204H32.4608M17.5002 22.1909H17.5166M7.85856 27.1778H27.1413C29.0034 27.1778 29.9345 27.1778 30.6456 26.8152C31.2709 26.4966 31.7796 25.9879 32.0983 25.3626C32.4608 24.6514 32.4608 23.7204 32.4608 21.8583V7.56291C32.4608 5.70081 32.4608 4.76976 32.0983 4.05863C31.7796 3.43328 31.2709 2.92461 30.6456 2.60595C29.9345 2.24341 29.0034 2.24341 27.1413 2.24341H7.85856C5.99646 2.24341 5.06541 2.24341 4.35429 2.60595C3.72893 2.92461 3.22027 3.43328 2.90161 4.05863C2.53906 4.76976 2.53906 5.70081 2.53906 7.56291V21.8588C2.53906 23.7209 2.53906 24.6519 2.90161 25.3631C3.22027 25.9884 3.72893 26.4971 4.35429 26.8157C5.06541 27.1783 5.99646 27.1778 7.85856 27.1778Z" stroke="#202020" stroke-width="4" stroke-linecap="round" stroke-linejoin="round"/>
</svg>
