<svg width="366" height="232" viewBox="0 0 366 232" fill="none" xmlns="http://www.w3.org/2000/svg">
<g filter="url(#filter0_d_957_3)">
<path d="M352.465 115.447L334.757 126.546C333.811 127.137 333.219 128.158 333.168 129.269L332.271 150.155C332.152 152.958 328.867 154.403 326.716 152.602L310.69 139.186C309.833 138.466 308.686 138.222 307.612 138.521L287.479 144.116C284.777 144.867 282.381 142.19 283.432 139.588L291.233 120.199C291.647 119.164 291.531 117.996 290.918 117.062L279.372 99.6389C277.821 97.3035 279.627 94.2022 282.428 94.3947L303.279 95.8308C304.392 95.9093 305.471 95.4291 306.167 94.5564L319.167 78.1927C320.908 75.9971 324.417 76.757 325.099 79.4767L330.179 99.7467C330.448 100.83 331.234 101.703 332.285 102.094L351.869 109.402C354.499 110.388 354.859 113.949 352.484 115.443L352.465 115.447Z" fill="#EDEDED"/>
</g>
<g filter="url(#filter1_d_957_3)">
<path d="M171.72 200.372C199.948 212.144 232.309 198.963 244 170.93C255.69 142.898 242.284 110.63 214.055 98.8574C185.827 87.085 153.466 100.266 141.775 128.299C130.085 156.331 143.491 188.599 171.72 200.372Z" fill="#FF0098"/>
</g>
<path d="M186.578 129.327L176.012 130.346C172.897 130.646 171.34 130.796 170.209 131.524C169.215 132.164 168.447 133.106 168.016 134.215C167.526 135.476 167.678 137.05 167.981 140.199L170.584 167.185C170.887 170.334 171.039 171.908 171.762 173.052C172.397 174.058 173.33 174.837 174.428 175.275C175.677 175.773 177.234 175.623 180.349 175.322L207.042 172.748C210.156 172.448 211.714 172.298 212.844 171.57C213.838 170.93 214.606 169.988 215.037 168.879C215.528 167.618 215.376 166.044 215.072 162.895L213.906 150.808M199.497 132.337L208.128 139.529M187.609 146.923L204.292 126.452C206.252 124.048 209.773 123.708 212.156 125.694C214.54 127.68 214.884 131.24 212.923 133.645L195.704 154.773C193.792 157.119 192.837 158.291 191.713 159.259C190.716 160.118 189.621 160.855 188.453 161.456C187.137 162.133 185.697 162.574 182.82 163.456L181.49 163.863L181.532 162.917C181.68 159.568 181.755 157.893 182.137 156.3C182.476 154.886 182.994 153.522 183.678 152.243C184.449 150.8 185.502 149.508 187.61 146.923L187.609 146.923Z" stroke="#8EFE00" stroke-width="5" stroke-linecap="round" stroke-linejoin="round"/>
<g filter="url(#filter2_d_957_3)">
<path d="M60.185 143.809C86.3125 163.866 123.752 158.944 143.809 132.817C163.865 106.689 158.943 69.2494 132.816 49.1929C106.688 29.1364 69.2488 34.058 49.1923 60.1855C29.1358 86.3131 34.0574 123.753 60.185 143.809Z" fill="#213E72"/>
</g>
<path d="M87.0693 82.7818L81.7923 81.0358C78.5082 79.9492 76.8661 79.4059 75.4057 79.6142C74.1216 79.7972 72.9351 80.3749 72.0171 81.2649C70.9732 82.2759 70.4436 83.8766 69.3844 87.0779L64.0892 103.082C63.03 106.283 62.5007 107.883 62.7356 109.317C62.9416 110.579 63.5496 111.75 64.471 112.663C65.5189 113.702 67.1609 114.245 70.445 115.331L104.414 126.571C107.698 127.657 109.339 128.2 110.801 127.992C112.085 127.809 113.271 127.232 114.189 126.342C115.233 125.331 115.763 123.73 116.822 120.529L122.306 103.954M75.5323 97.9886L75.5613 97.9983M87.2596 101.869L87.2886 101.878M93.7033 97.3253L97.8038 97.8583C100.016 98.1461 101.122 98.2894 102.214 98.2417C103.184 98.1991 104.142 98.0445 105.071 97.7801C106.117 97.4831 107.108 96.9997 109.091 96.0349L129.052 86.3158C131.717 85.0183 132.771 81.8341 131.405 79.2032C130.04 76.5724 126.774 75.4916 124.109 76.7891L103.806 86.6747C101.948 87.5792 101.019 88.0317 100.195 88.6199C99.463 89.1425 98.7948 89.7433 98.2007 90.4123C97.5318 91.1659 96.9928 92.0339 95.9146 93.768L93.703 97.3261L93.7033 97.3253Z" stroke="#8EFE00" stroke-width="6" stroke-linecap="round" stroke-linejoin="round"/>
<defs>
<filter id="filter0_d_957_3" x="273.801" y="71.9128" width="91.9495" height="93.1649" filterUnits="userSpaceOnUse" color-interpolation-filters="sRGB">
<feFlood flood-opacity="0" result="BackgroundImageFix"/>
<feColorMatrix in="SourceAlpha" type="matrix" values="0 0 0 0 0 0 0 0 0 0 0 0 0 0 0 0 0 0 127 0" result="hardAlpha"/>
<feOffset dx="3.34" dy="3.34"/>
<feGaussianBlur stdDeviation="4.17"/>
<feColorMatrix type="matrix" values="0 0 0 0 0 0 0 0 0 0 0 0 0 0 0 0 0 0 0.65 0"/>
<feBlend mode="normal" in2="BackgroundImageFix" result="effect1_dropShadow_957_3"/>
<feBlend mode="normal" in="SourceGraphic" in2="effect1_dropShadow_957_3" result="shape"/>
</filter>
<filter id="filter1_d_957_3" x="133.551" y="90.5488" width="130.674" height="130.131" filterUnits="userSpaceOnUse" color-interpolation-filters="sRGB">
<feFlood flood-opacity="0" result="BackgroundImageFix"/>
<feColorMatrix in="SourceAlpha" type="matrix" values="0 0 0 0 0 0 0 0 0 0 0 0 0 0 0 0 0 0 127 0" result="hardAlpha"/>
<feOffset dx="6" dy="6"/>
<feGaussianBlur stdDeviation="5"/>
<feColorMatrix type="matrix" values="0 0 0 0 0 0 0 0 0 0 0 0 0 0 0 0 0 0 0.65 0"/>
<feBlend mode="normal" in2="BackgroundImageFix" result="effect1_dropShadow_957_3"/>
<feBlend mode="normal" in="SourceGraphic" in2="effect1_dropShadow_957_3" result="shape"/>
</filter>
<filter id="filter2_d_957_3" x="32.8574" y="32.8584" width="139.285" height="139.285" filterUnits="userSpaceOnUse" color-interpolation-filters="sRGB">
<feFlood flood-opacity="0" result="BackgroundImageFix"/>
<feColorMatrix in="SourceAlpha" type="matrix" values="0 0 0 0 0 0 0 0 0 0 0 0 0 0 0 0 0 0 127 0" result="hardAlpha"/>
<feOffset dx="6" dy="6"/>
<feGaussianBlur stdDeviation="5"/>
<feColorMatrix type="matrix" values="0 0 0 0 0 0 0 0 0 0 0 0 0 0 0 0 0 0 0.65 0"/>
<feBlend mode="normal" in2="BackgroundImageFix" result="effect1_dropShadow_957_3"/>
<feBlend mode="normal" in="SourceGraphic" in2="effect1_dropShadow_957_3" result="shape"/>
</filter>
</defs>
</svg>
