<svg width="364" height="176" viewBox="0 0 364 176" fill="none" xmlns="http://www.w3.org/2000/svg">
<g filter="url(#filter0_d_957_2)">
<path d="M67.1962 124.538L55.8584 133.552C55.308 133.992 55.1845 134.778 55.5776 135.364L63.6694 147.376C64.3549 148.389 63.442 149.722 62.2491 149.444L48.1326 146.201C47.4469 146.043 46.7543 146.442 46.5448 147.114L42.1979 160.936C41.8321 162.106 40.2251 162.217 39.6922 161.119L33.4252 148.056C33.1243 147.42 32.3815 147.128 31.7233 147.382L18.21 152.602C17.0691 153.045 15.9738 151.859 16.5073 150.758L22.8112 137.714C23.1161 137.08 22.883 136.316 22.2769 135.96L9.77199 128.648C8.71385 128.029 8.96398 126.438 10.1531 126.165L24.281 122.963C24.9658 122.806 25.4194 122.148 25.3173 121.456L23.2388 107.119C23.0646 105.908 24.4602 105.106 25.419 105.868L36.7319 114.915C37.2815 115.356 38.0785 115.3 38.5603 114.782L48.4699 104.219C49.3084 103.327 50.804 103.918 50.8061 105.146L50.788 119.633C50.7859 120.335 51.3271 120.922 52.0306 120.981L66.4676 122.143C67.6904 122.239 68.1565 123.781 67.1987 124.543L67.1962 124.538Z" fill="#FF0098"/>
</g>
<g filter="url(#filter1_d_957_2)">
<path d="M105.259 54.4307L116.485 145.59C117.733 155.72 126.956 162.921 137.086 161.673L214.803 152.102C224.933 150.855 232.133 141.631 230.886 131.502L219.659 40.3419C218.412 30.212 209.188 23.0114 199.058 24.259L121.342 33.83C111.212 35.0775 104.011 44.3008 105.259 54.4307Z" fill="#3BA5E0"/>
</g>
<path d="M156.845 115.409L182.895 112.201M154.736 98.2844L180.786 95.0762M152.627 81.1583L156.968 80.6237M166.829 53.3318L145.989 55.8983C141.126 56.4973 138.694 56.7968 136.952 57.9592C135.42 58.9811 134.252 60.4548 133.618 62.1679C132.897 64.1161 133.192 66.514 133.783 71.31L139.899 120.973C140.49 125.769 140.785 128.167 141.958 129.882C142.988 131.39 144.478 132.537 146.213 133.156C148.185 133.861 150.617 133.562 155.48 132.963L188.476 128.899C193.34 128.3 195.771 128.001 197.514 126.838C199.046 125.817 200.213 124.343 200.847 122.63C201.569 120.682 201.273 118.284 200.683 113.488L196.043 75.8115M166.829 53.3318L196.043 75.8115M166.829 53.3318L169.149 72.17C169.445 74.5679 169.592 75.7663 170.178 76.6238C170.694 77.3778 171.437 77.9512 172.306 78.2614C173.292 78.6133 174.507 78.4637 176.939 78.1642L196.043 75.8115" stroke="#48E580" stroke-width="6" stroke-linecap="round" stroke-linejoin="round"/>
<g filter="url(#filter2_d_957_2)">
<path d="M250.265 143.97C281.141 158.337 317.817 144.955 332.185 114.079C346.552 83.2036 333.169 46.5269 302.294 32.1595C271.418 17.7921 234.742 31.1746 220.374 62.0502C206.007 92.9258 219.389 129.603 250.265 143.97Z" fill="#48E580"/>
</g>
<path d="M278.687 75.4735L277.093 85.2822M275.499 95.0909L275.532 95.0962M301.922 119.52L291.868 112.308C291.106 111.761 290.725 111.488 290.314 111.272C289.949 111.081 289.568 110.923 289.174 110.801C288.73 110.664 288.266 110.589 287.34 110.438L254.292 105.068C250.606 104.469 248.763 104.17 247.472 103.228C246.336 102.4 245.492 101.236 245.061 99.9033C244.57 98.388 244.868 96.5567 245.463 92.8941L249.501 68.0457C250.096 64.3831 250.394 62.5519 251.339 61.2697C252.169 60.1422 253.339 59.3053 254.678 58.8797C256.201 58.3953 258.044 58.6948 261.73 59.2937L299.896 65.4955C303.581 66.0944 305.424 66.3939 306.716 67.3357C307.852 68.1636 308.696 69.3277 309.127 70.6602C309.617 72.1755 309.319 74.0068 308.724 77.6694L301.923 119.52L301.922 119.52Z" stroke="#7039C7" stroke-width="6" stroke-linecap="round" stroke-linejoin="round"/>
<defs>
<filter id="filter0_d_957_2" x="3.10352" y="97.79" width="78.6074" height="78.0916" filterUnits="userSpaceOnUse" color-interpolation-filters="sRGB">
<feFlood flood-opacity="0" result="BackgroundImageFix"/>
<feColorMatrix in="SourceAlpha" type="matrix" values="0 0 0 0 0 0 0 0 0 0 0 0 0 0 0 0 0 0 127 0" result="hardAlpha"/>
<feOffset dx="4" dy="4"/>
<feGaussianBlur stdDeviation="5"/>
<feColorMatrix type="matrix" values="0 0 0 0 0 0 0 0 0 0 0 0 0 0 0 0 0 0 0.65 0"/>
<feBlend mode="normal" in2="BackgroundImageFix" result="effect1_dropShadow_957_2"/>
<feBlend mode="normal" in="SourceGraphic" in2="effect1_dropShadow_957_2" result="shape"/>
</filter>
<filter id="filter1_d_957_2" x="99.1191" y="18.1184" width="145.906" height="157.695" filterUnits="userSpaceOnUse" color-interpolation-filters="sRGB">
<feFlood flood-opacity="0" result="BackgroundImageFix"/>
<feColorMatrix in="SourceAlpha" type="matrix" values="0 0 0 0 0 0 0 0 0 0 0 0 0 0 0 0 0 0 127 0" result="hardAlpha"/>
<feOffset dx="4" dy="4"/>
<feGaussianBlur stdDeviation="5"/>
<feColorMatrix type="matrix" values="0 0 0 0 0 0 0 0 0 0 0 0 0 0 0 0 0 0 0.65 0"/>
<feBlend mode="normal" in2="BackgroundImageFix" result="effect1_dropShadow_957_2"/>
<feBlend mode="normal" in="SourceGraphic" in2="effect1_dropShadow_957_2" result="shape"/>
</filter>
<filter id="filter2_d_957_2" x="211.264" y="23.0484" width="140.032" height="140.033" filterUnits="userSpaceOnUse" color-interpolation-filters="sRGB">
<feFlood flood-opacity="0" result="BackgroundImageFix"/>
<feColorMatrix in="SourceAlpha" type="matrix" values="0 0 0 0 0 0 0 0 0 0 0 0 0 0 0 0 0 0 127 0" result="hardAlpha"/>
<feOffset dx="5" dy="5"/>
<feGaussianBlur stdDeviation="4.17"/>
<feColorMatrix type="matrix" values="0 0 0 0 0 0 0 0 0 0 0 0 0 0 0 0 0 0 0.65 0"/>
<feBlend mode="normal" in2="BackgroundImageFix" result="effect1_dropShadow_957_2"/>
<feBlend mode="normal" in="SourceGraphic" in2="effect1_dropShadow_957_2" result="shape"/>
</filter>
</defs>
</svg>
