<svg width="76" height="75" viewBox="0 0 76 75" fill="none" xmlns="http://www.w3.org/2000/svg">
<circle cx="37.6089" cy="37.5" r="37.5" fill="#1D1B22"/>
<path d="M46.6244 26.2321V24.429C46.6244 21.9045 46.6244 20.6423 46.1329 19.6782C45.7009 18.8304 45.0113 18.1408 44.1635 17.7088C43.1994 17.2173 41.9371 17.2173 39.4127 17.2173H35.8071C33.2827 17.2173 32.0204 17.2173 31.0563 17.7088C30.2085 18.1408 29.5189 18.8304 29.0869 19.6782C28.5954 20.6423 28.5954 21.9045 28.5954 24.429V26.2321M30.8488 44.2611V37.5003M44.3704 44.2611V37.5003M17.3887 33.0524C18.2014 33.8312 26.9857 42.0077 37.6096 42.0077C48.2335 42.0077 57.0178 33.8312 57.8304 33.0524M17.3881 33.0524C17.3265 34.1044 17.3265 35.3964 17.3265 37.0494V46.9654C17.3265 50.7521 17.3265 52.6452 18.0635 54.0913C18.7118 55.3637 19.7462 56.3974 21.0179 57.0458C22.4641 57.7827 24.3571 57.7827 28.1438 57.7827H47.074C50.8607 57.7827 52.7537 57.7827 54.1999 57.0458C55.4722 56.3974 56.506 55.3637 57.1543 54.0913C57.8913 52.6452 57.8913 50.7521 57.8913 46.9654V37.0494C57.8913 35.3964 57.8913 34.1037 57.8297 33.0524M17.3874 33.0524C17.4665 31.6955 17.6477 30.7389 18.0628 29.9235C18.7111 28.6511 19.7455 27.6174 21.0172 26.969C22.4634 26.2321 24.3564 26.2321 28.1431 26.2321H47.0733C50.86 26.2321 52.7531 26.2321 54.1992 26.969C55.4716 27.6174 56.5053 28.6518 57.1537 29.9235C57.5688 30.7382 57.75 31.6948 57.8291 33.0524" stroke="#29A9FF" stroke-width="5" stroke-linecap="round" stroke-linejoin="round"/>
</svg>
