<svg width="188" height="188" viewBox="0 0 188 188" fill="none" xmlns="http://www.w3.org/2000/svg">
<g filter="url(#filter0_d_46_99)">
<path d="M128.046 153.301C160.898 134.532 172.314 92.6845 153.545 59.8323C134.776 26.9801 92.9285 15.5636 60.0762 34.3328C27.224 53.102 15.8075 94.9495 34.5767 127.802C53.346 160.654 95.1934 172.071 128.046 153.301Z" fill="#48E580"/>
</g>
<path d="M97.2688 93.1551C96.4275 90.8629 93.8894 89.6882 91.5972 90.5294C89.3051 91.3707 88.1303 93.9089 88.9716 96.201L97.2688 93.1551ZM107.176 132.95L103.026 134.476C103.529 135.853 104.689 136.891 106.11 137.243C107.536 137.593 109.042 137.22 110.131 136.234L107.171 132.952L107.176 132.95ZM134.27 108.524L137.229 111.805C138.571 110.595 139.043 108.693 138.419 106.997L134.27 108.524ZM128.679 80.4782C127.837 78.1861 125.299 77.0113 123.007 77.8526C120.715 78.6938 119.54 81.232 120.381 83.5241L128.679 80.4782ZM94.4328 90.456C92.1042 89.7345 89.627 91.0389 88.9008 93.3701C88.1793 95.6986 89.4837 98.1759 91.8149 98.9021L94.4328 90.456ZM107.634 99.1747L106.325 103.398C107.905 103.888 109.623 103.454 110.784 102.273L107.634 99.1747ZM127.667 85.1041C129.378 83.3629 129.357 80.5652 127.616 78.855C125.874 77.1447 123.077 77.1658 121.366 78.9069L127.667 85.1041ZM90.1664 91.39C88.352 93.0243 88.2098 95.8167 89.8441 97.6311C91.4784 99.4455 94.2708 99.5877 96.0852 97.9534L90.1664 91.39ZM123.179 73.5273C124.994 71.893 125.136 69.1006 123.501 67.2862C121.867 65.4718 119.075 65.3295 117.26 66.9638L123.179 73.5273ZM120.089 74.6644C122.527 74.7376 124.565 72.8154 124.639 70.3766C124.712 67.9379 122.79 65.8999 120.351 65.8267L120.089 74.6644ZM83.8909 64.7461C81.4522 64.6729 79.4141 66.5952 79.3409 69.0339C79.2677 71.4726 81.1901 73.5106 83.6288 73.5838L83.8909 64.7461ZM120.929 65.8904C118.519 65.4994 116.252 67.1396 115.861 69.5504C115.47 71.9612 117.11 74.2282 119.521 74.6193L120.929 65.8904ZM133.916 72.4644L137.066 75.563C138.227 74.3819 138.63 72.6605 138.119 71.0857C137.603 69.5136 136.254 68.3615 134.625 68.0973L133.92 72.4617L133.916 72.4644ZM121.376 78.9016C119.666 80.6427 119.687 83.4405 121.423 85.1533C123.164 86.8636 125.962 86.8426 127.675 85.1061L121.376 78.9016ZM116.112 68.5995C115.2 70.8643 116.294 73.4371 118.554 74.3517C120.819 75.2637 123.392 74.1696 124.307 71.9095L116.108 68.6022L116.112 68.5995ZM128.297 50.2268L132.398 51.8828C132.956 50.4979 132.78 48.9285 131.926 47.7034C131.072 46.4784 129.662 45.7682 128.169 45.8079L128.297 50.2268ZM90.0794 51.3333L89.9517 46.9144C88.1288 46.97 86.5254 48.1325 85.9141 49.8558L90.0794 51.3333ZM79.5733 67.6935C78.7569 69.9961 79.9585 72.5198 82.2565 73.3389C84.5591 74.1553 87.0828 72.9537 87.9019 70.6557L79.5687 67.6961L79.5733 67.6935ZM53.6826 90.3108C51.8682 91.9451 51.7213 94.7401 53.3603 96.5519C54.9946 98.3663 57.7896 98.5132 59.6014 96.8742L53.6826 90.3108ZM86.6933 72.4553C88.5077 70.821 88.6546 68.026 87.0157 66.2142C85.3814 64.3998 82.5864 64.2529 80.7746 65.8919L86.6933 72.4553ZM60.0002 96.4615C61.5844 94.6075 61.3623 91.8138 59.5083 90.2296C57.6544 88.6455 54.8606 88.8675 53.2765 90.7215L60.0002 96.4615ZM47.6322 104.138L44.2713 101.264C43.1955 102.519 42.914 104.27 43.5383 105.805C44.16 107.335 45.5892 108.392 47.2316 108.538L47.6295 104.133L47.6322 104.138ZM60.5526 109.745C62.9827 109.965 65.1309 108.17 65.3507 105.74C65.5706 103.31 63.7764 101.162 61.3463 100.942L60.5479 109.747L60.5526 109.745ZM56.7684 89.1763C54.3297 89.1031 52.289 91.0207 52.2185 93.464C52.1453 95.9028 54.0629 97.9435 56.5063 98.014L56.7684 89.1763ZM92.9689 99.0992C95.4076 99.1724 97.4457 97.2502 97.5188 94.8114C97.592 92.3727 95.6698 90.3347 93.231 90.2615L92.9689 99.0992ZM54.5507 97.4923C56.702 98.6478 59.379 97.8331 60.5345 95.6818C61.69 93.5305 60.8753 90.8535 58.724 89.698L54.5507 97.4923ZM40.6088 85.0069L37.5671 81.7969C36.5358 82.7743 36.0367 84.187 36.2251 85.5952C36.4134 87.0033 37.2654 88.2357 38.5175 88.9067L40.6042 85.0096L40.6088 85.0069ZM67.3671 59.6696L69.5871 55.8441C67.891 54.8599 65.7529 55.1079 64.3301 56.4569L67.3717 59.6669L67.3671 59.6696ZM81.5113 72.9944C83.6234 74.2216 86.3296 73.5011 87.5521 71.3916C88.7793 69.2795 88.0615 66.578 85.9493 65.3508L81.5113 72.9944ZM97.2502 93.1657C96.4089 90.8736 93.8708 89.6988 91.5786 90.5401C89.2865 91.3813 88.1117 93.9195 88.953 96.2116L97.2502 93.1657ZM107.155 132.956L107.023 137.375C108.49 137.418 109.885 136.732 110.739 135.541C111.598 134.348 111.81 132.81 111.302 131.436L107.153 132.963L107.155 132.956ZM70.692 131.871L66.5424 133.397C67.166 135.093 68.7559 136.236 70.5609 136.289L70.692 131.871ZM65.1007 103.825C64.2594 101.533 61.7213 100.358 59.4292 101.2C57.1371 102.041 55.9623 104.579 56.8035 106.871L65.1007 103.825ZM96.8265 97.0617C98.1379 95 97.5336 92.2705 95.4719 90.9591C93.4103 89.6477 90.6808 90.252 89.3694 92.3137L96.8265 97.0617ZM84.9287 107.513L84.5309 111.918C86.1759 112.069 87.7666 111.283 88.6573 109.887L84.9287 107.513ZM61.3443 100.949C58.9143 100.73 56.766 102.524 56.5462 104.954C56.3264 107.384 58.1205 109.532 60.5506 109.752L61.3443 100.949ZM88.9716 96.201L103.024 134.472L111.321 131.426L97.2688 93.1551L88.9716 96.201ZM110.135 136.232L137.229 111.805L131.31 105.242L104.216 129.668L110.135 136.232ZM138.419 106.997L128.683 80.4756L120.386 83.5215L130.122 110.043L138.419 106.997ZM91.8122 98.8974L106.322 103.393L108.94 94.9471L94.4301 90.4514L91.8122 98.8974ZM110.784 102.273L127.667 85.1041L121.366 78.9069L104.483 96.0761L110.784 102.273ZM96.0832 97.9608L123.177 73.5346L117.258 66.9711L90.1644 91.3973L96.0832 97.9608ZM120.349 65.834L83.8889 64.7534L83.6268 73.5911L120.087 74.6717L120.349 65.834ZM119.516 74.6219L133.207 76.8315L134.615 68.1026L120.925 65.8931L119.516 74.6219ZM130.76 69.3685L121.366 78.9069L127.665 85.1114L137.059 75.5729L130.76 69.3685ZM124.302 71.9122L132.386 51.8834L124.186 48.5761L116.103 68.6048L124.302 71.9122ZM128.16 45.8132L89.9424 46.9197L90.1978 55.7575L128.415 54.651L128.16 45.8132ZM85.9048 49.8611L79.5667 67.7034L87.8999 70.663L94.238 52.8207L85.9048 49.8611ZM59.5947 96.8842L86.6913 72.4626L80.7726 65.8992L53.676 90.3207L59.5947 96.8842ZM53.2745 90.7288L44.2719 101.276L50.9957 107.016L59.9982 96.4688L53.2745 90.7288ZM47.2323 108.55L60.5532 109.757L61.3516 100.951L48.0307 99.7447L47.2323 108.55ZM56.5043 98.0213L92.9669 99.1065L93.229 90.2688L56.7664 89.1836L56.5043 98.0213ZM58.722 89.7053L42.6935 81.1171L38.5202 88.9113L54.5487 97.4996L58.722 89.7053ZM43.6439 88.2269L70.4021 62.8896L64.3261 56.4715L37.5678 81.8088L43.6439 88.2269ZM65.1424 63.4977L81.5093 73.0017L85.9473 65.3581L69.5805 55.8541L65.1424 63.4977ZM88.951 96.2189L103 134.485L111.297 131.439L97.2482 93.173L88.951 96.2189ZM107.284 128.544L70.821 127.459L70.5589 136.297L107.021 137.382L107.284 128.544ZM74.8396 130.351L65.1033 103.83L56.8062 106.876L66.5424 133.397L74.8396 130.351ZM89.372 92.3183L81.2028 105.144L88.6599 109.892L96.8291 97.0663L89.372 92.3183ZM85.3292 103.113L61.3516 100.951L60.5579 109.754L84.5355 111.915L85.3292 103.113Z" fill="#272826"/>
<defs>
<filter id="filter0_d_46_99" x="22.4713" y="22.2274" width="152.359" height="152.359" filterUnits="userSpaceOnUse" color-interpolation-filters="sRGB">
<feFlood flood-opacity="0" result="BackgroundImageFix"/>
<feColorMatrix in="SourceAlpha" type="matrix" values="0 0 0 0 0 0 0 0 0 0 0 0 0 0 0 0 0 0 127 0" result="hardAlpha"/>
<feOffset dx="4.59" dy="4.59"/>
<feGaussianBlur stdDeviation="3.83"/>
<feColorMatrix type="matrix" values="0 0 0 0 0 0 0 0 0 0 0 0 0 0 0 0 0 0 0.65 0"/>
<feBlend mode="normal" in2="BackgroundImageFix" result="effect1_dropShadow_46_99"/>
<feBlend mode="normal" in="SourceGraphic" in2="effect1_dropShadow_46_99" result="shape"/>
</filter>
</defs>
</svg>
