<svg width="10" height="12" viewBox="0 0 10 12" fill="none" xmlns="http://www.w3.org/2000/svg">
<path d="M1.63744 0.928563C0.844286 1.44295 0.6886 3.05089 0.987997 4.36132C1.22117 5.38187 1.71694 6.75073 2.55309 8.03994C3.3396 9.25268 4.43691 10.34 5.27364 10.9691C6.34801 11.777 7.87977 12.2904 8.67278 11.776C9.0739 11.5158 9.66966 10.8052 9.69693 10.6777C9.69693 10.6777 9.34747 10.1389 9.27085 10.0207L8.09909 8.2141C8.01208 8.07991 7.46595 8.20255 7.18863 8.35968C6.81449 8.57164 6.46979 9.14057 6.46979 9.14057C6.21324 9.28875 5.9984 9.14115 5.54937 8.93453C4.99747 8.68058 4.37703 7.89176 3.88328 7.17724C3.43224 6.43502 2.96503 5.54679 2.95825 4.93934C2.95262 4.44515 2.90544 4.18861 3.14554 4.01488C3.14554 4.01488 3.80551 3.93221 4.15166 3.6771C4.4082 3.48794 4.74295 3.03935 4.65594 2.90516L3.48418 1.09853C3.40727 0.980218 3.05795 0.441447 3.05795 0.441447C2.9304 0.41432 2.03856 0.668556 1.63744 0.928563Z" fill="#EDEDED"/>
</svg>
