<svg width="158" height="158" viewBox="0 0 158 158" fill="none" xmlns="http://www.w3.org/2000/svg">
<g filter="url(#filter0_d_90_108)">
<path d="M61.1132 137.164C94.4131 146.133 128.679 126.409 137.648 93.1092C146.617 59.8093 126.893 25.5436 93.5926 16.5747C60.2927 7.60573 26.027 27.3299 17.058 60.6298C8.0891 93.9297 27.8133 128.195 61.1132 137.164Z" fill="white"/>
</g>
<path d="M76.0364 89.8371C75.3651 89.7088 74.6936 89.5536 74.0226 89.3729C73.2068 89.1532 72.4099 88.8989 71.6321 88.6134C63.8414 85.7557 57.6852 79.6401 54.7781 71.8678C54.6565 71.532 54.2854 71.3592 53.9495 71.4808C53.8581 71.514 53.7751 71.5677 53.7069 71.6382L37.0342 88.8021C36.3968 89.4668 36.0776 90.3855 36.323 91.2677C36.5935 92.1641 37.3067 92.8563 38.2098 93.1017L50.3803 96.3797C51.2516 96.5801 51.9476 97.2367 52.1972 98.0954L55.5118 109.811C55.7562 110.692 56.4405 111.384 57.3205 111.636C58.2611 111.834 59.3829 111.49 59.9956 110.75L76.4105 90.8814C76.6368 90.6061 76.5977 90.1982 76.3214 89.9717C76.2391 89.9035 76.1401 89.8575 76.0354 89.8368L76.0364 89.8371Z" fill="#213E72"/>
<path d="M106.225 107.384L100.492 84.2243C100.403 83.878 100.051 83.6697 99.7063 83.7578C99.6144 83.7812 99.5288 83.8245 99.4559 83.8842C95.2283 87.3572 90.0913 89.5422 84.6565 90.1765C83.9903 90.2519 83.3778 90.5817 82.9488 91.097L73.7899 102.202C73.5522 102.488 73.4508 102.865 73.5127 103.231L75.4374 114.893C75.5926 115.84 76.3843 116.714 77.296 117.016C78.1866 117.232 79.1245 116.97 79.7752 116.324L88.5005 107.867C89.1557 107.232 90.0766 107.065 90.9572 107.307L103.247 110.617C104.288 110.897 105.222 110.566 105.852 109.645C106.302 108.983 106.439 108.155 106.226 107.384L106.225 107.384Z" fill="#213E72"/>
<path d="M79.4108 69.3913C83.5481 70.5057 87.8051 68.056 88.9191 63.9198C90.0331 59.7837 87.5823 55.5273 83.445 54.413C79.3078 53.2987 75.0508 55.7483 73.9367 59.8845C72.8227 64.0207 75.2735 68.277 79.4108 69.3913Z" fill="#213E72"/>
<path d="M87.4793 39.4346C75.0882 36.0972 62.2975 43.4606 58.9603 55.8507C55.6232 68.2409 62.9894 81.0334 75.3765 84.3697C87.7636 87.706 100.559 80.3416 103.895 67.9535C107.232 55.5654 99.8694 42.7717 87.4793 39.4346ZM78.066 74.3841C71.172 72.5273 67.0891 65.4343 68.9459 58.5402C70.8028 51.6462 77.8957 47.5633 84.7898 49.4201C91.6838 51.277 95.7667 58.3699 93.9099 65.264C92.0451 72.1516 84.9585 76.2309 78.066 74.3841Z" fill="#213E72"/>
<defs>
<filter id="filter0_d_90_108" x="10.4038" y="9.92042" width="147.358" height="147.358" filterUnits="userSpaceOnUse" color-interpolation-filters="sRGB">
<feFlood flood-opacity="0" result="BackgroundImageFix"/>
<feColorMatrix in="SourceAlpha" type="matrix" values="0 0 0 0 0 0 0 0 0 0 0 0 0 0 0 0 0 0 127 0" result="hardAlpha"/>
<feOffset dx="6.73" dy="6.73"/>
<feGaussianBlur stdDeviation="5.61"/>
<feColorMatrix type="matrix" values="0 0 0 0 0 0 0 0 0 0 0 0 0 0 0 0 0 0 0.65 0"/>
<feBlend mode="normal" in2="BackgroundImageFix" result="effect1_dropShadow_90_108"/>
<feBlend mode="normal" in="SourceGraphic" in2="effect1_dropShadow_90_108" result="shape"/>
</filter>
</defs>
</svg>
