<svg width="76" height="75" viewBox="0 0 76 75" fill="none" xmlns="http://www.w3.org/2000/svg">
<circle cx="37.9133" cy="37.5" r="37.5" fill="#1D1B22"/>
<path d="M37.9133 17.2175L39.016 15.2521C38.3311 14.8681 37.4955 14.8681 36.8113 15.2521L37.914 17.2175H37.9133ZM41.0631 18.9841L39.9604 20.9494C40.289 21.134 40.6581 21.2327 41.0347 21.2374L41.0624 18.9841H41.0631ZM44.6741 19.0287L46.6117 17.878C46.2108 17.2026 45.4874 16.7855 44.7018 16.7753L44.6741 19.0287ZM46.5184 22.1339L44.5808 23.2846C44.7734 23.6085 45.0439 23.8789 45.3677 24.0716L46.5184 22.1339ZM49.6236 23.9783L51.877 23.9505C51.8675 23.1656 51.4497 22.4422 50.7743 22.0406L49.6236 23.9783ZM49.6682 27.5892L47.4149 27.6169C47.4196 27.9935 47.5183 28.3633 47.7029 28.6919L49.6682 27.5892ZM51.4348 30.7391L53.4002 31.8417C53.7842 31.1569 53.7842 30.3212 53.4002 29.6364L51.4348 30.7391ZM49.6682 33.8889L47.7029 32.7862C47.519 33.1148 47.4196 33.4839 47.4149 33.8605L49.6682 33.8882V33.8889ZM49.6236 37.4998L50.7743 39.4375C51.4497 39.0366 51.8675 38.3132 51.877 37.5276L49.6236 37.4998ZM46.5184 39.3442L45.3677 37.4065C45.0439 37.5992 44.7734 37.8697 44.5808 38.1935L46.5184 39.3442ZM44.6741 42.4494L44.7018 44.7028C45.4867 44.6933 46.2101 44.2755 46.6117 43.6001L44.6741 42.4494ZM41.0631 42.494L41.0354 40.2407C40.6588 40.2454 40.2897 40.3441 39.9611 40.5287L41.0638 42.494H41.0631ZM37.9133 44.2606L36.8106 46.226C37.4955 46.61 38.3311 46.61 39.0153 46.226L37.9126 44.2606H37.9133ZM34.7634 42.494L35.8661 40.5287C35.5375 40.3448 35.1684 40.2454 34.7918 40.2407L34.7641 42.494H34.7634ZM31.1525 42.4494L29.2148 43.6001C29.6158 44.2755 30.3392 44.6933 31.1248 44.7028L31.1525 42.4494ZM29.3081 39.3442L31.2458 38.1935C31.0531 37.8697 30.7827 37.5992 30.4588 37.4065L29.3081 39.3442ZM26.2029 37.4998L23.9495 37.5276C23.959 38.3125 24.3768 39.0359 25.0522 39.4375L26.2029 37.4998ZM26.1583 33.8889L28.4117 33.8612C28.4069 33.4846 28.3082 33.1155 28.1237 32.7869L26.1583 33.8896V33.8889ZM24.3917 30.7391L22.4263 29.6364C22.0423 30.3212 22.0423 31.1569 22.4263 31.8417L24.3917 30.7391ZM26.1583 27.5892L28.1237 28.6919C28.3082 28.3633 28.4069 27.9942 28.4117 27.6169L26.1583 27.5892ZM26.2029 23.9783L25.0522 22.0406C24.3768 22.4415 23.9597 23.1649 23.9495 23.9505L26.2029 23.9783ZM29.3081 22.1339L30.4588 24.0716C30.7827 23.8789 31.0531 23.6085 31.2458 23.2846L29.3081 22.1339ZM31.1525 19.0287L31.1248 16.7753C30.3398 16.7848 29.6158 17.2026 29.2148 17.878L31.1525 19.0287ZM34.7634 18.9841L34.7911 21.2374C35.1677 21.2327 35.5369 21.134 35.8654 20.9494L34.7627 18.9841H34.7634ZM19.8843 53.2748L17.8689 52.2668C17.5194 52.9651 17.5572 53.7947 17.9676 54.4593C18.378 55.1239 19.1034 55.5282 19.885 55.5282V53.2748H19.8843ZM25.518 53.2748L27.3211 51.9226C26.8952 51.3554 26.2279 51.0214 25.518 51.0214V53.2748ZM28.8984 57.7822L27.0953 59.1344C27.5639 59.7591 28.3224 60.0971 29.1006 60.0268C29.8787 59.9565 30.5643 59.4886 30.9138 58.7902L28.8984 57.7822ZM55.9416 53.2748V55.5282C56.7225 55.5282 57.4479 55.1239 57.8589 54.4593C58.2693 53.7947 58.3065 52.9651 57.9577 52.2668L55.9423 53.2748H55.9416ZM50.3078 53.2748V51.0214C49.5986 51.0214 48.9306 51.3554 48.5047 51.9226L50.3078 53.2748ZM46.9274 57.7822L44.912 58.7902C45.2616 59.4886 45.9471 59.9571 46.7253 60.0268C47.5034 60.0971 48.262 59.7591 48.7305 59.1344L46.9274 57.7822ZM54.5773 45.5066C54.0208 44.3931 52.6673 43.9422 51.5538 44.4986C50.4403 45.055 49.9894 46.4092 50.5458 47.522L54.5773 45.5066ZM45.5631 50.0141C45.0067 48.9006 43.6532 48.4496 42.5397 49.006C41.4262 49.5624 40.9752 50.9166 41.5316 52.0295L45.5631 50.0141ZM34.2949 52.0295C34.8513 50.9166 34.4004 49.5624 33.2869 49.006C32.1734 48.4496 30.8199 48.9006 30.2634 50.0141L34.2949 52.0295ZM25.2807 47.522C25.8372 46.4092 25.3862 45.055 24.2727 44.4986C23.1592 43.9422 21.8057 44.3931 21.2493 45.5066L25.2807 47.522ZM36.8113 19.1828L39.9611 20.9494L42.1665 17.0187L39.0166 15.2521L36.8119 19.1828H36.8113ZM41.0354 21.2374L44.6463 21.2821L44.7025 16.7753L41.0915 16.7307L41.0354 21.2374ZM42.7371 20.1794L44.5814 23.2846L48.4567 20.9826L46.6124 17.8773L42.7371 20.1794ZM45.3684 24.0709L48.4736 25.9152L50.775 22.0399L47.6704 20.1956L45.3684 24.0709ZM47.3709 24.0053L47.4156 27.6162L51.9223 27.5601L51.8777 23.9492L47.3709 24.0053ZM47.7036 28.6912L49.4702 31.8411L53.4016 29.6357L51.635 26.4858L47.7036 28.6912ZM49.4702 29.6357L47.7036 32.7855L51.635 34.9909L53.4016 31.8411L49.4702 29.6357ZM47.4156 33.8598L47.3709 37.4708L51.8777 37.5269L51.9223 33.916L47.4156 33.8598ZM44.5814 38.1921L42.7371 41.2974L46.6124 43.5987L48.4567 40.4942L44.5814 38.1921ZM44.647 40.1947L41.0361 40.2393L41.0922 44.7461L44.7031 44.7014L44.647 40.1947ZM34.7925 40.2393L31.1816 40.1947L31.1254 44.7014L34.7364 44.7461L34.7925 40.2393ZM33.0908 41.2974L31.2465 38.1921L27.3712 40.4942L29.2155 43.5987L33.0908 41.2974ZM28.4576 37.4708L28.413 33.8598L23.9063 33.916L23.9509 37.5269L28.4576 37.4708ZM28.125 32.7849L26.3584 29.635L22.4277 31.8404L24.1943 34.9902L28.125 32.7849ZM26.3584 31.8404L28.125 28.6905L24.1943 26.4852L22.4277 29.635L26.3584 31.8404ZM28.413 27.6162L28.4576 24.0053L23.9509 23.9492L23.9063 27.5601L28.413 27.6162ZM27.355 25.9146L30.4602 24.0702L28.1581 20.1949L25.0529 22.0393L27.355 25.9146ZM31.2465 23.2833L33.0908 20.178L29.2155 17.876L27.3712 20.9812L31.2465 23.2833ZM31.1809 21.2807L34.7918 21.2361L34.7357 16.7294L31.1248 16.774L31.1809 21.2807ZM35.8668 20.9481L39.0166 19.1815L36.8119 15.2508L33.6621 17.0174L35.8675 20.9481H35.8668ZM48.4729 35.5602L45.3677 37.4045L47.6698 41.2798L50.7743 39.4355L48.4729 35.5602ZM30.4595 37.4045L27.3543 35.5602L25.0522 39.4355L28.1575 41.2798L30.4595 37.4045ZM39.9611 40.526L36.8113 42.2926L39.016 46.224L42.1658 44.4574L39.9604 40.526H39.9611ZM39.0166 42.2926L35.8668 40.526L33.6614 44.4574L36.8113 46.224L39.016 42.2926H39.0166ZM19.8856 55.5261H25.5194V51.0187H19.8856V55.5261ZM23.717 54.6249L27.0974 59.1323L30.7029 56.428L27.3225 51.9206L23.717 54.6249ZM55.9436 51.0194H50.3098V55.5268H55.9436V51.0194ZM48.5067 51.9206L45.1264 56.428L48.7319 59.1323L52.1123 54.6249L48.5067 51.9206ZM50.5478 47.52L53.9282 54.2808L57.9597 52.2654L54.5793 45.5046L50.5478 47.52ZM41.5337 52.0274L44.9141 58.7882L48.9455 56.7728L45.5651 50.012L41.5337 52.0274ZM30.2655 50.012L26.8851 56.7728L30.9165 58.7882L34.2969 52.0274L30.2655 50.012ZM21.2513 45.5046L17.8709 52.2654L21.9024 54.2808L25.2828 47.52L21.2513 45.5046ZM40.1687 30.737C40.1687 31.9817 39.16 32.9904 37.9153 32.9904V37.4978C41.6493 37.4978 44.6761 34.471 44.6761 30.737H40.1687ZM37.9153 32.9904C36.6706 32.9904 35.6619 31.9817 35.6619 30.737H31.1545C31.1545 34.471 34.1813 37.4978 37.9153 37.4978V32.9904ZM35.6619 30.737C35.6619 29.4924 36.6706 28.4837 37.9153 28.4837V23.9762C34.1813 23.9762 31.1545 27.003 31.1545 30.737H35.6619ZM37.9153 28.4837C39.16 28.4837 40.1687 29.4924 40.1687 30.737H44.6761C44.6761 27.003 41.6493 23.9762 37.9153 23.9762V28.4837Z" fill="#29A9FF"/>
</svg>
