<svg width="59" height="146" viewBox="0 0 59 146" fill="none" xmlns="http://www.w3.org/2000/svg">
<path d="M10.5574 88.5613L10.6508 89.4577H11.552H47.1936H48.0948L48.1882 88.5613L57.0986 3.02145L57.2136 1.91785H56.104H2.6416H1.53202L1.64698 3.02145L10.5574 88.5613ZM9.86455 137.291L9.87478 137.3C14.9707 142.121 21.4991 144.504 29.3728 144.504C37.3726 144.504 43.9095 142.124 48.8807 137.291L48.881 137.291C53.9471 132.361 56.51 126.497 56.51 119.743C56.51 112.864 53.9511 107.054 48.8652 102.379C43.8934 97.6855 37.3618 95.378 29.3728 95.378C21.5072 95.378 14.9824 97.6902 9.88535 102.374C4.79623 107.05 2.23563 112.861 2.23563 119.743C2.23563 126.497 4.79848 132.361 9.86455 137.291Z" stroke="url(#paint0_linear_522_358)" stroke-width="2"/>
<defs>
<linearGradient id="paint0_linear_522_358" x1="29.3728" y1="2.91785" x2="29.3728" y2="143.504" gradientUnits="userSpaceOnUse">
<stop stop-color="#29A9FF"/>
<stop offset="0.513224" stop-color="#7039C7"/>
<stop offset="1" stop-color="#FF0098"/>
</linearGradient>
</defs>
</svg>
