<svg width="47" height="33" viewBox="0 0 47 33" fill="none" xmlns="http://www.w3.org/2000/svg">
<path d="M32.5148 11.9942L38.3217 8.5097C40.1092 7.43744 41.003 6.90131 41.7379 6.9696C42.3788 7.02909 42.9643 7.36037 43.3449 7.8796C43.7824 8.47522 43.7824 9.51706 43.7824 11.6014V21.4005C43.7824 23.4848 43.7824 24.5274 43.3449 25.1223C42.9636 25.6415 42.3788 25.9728 41.7379 26.0323C41.0023 26.1006 40.1086 25.5645 38.3217 24.4922L32.5148 21.0077M10.4294 30.0219H25.3031C27.8276 30.0219 29.0898 30.0219 30.0539 29.5303C30.9017 29.0983 31.5913 28.4087 32.0233 27.5609C32.5148 26.5968 32.5148 25.3346 32.5148 22.8101V10.1898C32.5148 7.66528 32.5148 6.40304 32.0233 5.43895C31.5913 4.59115 30.9017 3.90155 30.0539 3.46954C29.0898 2.97803 27.8276 2.97803 25.3031 2.97803H10.4294C7.9049 2.97803 6.64266 2.97803 5.67857 3.46954C4.83077 3.90155 4.14117 4.59115 3.70915 5.43895C3.21764 6.40304 3.21765 7.66528 3.21765 10.1898V22.8101C3.21765 25.3346 3.21764 26.5968 3.70915 27.5609C4.14117 28.4087 4.83077 29.0983 5.67857 29.5303C6.64266 30.0219 7.9049 30.0219 10.4294 30.0219Z" stroke="#29A9FF" stroke-width="5" stroke-linecap="round" stroke-linejoin="round"/>
</svg>
