<svg width="75" height="75" viewBox="0 0 75 75" fill="none" xmlns="http://www.w3.org/2000/svg">
<circle cx="37.5" cy="37.5" r="37.5" fill="#1D1B22"/>
<path d="M46.5148 32.9942L52.3217 29.5097C54.1092 28.4374 55.003 27.9013 55.7379 27.9696C56.3788 28.0291 56.9643 28.3604 57.3449 28.8796C57.7824 29.4752 57.7824 30.5171 57.7824 32.6014V42.4005C57.7824 44.4848 57.7824 45.5274 57.3449 46.1223C56.9636 46.6415 56.3788 46.9728 55.7379 47.0323C55.0023 47.1006 54.1086 46.5645 52.3217 45.4922L46.5148 42.0077M24.4294 51.0219H39.3031C41.8276 51.0219 43.0898 51.0219 44.0539 50.5303C44.9017 50.0983 45.5913 49.4087 46.0233 48.5609C46.5148 47.5968 46.5148 46.3346 46.5148 43.8101V31.1898C46.5148 28.6653 46.5148 27.403 46.0233 26.439C45.5913 25.5912 44.9017 24.9016 44.0539 24.4695C43.0898 23.978 41.8276 23.978 39.3031 23.978H24.4294C21.9049 23.978 20.6427 23.978 19.6786 24.4695C18.8308 24.9016 18.1412 25.5912 17.7092 26.439C17.2176 27.403 17.2177 28.6653 17.2177 31.1898V43.8101C17.2177 46.3346 17.2176 47.5968 17.7092 48.5609C18.1412 49.4087 18.8308 50.0983 19.6786 50.5303C20.6427 51.0219 21.9049 51.0219 24.4294 51.0219Z" stroke="#29A9FF" stroke-width="5" stroke-linecap="round" stroke-linejoin="round"/>
</svg>
