<svg width="76" height="75" viewBox="0 0 76 75" fill="none" xmlns="http://www.w3.org/2000/svg">
<circle cx="38.3044" cy="37.5" r="37.5" fill="#1D1B22"/>
<path d="M24.5916 19.471H24.6139M18.2155 32.9926C19.1437 30.3667 21.6479 28.4852 24.5916 28.4852C27.5352 28.4852 30.0394 30.3667 30.9677 32.9926M24.5909 44.2608H24.6132M18.2148 57.7824C19.143 55.1565 21.6472 53.275 24.5909 53.275C27.5345 53.275 30.0387 55.1565 30.967 57.7824M41.718 29.6122H54.7886C56.0509 29.6122 56.6816 29.6122 57.1637 29.3668C57.5876 29.1504 57.9324 28.8056 58.1487 28.3817C58.3941 27.8997 58.3941 27.2689 58.3941 26.0067V24.2036C58.3941 22.9413 58.3941 22.3106 58.1487 21.8285C57.9324 21.4046 57.5876 21.0598 57.1637 20.8435C56.6816 20.598 56.0502 20.598 54.7886 20.598H41.718C40.4557 20.598 39.825 20.598 39.3429 20.8435C38.919 21.0598 38.5742 21.4046 38.3579 21.8285C38.1125 22.3106 38.1125 22.9413 38.1125 24.2036V26.0067C38.1125 27.2689 38.1125 27.8997 38.3579 28.3817C38.5735 28.8056 38.9183 29.1504 39.3429 29.3668C39.825 29.6122 40.4557 29.6122 41.718 29.6122ZM41.718 54.402H54.7886C56.0509 54.402 56.6816 54.402 57.1637 54.1566C57.5876 53.9402 57.9324 53.5961 58.1487 53.1715C58.3941 52.6895 58.3941 52.0587 58.3941 50.7964V48.9933C58.3941 47.7311 58.3941 47.1003 58.1487 46.6183C57.9324 46.1944 57.5876 45.8496 57.1637 45.6332C56.6816 45.3878 56.0502 45.3878 54.7886 45.3878H41.718C40.4557 45.3878 39.825 45.3878 39.3429 45.6332C38.919 45.8496 38.5742 46.1937 38.3579 46.6183C38.1125 47.1003 38.1125 47.7311 38.1125 48.9933V50.7964C38.1125 52.0587 38.1125 52.6895 38.3579 53.1715C38.5735 53.5954 38.9183 53.9402 39.3429 54.1566C39.825 54.402 40.4557 54.402 41.718 54.402ZM26.8443 19.471C26.8443 20.7157 25.8355 21.7244 24.5909 21.7244C23.3462 21.7244 22.3375 20.7157 22.3375 19.471C22.3375 18.2264 23.3462 17.2177 24.5909 17.2177C25.8355 17.2177 26.8443 18.2264 26.8443 19.471ZM26.8443 44.2608C26.8443 45.5055 25.8355 46.5142 24.5909 46.5142C23.3462 46.5142 22.3375 45.5055 22.3375 44.2608C22.3375 43.0161 23.3462 42.0074 24.5909 42.0074C25.8355 42.0074 26.8443 43.0161 26.8443 44.2608Z" stroke="#29A9FF" stroke-width="5" stroke-linecap="round" stroke-linejoin="round"/>
</svg>
