<svg width="223" height="246" viewBox="0 0 223 246" fill="none" xmlns="http://www.w3.org/2000/svg">
<g filter="url(#filter0_d_2609_4)">
<path d="M208.076 82.2369L178.017 101.077C176.412 102.081 175.406 103.814 175.32 105.7L173.798 141.153C173.594 145.911 168.018 148.364 164.367 145.307L137.164 122.533C135.709 121.311 133.761 120.897 131.939 121.404L97.7644 130.902C93.1766 132.176 89.1091 127.633 90.8934 123.216L104.137 90.3041C104.838 88.5463 104.641 86.5638 103.601 84.9785L84.0017 55.4036C81.3696 51.4393 84.4357 46.175 89.1897 46.5016L124.584 48.9395C126.472 49.0726 128.304 48.2576 129.487 46.7763L151.554 18.9992C154.509 15.2724 160.465 16.5622 161.622 21.1789L170.246 55.5866C170.702 57.4251 172.036 58.9074 173.82 59.5702L207.063 71.9756C211.528 73.6491 212.138 79.695 208.108 82.2307L208.076 82.2369Z" fill="#48E580"/>
</g>
<g filter="url(#filter1_d_2609_4)">
<path d="M58.074 214.15C86.8021 228.412 121.572 216.847 135.735 188.318C149.898 159.789 138.091 125.101 109.362 110.839C80.6344 96.577 45.8644 108.142 31.7015 136.671C17.5386 165.199 29.3459 199.888 58.074 214.15Z" fill="#FF0098"/>
</g>
<path d="M70.9494 187.671L59.3227 184.944C55.8954 184.14 54.1818 183.738 53.0281 182.769C52.0136 181.917 51.2952 180.769 50.9765 179.49C50.6137 178.035 51.0125 176.335 51.8099 172.935L58.6438 143.799C59.4412 140.399 59.84 138.699 60.8118 137.557C61.6661 136.553 62.8202 135.843 64.1077 135.532C65.5718 135.177 67.2855 135.578 70.7128 136.382L106.204 144.707C109.631 145.511 111.345 145.913 112.499 146.882C113.513 147.733 114.232 148.882 114.55 150.161C114.913 151.616 114.514 153.316 113.717 156.716L112.435 162.179M74.5846 130.886L73.1607 136.957M105.18 138.062L103.756 144.133M58.0744 146.226L113.147 159.143M87.3522 165.902L67.4647 161.238M73.7969 175.531L64.6182 173.378M83.1873 190.541L89.6713 190.765C90.2362 190.785 90.5196 190.794 90.7939 190.756C91.0382 190.722 91.2767 190.659 91.506 190.568C91.7643 190.467 92.0041 190.319 92.4848 190.025L108.164 180.39C110.247 179.11 110.885 176.392 109.588 174.319C108.291 172.247 105.552 171.604 103.469 172.884L87.7892 182.519C87.3083 182.814 87.0684 182.962 86.8626 183.146C86.6792 183.308 86.5158 183.493 86.3765 183.695C86.2189 183.921 86.1017 184.177 85.8687 184.687L83.188 190.543L83.1873 190.541Z" stroke="#8EFE00" stroke-width="6" stroke-linecap="round" stroke-linejoin="round"/>
<defs>
<filter id="filter0_d_2609_4" x="78.0332" y="11.8269" width="144.449" height="146.511" filterUnits="userSpaceOnUse" color-interpolation-filters="sRGB">
<feFlood flood-opacity="0" result="BackgroundImageFix"/>
<feColorMatrix in="SourceAlpha" type="matrix" values="0 0 0 0 0 0 0 0 0 0 0 0 0 0 0 0 0 0 127 0" result="hardAlpha"/>
<feOffset dx="3.34" dy="3.34"/>
<feGaussianBlur stdDeviation="4.17"/>
<feColorMatrix type="matrix" values="0 0 0 0 0 0 0 0 0 0 0 0 0 0 0 0 0 0 0.65 0"/>
<feBlend mode="normal" in2="BackgroundImageFix" result="effect1_dropShadow_2609_4"/>
<feBlend mode="normal" in="SourceGraphic" in2="effect1_dropShadow_2609_4" result="shape"/>
</filter>
<filter id="filter1_d_2609_4" x="21.7109" y="100.731" width="136.015" height="135.527" filterUnits="userSpaceOnUse" color-interpolation-filters="sRGB">
<feFlood flood-opacity="0" result="BackgroundImageFix"/>
<feColorMatrix in="SourceAlpha" type="matrix" values="0 0 0 0 0 0 0 0 0 0 0 0 0 0 0 0 0 0 127 0" result="hardAlpha"/>
<feOffset dx="6" dy="6"/>
<feGaussianBlur stdDeviation="5"/>
<feColorMatrix type="matrix" values="0 0 0 0 0 0 0 0 0 0 0 0 0 0 0 0 0 0 0.65 0"/>
<feBlend mode="normal" in2="BackgroundImageFix" result="effect1_dropShadow_2609_4"/>
<feBlend mode="normal" in="SourceGraphic" in2="effect1_dropShadow_2609_4" result="shape"/>
</filter>
</defs>
</svg>
