<svg width="76" height="75" viewBox="0 0 76 75" fill="none" xmlns="http://www.w3.org/2000/svg">
<circle cx="37.7178" cy="37.5" r="37.5" fill="#1D1B22"/>
<path d="M39.9718 55.0287V50.5213C39.9718 44.298 34.9269 39.2531 28.7036 39.2531C22.4803 39.2531 17.4354 44.298 17.4354 50.5213V55.0287H39.9712H39.9718ZM39.9718 55.0287H58.0008V52.7754C58.0008 46.1376 52.9559 41.5072 46.7326 41.5072C43.5476 41.5072 40.6709 42.9168 38.6217 45.183M35.4644 25.7322C35.4644 29.4662 32.4376 32.493 28.7036 32.493C24.9696 32.493 21.9428 29.4662 21.9428 25.7322C21.9428 21.9982 24.9696 18.9714 28.7036 18.9714C32.4376 18.9714 35.4644 21.9982 35.4644 25.7322ZM51.2394 30.2396C51.2394 32.729 49.2213 34.7471 46.7319 34.7471C44.2426 34.7471 42.2245 32.729 42.2245 30.2396C42.2245 27.7503 44.2426 25.7322 46.7319 25.7322C49.2213 25.7322 51.2394 27.7503 51.2394 30.2396Z" stroke="#29A9FF" stroke-width="5" stroke-linecap="round" stroke-linejoin="round"/>
</svg>
