<svg width="217" height="166" viewBox="0 0 217 166" fill="none" xmlns="http://www.w3.org/2000/svg">
<g filter="url(#filter0_d_673_2)">
<path d="M45.1885 146.99C69.6538 155.511 96.3949 142.586 104.916 118.121C113.438 93.6554 100.513 66.9143 76.0474 58.3928C51.5821 49.8714 24.841 62.7965 16.3196 87.2618C7.79811 111.727 20.7232 138.468 45.1885 146.99Z" fill="#213E72"/>
</g>
<path d="M62.9614 95.8705L54.7327 78.8458C54.1252 77.5891 53.8215 76.9607 53.3449 76.5991C52.9261 76.2806 52.4162 76.103 51.8902 76.0924C51.2921 76.0797 50.6637 76.3834 49.4069 76.9908L47.6112 77.8588C46.3545 78.4662 45.7261 78.7699 45.3645 79.2466C45.0457 79.6661 44.8684 80.1752 44.8578 80.7012C44.845 81.2994 45.1488 81.9278 45.7562 83.1845L53.9849 100.209M67.3001 104.847L75.5283 121.871C76.1358 123.127 76.4395 123.756 76.4267 124.354C76.4161 124.88 76.2386 125.39 75.9201 125.809C75.5585 126.285 74.9301 126.589 73.6733 127.196L71.8779 128.064C70.6211 128.671 69.9927 128.975 69.3943 128.963C68.8678 128.951 68.3587 128.774 67.9397 128.456C67.463 128.094 67.1593 127.466 66.5521 126.209L58.3239 109.185M55.5351 87.7134L58.3581 86.3465M69.3406 116.277L72.1717 114.926M74.4159 90.337L78.7546 99.3134M32.2852 116.573L32.669 115.83C34.0281 113.201 34.7077 111.886 35.6066 110.751C36.4048 109.744 37.3287 108.844 38.3574 108.073C39.5157 107.205 40.848 106.561 43.5127 105.273L80.4801 87.4053C82.9592 86.2076 85.9398 87.2458 87.1377 89.7242C88.3356 92.2025 87.2971 95.1839 84.8188 96.3817L47.1735 114.577C44.7561 115.746 43.5478 116.33 42.2783 116.687C41.152 117.004 39.9915 117.188 38.8221 117.235C37.5044 117.287 36.1743 117.105 33.5147 116.741L32.2859 116.573L32.2852 116.573Z" stroke="#8EFE00" stroke-width="5" stroke-linecap="round" stroke-linejoin="round"/>
<g filter="url(#filter1_d_673_2)">
<path d="M136.782 115.436C164.658 123.284 193.619 107.048 201.467 79.1722C209.315 51.2961 193.08 22.3357 165.204 14.4873C137.328 6.63897 108.367 22.8746 100.519 50.7507C92.6704 78.6268 108.906 107.587 136.782 115.436Z" fill="#48E580"/>
</g>
<path d="M179.962 64.8816L156.918 43.9205L126.322 49.7796L137.237 59.7085M179.961 64.8814L165.469 67.657L179.961 64.8814ZM179.961 64.8814L173.92 86.3375L179.961 64.8814ZM179.961 64.8814L153.142 57.3305L179.961 64.8814ZM137.237 59.7085L131.468 73.9416C130.738 75.742 131.208 77.8066 132.646 79.1143C139.844 85.6616 149.705 88.438 159.262 86.6081C161.171 86.2431 162.648 84.7262 162.965 82.8093L165.469 67.657M137.237 59.7085L149.366 70.7407L165.469 67.657" fill="#48E580"/>
<path d="M179.962 64.8816L156.918 43.9205L126.322 49.7796L137.237 59.7085M137.237 59.7085L131.468 73.9416C130.738 75.742 131.208 77.8066 132.646 79.1143C139.844 85.6616 149.705 88.438 159.262 86.6081C161.171 86.2431 162.648 84.7262 162.965 82.8093L165.469 67.657M137.237 59.7085L149.366 70.7407L165.469 67.657M179.961 64.8814L165.469 67.657M179.961 64.8814L173.92 86.3375M179.961 64.8814L153.142 57.3305" stroke="#7039C7" stroke-width="6" stroke-linecap="round" stroke-linejoin="round"/>
<defs>
<filter id="filter0_d_673_2" x="9.69629" y="51.7699" width="113.843" height="113.843" filterUnits="userSpaceOnUse" color-interpolation-filters="sRGB">
<feFlood flood-opacity="0" result="BackgroundImageFix"/>
<feColorMatrix in="SourceAlpha" type="matrix" values="0 0 0 0 0 0 0 0 0 0 0 0 0 0 0 0 0 0 127 0" result="hardAlpha"/>
<feOffset dx="6" dy="6"/>
<feGaussianBlur stdDeviation="5"/>
<feColorMatrix type="matrix" values="0 0 0 0 0 0 0 0 0 0 0 0 0 0 0 0 0 0 0.65 0"/>
<feBlend mode="normal" in2="BackgroundImageFix" result="effect1_dropShadow_673_2"/>
<feBlend mode="normal" in="SourceGraphic" in2="effect1_dropShadow_673_2" result="shape"/>
</filter>
<filter id="filter1_d_673_2" x="95.203" y="9.1716" width="121.579" height="121.58" filterUnits="userSpaceOnUse" color-interpolation-filters="sRGB">
<feFlood flood-opacity="0" result="BackgroundImageFix"/>
<feColorMatrix in="SourceAlpha" type="matrix" values="0 0 0 0 0 0 0 0 0 0 0 0 0 0 0 0 0 0 127 0" result="hardAlpha"/>
<feOffset dx="5" dy="5"/>
<feGaussianBlur stdDeviation="4.17"/>
<feColorMatrix type="matrix" values="0 0 0 0 0 0 0 0 0 0 0 0 0 0 0 0 0 0 0.65 0"/>
<feBlend mode="normal" in2="BackgroundImageFix" result="effect1_dropShadow_673_2"/>
<feBlend mode="normal" in="SourceGraphic" in2="effect1_dropShadow_673_2" result="shape"/>
</filter>
</defs>
</svg>
