<svg width="117" height="116" viewBox="0 0 117 116" fill="none" xmlns="http://www.w3.org/2000/svg">
<path d="M113.148 57.6708C113.148 87.845 88.5104 112.342 58.0741 112.342C27.6378 112.342 3 87.845 3 57.6708C3 27.4966 27.6378 3 58.0741 3C88.5104 3 113.148 27.4966 113.148 57.6708Z" stroke="#EDEDED" stroke-width="6"/>
<path d="M58.9879 47.6667V57M58.9879 66.3333H59.0187M87 57C87 72.4644 74.4644 85 59 85H31.0028C31.0028 85 35.8533 73.352 33.912 69.4469C32.0481 65.6977 31 61.4716 31 57C31 41.5356 43.5356 29 59 29C74.4644 29 87 41.5356 87 57Z" stroke="#EDEDED" stroke-width="6" stroke-linecap="round" stroke-linejoin="round"/>
</svg>
