<svg width="145" height="77" viewBox="0 0 145 77" fill="none" xmlns="http://www.w3.org/2000/svg">
<path d="M77.688 30.192C76.824 30.192 76.0187 30.0533 75.272 29.776C74.536 29.488 73.896 29.0827 73.352 28.56C72.808 28.0373 72.3813 27.424 72.072 26.72C71.7733 26.016 71.624 25.2427 71.624 24.4C71.624 23.5573 71.7733 22.784 72.072 22.08C72.3813 21.376 72.808 20.7627 73.352 20.24C73.9067 19.7173 74.552 19.3173 75.288 19.04C76.024 18.752 76.8293 18.608 77.704 18.608C78.6747 18.608 79.5493 18.7787 80.328 19.12C81.1173 19.4507 81.7787 19.9413 82.312 20.592L80.648 22.128C80.264 21.6907 79.8373 21.3653 79.368 21.152C78.8987 20.928 78.3867 20.816 77.832 20.816C77.3093 20.816 76.8293 20.9013 76.392 21.072C75.9547 21.2427 75.576 21.488 75.256 21.808C74.936 22.128 74.6853 22.5067 74.504 22.944C74.3333 23.3813 74.248 23.8667 74.248 24.4C74.248 24.9333 74.3333 25.4187 74.504 25.856C74.6853 26.2933 74.936 26.672 75.256 26.992C75.576 27.312 75.9547 27.5573 76.392 27.728C76.8293 27.8987 77.3093 27.984 77.832 27.984C78.3867 27.984 78.8987 27.8773 79.368 27.664C79.8373 27.44 80.264 27.104 80.648 26.656L82.312 28.192C81.7787 28.8427 81.1173 29.3387 80.328 29.68C79.5493 30.0213 78.6693 30.192 77.688 30.192ZM87.3153 30.128C86.6006 30.128 85.9606 29.9893 85.3953 29.712C84.8406 29.4347 84.4086 29.0133 84.0993 28.448C83.7899 27.872 83.6353 27.1413 83.6353 26.256V21.392H86.1313V25.888C86.1313 26.6027 86.2806 27.1307 86.5793 27.472C86.8886 27.8027 87.3206 27.968 87.8753 27.968C88.2593 27.968 88.6006 27.888 88.8993 27.728C89.1979 27.5573 89.4326 27.3013 89.6033 26.96C89.7739 26.608 89.8593 26.1707 89.8593 25.648V21.392H92.3553V30H89.9873V27.632L90.4193 28.32C90.1313 28.9173 89.7046 29.3707 89.1393 29.68C88.5846 29.9787 87.9766 30.128 87.3153 30.128ZM94.6676 30V21.392H97.0516V23.824L96.7156 23.12C96.9716 22.512 97.3823 22.0533 97.9476 21.744C98.513 21.424 99.201 21.264 100.012 21.264V23.568C99.905 23.5573 99.809 23.552 99.7236 23.552C99.6383 23.5413 99.5476 23.536 99.4516 23.536C98.769 23.536 98.2143 23.7333 97.7876 24.128C97.3716 24.512 97.1636 25.1147 97.1636 25.936V30H94.6676ZM104.454 30.128C103.718 30.128 103.009 30.0427 102.326 29.872C101.654 29.6907 101.121 29.4667 100.726 29.2L101.558 27.408C101.953 27.6533 102.417 27.856 102.95 28.016C103.494 28.1653 104.028 28.24 104.55 28.24C105.126 28.24 105.532 28.1707 105.766 28.032C106.012 27.8933 106.134 27.7013 106.134 27.456C106.134 27.2533 106.038 27.104 105.846 27.008C105.665 26.9013 105.42 26.8213 105.11 26.768C104.801 26.7147 104.46 26.6613 104.086 26.608C103.724 26.5547 103.356 26.4853 102.982 26.4C102.609 26.304 102.268 26.1653 101.958 25.984C101.649 25.8027 101.398 25.5573 101.206 25.248C101.025 24.9387 100.934 24.5387 100.934 24.048C100.934 23.504 101.089 23.024 101.398 22.608C101.718 22.192 102.177 21.8667 102.774 21.632C103.372 21.3867 104.086 21.264 104.918 21.264C105.505 21.264 106.102 21.328 106.71 21.456C107.318 21.584 107.825 21.7707 108.23 22.016L107.398 23.792C106.982 23.5467 106.561 23.3813 106.134 23.296C105.718 23.2 105.313 23.152 104.918 23.152C104.364 23.152 103.958 23.2267 103.702 23.376C103.446 23.5253 103.318 23.7173 103.318 23.952C103.318 24.1653 103.409 24.3253 103.59 24.432C103.782 24.5387 104.033 24.624 104.342 24.688C104.652 24.752 104.988 24.8107 105.35 24.864C105.724 24.9067 106.097 24.976 106.47 25.072C106.844 25.168 107.18 25.3067 107.478 25.488C107.788 25.6587 108.038 25.8987 108.23 26.208C108.422 26.5067 108.518 26.9013 108.518 27.392C108.518 27.9253 108.358 28.4 108.038 28.816C107.718 29.2213 107.254 29.5413 106.646 29.776C106.049 30.0107 105.318 30.128 104.454 30.128ZM115.338 30V28.32L115.178 27.952V24.944C115.178 24.4107 115.013 23.9947 114.682 23.696C114.362 23.3973 113.866 23.248 113.194 23.248C112.736 23.248 112.282 23.3227 111.834 23.472C111.397 23.6107 111.024 23.8027 110.714 24.048L109.818 22.304C110.288 21.9733 110.853 21.7173 111.514 21.536C112.176 21.3547 112.848 21.264 113.53 21.264C114.842 21.264 115.861 21.5733 116.586 22.192C117.312 22.8107 117.674 23.776 117.674 25.088V30H115.338ZM112.714 30.128C112.042 30.128 111.466 30.016 110.986 29.792C110.506 29.5573 110.138 29.2427 109.882 28.848C109.626 28.4533 109.498 28.0107 109.498 27.52C109.498 27.008 109.621 26.56 109.866 26.176C110.122 25.792 110.522 25.4933 111.066 25.28C111.61 25.056 112.32 24.944 113.194 24.944H115.482V26.4H113.466C112.88 26.4 112.474 26.496 112.25 26.688C112.037 26.88 111.93 27.12 111.93 27.408C111.93 27.728 112.053 27.984 112.298 28.176C112.554 28.3573 112.901 28.448 113.338 28.448C113.754 28.448 114.128 28.352 114.458 28.16C114.789 27.9573 115.029 27.664 115.178 27.28L115.562 28.432C115.381 28.9867 115.05 29.408 114.57 29.696C114.09 29.984 113.472 30.128 112.714 30.128ZM123.692 30.128C122.881 30.128 122.15 29.9467 121.5 29.584C120.849 29.2107 120.332 28.6933 119.948 28.032C119.574 27.3707 119.388 26.592 119.388 25.696C119.388 24.7893 119.574 24.0053 119.948 23.344C120.332 22.6827 120.849 22.1707 121.5 21.808C122.15 21.4453 122.881 21.264 123.692 21.264C124.417 21.264 125.052 21.424 125.596 21.744C126.14 22.064 126.561 22.5493 126.86 23.2C127.158 23.8507 127.308 24.6827 127.308 25.696C127.308 26.6987 127.164 27.5307 126.876 28.192C126.588 28.8427 126.172 29.328 125.628 29.648C125.094 29.968 124.449 30.128 123.692 30.128ZM124.124 28.08C124.529 28.08 124.897 27.984 125.228 27.792C125.558 27.6 125.82 27.328 126.012 26.976C126.214 26.6133 126.316 26.1867 126.316 25.696C126.316 25.1947 126.214 24.768 126.012 24.416C125.82 24.064 125.558 23.792 125.228 23.6C124.897 23.408 124.529 23.312 124.124 23.312C123.708 23.312 123.334 23.408 123.004 23.6C122.673 23.792 122.406 24.064 122.204 24.416C122.012 24.768 121.916 25.1947 121.916 25.696C121.916 26.1867 122.012 26.6133 122.204 26.976C122.406 27.328 122.673 27.6 123.004 27.792C123.334 27.984 123.708 28.08 124.124 28.08ZM126.38 30V28.24L126.428 25.68L126.268 23.136V18.128H128.764V30H126.38ZM136.354 30V28.32L136.194 27.952V24.944C136.194 24.4107 136.029 23.9947 135.698 23.696C135.378 23.3973 134.882 23.248 134.21 23.248C133.751 23.248 133.298 23.3227 132.85 23.472C132.413 23.6107 132.039 23.8027 131.73 24.048L130.834 22.304C131.303 21.9733 131.869 21.7173 132.53 21.536C133.191 21.3547 133.863 21.264 134.546 21.264C135.858 21.264 136.877 21.5733 137.602 22.192C138.327 22.8107 138.69 23.776 138.69 25.088V30H136.354ZM133.73 30.128C133.058 30.128 132.482 30.016 132.002 29.792C131.522 29.5573 131.154 29.2427 130.898 28.848C130.642 28.4533 130.514 28.0107 130.514 27.52C130.514 27.008 130.637 26.56 130.882 26.176C131.138 25.792 131.538 25.4933 132.082 25.28C132.626 25.056 133.335 24.944 134.21 24.944H136.498V26.4H134.482C133.895 26.4 133.49 26.496 133.266 26.688C133.053 26.88 132.946 27.12 132.946 27.408C132.946 27.728 133.069 27.984 133.314 28.176C133.57 28.3573 133.917 28.448 134.354 28.448C134.77 28.448 135.143 28.352 135.474 28.16C135.805 27.9573 136.045 27.664 136.194 27.28L136.578 28.432C136.397 28.9867 136.066 29.408 135.586 29.696C135.106 29.984 134.487 30.128 133.73 30.128ZM75.688 47L70.856 35.8H73.656L77.88 45.72H76.232L80.52 35.8H83.096L78.248 47H75.688ZM83.9958 47V38.392H86.4918V47H83.9958ZM85.2438 37.192C84.7851 37.192 84.4118 37.0587 84.1238 36.792C83.8358 36.5253 83.6918 36.1947 83.6918 35.8C83.6918 35.4053 83.8358 35.0747 84.1238 34.808C84.4118 34.5413 84.7851 34.408 85.2438 34.408C85.7024 34.408 86.0758 34.536 86.3638 34.792C86.6518 35.0373 86.7958 35.3573 86.7958 35.752C86.7958 36.168 86.6518 36.5147 86.3638 36.792C86.0864 37.0587 85.7131 37.192 85.2438 37.192ZM88.8083 47V38.392H91.1923V40.824L90.8563 40.12C91.1123 39.512 91.5229 39.0533 92.0883 38.744C92.6536 38.424 93.3416 38.264 94.1523 38.264V40.568C94.0456 40.5573 93.9496 40.552 93.8643 40.552C93.7789 40.5413 93.6883 40.536 93.5923 40.536C92.9096 40.536 92.3549 40.7333 91.9283 41.128C91.5123 41.512 91.3043 42.1147 91.3043 42.936V47H88.8083ZM99.4533 47.128C98.4399 47.128 97.6506 46.872 97.0853 46.36C96.5199 45.8373 96.2373 45.064 96.2373 44.04V36.488H98.7333V44.008C98.7333 44.3707 98.8293 44.6533 99.0213 44.856C99.2133 45.048 99.4746 45.144 99.8053 45.144C100.2 45.144 100.536 45.0373 100.813 44.824L101.485 46.584C101.229 46.7653 100.92 46.904 100.557 47C100.205 47.0853 99.8373 47.128 99.4533 47.128ZM94.9093 40.504V38.584H100.877V40.504H94.9093ZM106.518 47.128C105.804 47.128 105.164 46.9893 104.598 46.712C104.044 46.4347 103.612 46.0133 103.302 45.448C102.993 44.872 102.838 44.1413 102.838 43.256V38.392H105.334V42.888C105.334 43.6027 105.484 44.1307 105.782 44.472C106.092 44.8027 106.524 44.968 107.078 44.968C107.462 44.968 107.804 44.888 108.102 44.728C108.401 44.5573 108.636 44.3013 108.806 43.96C108.977 43.608 109.062 43.1707 109.062 42.648V38.392H111.558V47H109.19V44.632L109.622 45.32C109.334 45.9173 108.908 46.3707 108.342 46.68C107.788 46.9787 107.18 47.128 106.518 47.128ZM119.151 47V45.32L118.991 44.952V41.944C118.991 41.4107 118.825 40.9947 118.495 40.696C118.175 40.3973 117.679 40.248 117.007 40.248C116.548 40.248 116.095 40.3227 115.647 40.472C115.209 40.6107 114.836 40.8027 114.527 41.048L113.631 39.304C114.1 38.9733 114.665 38.7173 115.327 38.536C115.988 38.3547 116.66 38.264 117.343 38.264C118.655 38.264 119.673 38.5733 120.399 39.192C121.124 39.8107 121.487 40.776 121.487 42.088V47H119.151ZM116.527 47.128C115.855 47.128 115.279 47.016 114.799 46.792C114.319 46.5573 113.951 46.2427 113.695 45.848C113.439 45.4533 113.311 45.0107 113.311 44.52C113.311 44.008 113.433 43.56 113.679 43.176C113.935 42.792 114.335 42.4933 114.879 42.28C115.423 42.056 116.132 41.944 117.007 41.944H119.295V43.4H117.279C116.692 43.4 116.287 43.496 116.063 43.688C115.849 43.88 115.743 44.12 115.743 44.408C115.743 44.728 115.865 44.984 116.111 45.176C116.367 45.3573 116.713 45.448 117.151 45.448C117.567 45.448 117.94 45.352 118.271 45.16C118.601 44.9573 118.841 44.664 118.991 44.28L119.375 45.432C119.193 45.9867 118.863 46.408 118.383 46.696C117.903 46.984 117.284 47.128 116.527 47.128ZM123.746 47V35.128H126.242V47H123.746Z" fill="#29A9FF"/>
<g filter="url(#filter0_d_426_428)">
<circle cx="32.5" cy="32.5" r="28.5" fill="#29A9FF"/>
</g>
<path d="M18 27.8126H28.8333M28.8333 27.8126H47.9995M28.8333 27.8126L37.1667 20M37.1667 20H42.6666C44.4111 20 45.3405 20 46.0365 20.278M37.1667 20H23.3334C21.4664 20 20.533 20 19.82 20.3408C19.193 20.6403 18.683 21.1184 18.3635 21.7062C18 22.3747 18 23.2498 18 25.0001V39.9999C18 41.7502 18 42.6253 18.3635 43.2938C18.683 43.8816 19.193 44.3597 19.82 44.6592C20.533 45 21.4664 45 23.3334 45H42.6666C44.5336 45 45.467 45 46.18 44.6592C46.807 44.3597 47.317 43.8816 47.6365 43.2938C48 42.6253 48 41.7502 48 39.9999V25.0001C48 23.2498 48 22.3747 47.6365 21.7062C47.317 21.1184 46.807 20.6403 46.18 20.3408C46.1335 20.3183 46.0855 20.2977 46.037 20.278L38.0002 27.8126M28.0003 20L19.667 27.8126M38.0002 36.406L29.6668 41.0935V31.7186L38.0002 36.406Z" stroke="#1D1B22" stroke-width="3" stroke-linejoin="round"/>
<defs>
<filter id="filter0_d_426_428" x="0" y="0" width="77" height="77" filterUnits="userSpaceOnUse" color-interpolation-filters="sRGB">
<feFlood flood-opacity="0" result="BackgroundImageFix"/>
<feColorMatrix in="SourceAlpha" type="matrix" values="0 0 0 0 0 0 0 0 0 0 0 0 0 0 0 0 0 0 127 0" result="hardAlpha"/>
<feOffset dx="6" dy="6"/>
<feGaussianBlur stdDeviation="5"/>
<feComposite in2="hardAlpha" operator="out"/>
<feColorMatrix type="matrix" values="0 0 0 0 0 0 0 0 0 0 0 0 0 0 0 0 0 0 0.65 0"/>
<feBlend mode="normal" in2="BackgroundImageFix" result="effect1_dropShadow_426_428"/>
<feBlend mode="normal" in="SourceGraphic" in2="effect1_dropShadow_426_428" result="shape"/>
</filter>
</defs>
</svg>
