<svg width="145" height="77" viewBox="0 0 145 77" fill="none" xmlns="http://www.w3.org/2000/svg">
<path d="M77.688 30.192C76.824 30.192 76.0187 30.0533 75.272 29.776C74.536 29.488 73.896 29.0827 73.352 28.56C72.808 28.0373 72.3813 27.424 72.072 26.72C71.7733 26.016 71.624 25.2427 71.624 24.4C71.624 23.5573 71.7733 22.784 72.072 22.08C72.3813 21.376 72.808 20.7627 73.352 20.24C73.9067 19.7173 74.552 19.3173 75.288 19.04C76.024 18.752 76.8293 18.608 77.704 18.608C78.6747 18.608 79.5493 18.7787 80.328 19.12C81.1173 19.4507 81.7787 19.9413 82.312 20.592L80.648 22.128C80.264 21.6907 79.8373 21.3653 79.368 21.152C78.8987 20.928 78.3867 20.816 77.832 20.816C77.3093 20.816 76.8293 20.9013 76.392 21.072C75.9547 21.2427 75.576 21.488 75.256 21.808C74.936 22.128 74.6853 22.5067 74.504 22.944C74.3333 23.3813 74.248 23.8667 74.248 24.4C74.248 24.9333 74.3333 25.4187 74.504 25.856C74.6853 26.2933 74.936 26.672 75.256 26.992C75.576 27.312 75.9547 27.5573 76.392 27.728C76.8293 27.8987 77.3093 27.984 77.832 27.984C78.3867 27.984 78.8987 27.8773 79.368 27.664C79.8373 27.44 80.264 27.104 80.648 26.656L82.312 28.192C81.7787 28.8427 81.1173 29.3387 80.328 29.68C79.5493 30.0213 78.6693 30.192 77.688 30.192ZM87.3153 30.128C86.6006 30.128 85.9606 29.9893 85.3953 29.712C84.8406 29.4347 84.4086 29.0133 84.0993 28.448C83.7899 27.872 83.6353 27.1413 83.6353 26.256V21.392H86.1313V25.888C86.1313 26.6027 86.2806 27.1307 86.5793 27.472C86.8886 27.8027 87.3206 27.968 87.8753 27.968C88.2593 27.968 88.6006 27.888 88.8993 27.728C89.1979 27.5573 89.4326 27.3013 89.6033 26.96C89.7739 26.608 89.8593 26.1707 89.8593 25.648V21.392H92.3553V30H89.9873V27.632L90.4193 28.32C90.1313 28.9173 89.7046 29.3707 89.1393 29.68C88.5846 29.9787 87.9766 30.128 87.3153 30.128ZM94.6676 30V21.392H97.0516V23.824L96.7156 23.12C96.9716 22.512 97.3823 22.0533 97.9476 21.744C98.513 21.424 99.201 21.264 100.012 21.264V23.568C99.905 23.5573 99.809 23.552 99.7236 23.552C99.6383 23.5413 99.5476 23.536 99.4516 23.536C98.769 23.536 98.2143 23.7333 97.7876 24.128C97.3716 24.512 97.1636 25.1147 97.1636 25.936V30H94.6676ZM104.454 30.128C103.718 30.128 103.009 30.0427 102.326 29.872C101.654 29.6907 101.121 29.4667 100.726 29.2L101.558 27.408C101.953 27.6533 102.417 27.856 102.95 28.016C103.494 28.1653 104.028 28.24 104.55 28.24C105.126 28.24 105.532 28.1707 105.766 28.032C106.012 27.8933 106.134 27.7013 106.134 27.456C106.134 27.2533 106.038 27.104 105.846 27.008C105.665 26.9013 105.42 26.8213 105.11 26.768C104.801 26.7147 104.46 26.6613 104.086 26.608C103.724 26.5547 103.356 26.4853 102.982 26.4C102.609 26.304 102.268 26.1653 101.958 25.984C101.649 25.8027 101.398 25.5573 101.206 25.248C101.025 24.9387 100.934 24.5387 100.934 24.048C100.934 23.504 101.089 23.024 101.398 22.608C101.718 22.192 102.177 21.8667 102.774 21.632C103.372 21.3867 104.086 21.264 104.918 21.264C105.505 21.264 106.102 21.328 106.71 21.456C107.318 21.584 107.825 21.7707 108.23 22.016L107.398 23.792C106.982 23.5467 106.561 23.3813 106.134 23.296C105.718 23.2 105.313 23.152 104.918 23.152C104.364 23.152 103.958 23.2267 103.702 23.376C103.446 23.5253 103.318 23.7173 103.318 23.952C103.318 24.1653 103.409 24.3253 103.59 24.432C103.782 24.5387 104.033 24.624 104.342 24.688C104.652 24.752 104.988 24.8107 105.35 24.864C105.724 24.9067 106.097 24.976 106.47 25.072C106.844 25.168 107.18 25.3067 107.478 25.488C107.788 25.6587 108.038 25.8987 108.23 26.208C108.422 26.5067 108.518 26.9013 108.518 27.392C108.518 27.9253 108.358 28.4 108.038 28.816C107.718 29.2213 107.254 29.5413 106.646 29.776C106.049 30.0107 105.318 30.128 104.454 30.128ZM115.338 30V28.32L115.178 27.952V24.944C115.178 24.4107 115.013 23.9947 114.682 23.696C114.362 23.3973 113.866 23.248 113.194 23.248C112.736 23.248 112.282 23.3227 111.834 23.472C111.397 23.6107 111.024 23.8027 110.714 24.048L109.818 22.304C110.288 21.9733 110.853 21.7173 111.514 21.536C112.176 21.3547 112.848 21.264 113.53 21.264C114.842 21.264 115.861 21.5733 116.586 22.192C117.312 22.8107 117.674 23.776 117.674 25.088V30H115.338ZM112.714 30.128C112.042 30.128 111.466 30.016 110.986 29.792C110.506 29.5573 110.138 29.2427 109.882 28.848C109.626 28.4533 109.498 28.0107 109.498 27.52C109.498 27.008 109.621 26.56 109.866 26.176C110.122 25.792 110.522 25.4933 111.066 25.28C111.61 25.056 112.32 24.944 113.194 24.944H115.482V26.4H113.466C112.88 26.4 112.474 26.496 112.25 26.688C112.037 26.88 111.93 27.12 111.93 27.408C111.93 27.728 112.053 27.984 112.298 28.176C112.554 28.3573 112.901 28.448 113.338 28.448C113.754 28.448 114.128 28.352 114.458 28.16C114.789 27.9573 115.029 27.664 115.178 27.28L115.562 28.432C115.381 28.9867 115.05 29.408 114.57 29.696C114.09 29.984 113.472 30.128 112.714 30.128ZM123.692 30.128C122.881 30.128 122.15 29.9467 121.5 29.584C120.849 29.2107 120.332 28.6933 119.948 28.032C119.574 27.3707 119.388 26.592 119.388 25.696C119.388 24.7893 119.574 24.0053 119.948 23.344C120.332 22.6827 120.849 22.1707 121.5 21.808C122.15 21.4453 122.881 21.264 123.692 21.264C124.417 21.264 125.052 21.424 125.596 21.744C126.14 22.064 126.561 22.5493 126.86 23.2C127.158 23.8507 127.308 24.6827 127.308 25.696C127.308 26.6987 127.164 27.5307 126.876 28.192C126.588 28.8427 126.172 29.328 125.628 29.648C125.094 29.968 124.449 30.128 123.692 30.128ZM124.124 28.08C124.529 28.08 124.897 27.984 125.228 27.792C125.558 27.6 125.82 27.328 126.012 26.976C126.214 26.6133 126.316 26.1867 126.316 25.696C126.316 25.1947 126.214 24.768 126.012 24.416C125.82 24.064 125.558 23.792 125.228 23.6C124.897 23.408 124.529 23.312 124.124 23.312C123.708 23.312 123.334 23.408 123.004 23.6C122.673 23.792 122.406 24.064 122.204 24.416C122.012 24.768 121.916 25.1947 121.916 25.696C121.916 26.1867 122.012 26.6133 122.204 26.976C122.406 27.328 122.673 27.6 123.004 27.792C123.334 27.984 123.708 28.08 124.124 28.08ZM126.38 30V28.24L126.428 25.68L126.268 23.136V18.128H128.764V30H126.38ZM136.354 30V28.32L136.194 27.952V24.944C136.194 24.4107 136.029 23.9947 135.698 23.696C135.378 23.3973 134.882 23.248 134.21 23.248C133.751 23.248 133.298 23.3227 132.85 23.472C132.413 23.6107 132.039 23.8027 131.73 24.048L130.834 22.304C131.303 21.9733 131.869 21.7173 132.53 21.536C133.191 21.3547 133.863 21.264 134.546 21.264C135.858 21.264 136.877 21.5733 137.602 22.192C138.327 22.8107 138.69 23.776 138.69 25.088V30H136.354ZM133.73 30.128C133.058 30.128 132.482 30.016 132.002 29.792C131.522 29.5573 131.154 29.2427 130.898 28.848C130.642 28.4533 130.514 28.0107 130.514 27.52C130.514 27.008 130.637 26.56 130.882 26.176C131.138 25.792 131.538 25.4933 132.082 25.28C132.626 25.056 133.335 24.944 134.21 24.944H136.498V26.4H134.482C133.895 26.4 133.49 26.496 133.266 26.688C133.053 26.88 132.946 27.12 132.946 27.408C132.946 27.728 133.069 27.984 133.314 28.176C133.57 28.3573 133.917 28.448 134.354 28.448C134.77 28.448 135.143 28.352 135.474 28.16C135.805 27.9573 136.045 27.664 136.194 27.28L136.578 28.432C136.397 28.9867 136.066 29.408 135.586 29.696C135.106 29.984 134.487 30.128 133.73 30.128ZM80.008 35.8H82.6V47H80.008V35.8ZM74.92 47H72.328V35.8H74.92V47ZM80.2 42.408H74.728V40.216H80.2V42.408ZM85.0739 47V38.392H87.5699V47H85.0739ZM84.8659 37.288L87.0259 34.984H89.7139L86.8179 37.288H84.8659ZM94.9744 47.128C94.217 47.128 93.5664 46.968 93.0224 46.648C92.4784 46.328 92.0624 45.8427 91.7744 45.192C91.4864 44.5307 91.3424 43.6987 91.3424 42.696C91.3424 41.6827 91.4917 40.8507 91.7904 40.2C92.0997 39.5493 92.5264 39.064 93.0704 38.744C93.6144 38.424 94.249 38.264 94.9744 38.264C95.785 38.264 96.5104 38.4453 97.1504 38.808C97.801 39.1707 98.313 39.6827 98.6864 40.344C99.0704 41.0053 99.2624 41.7893 99.2624 42.696C99.2624 43.592 99.0704 44.3707 98.6864 45.032C98.313 45.6933 97.801 46.2107 97.1504 46.584C96.5104 46.9467 95.785 47.128 94.9744 47.128ZM89.8864 47V35.128H92.3824V40.136L92.2224 42.68L92.2704 45.24V47H89.8864ZM94.5424 45.08C94.9584 45.08 95.3264 44.984 95.6464 44.792C95.977 44.6 96.2384 44.328 96.4304 43.976C96.633 43.6133 96.7344 43.1867 96.7344 42.696C96.7344 42.1947 96.633 41.768 96.4304 41.416C96.2384 41.064 95.977 40.792 95.6464 40.6C95.3264 40.408 94.9584 40.312 94.5424 40.312C94.1264 40.312 93.753 40.408 93.4224 40.6C93.0917 40.792 92.8304 41.064 92.6384 41.416C92.4464 41.768 92.3504 42.1947 92.3504 42.696C92.3504 43.1867 92.4464 43.6133 92.6384 43.976C92.8304 44.328 93.0917 44.6 93.4224 44.792C93.753 44.984 94.1264 45.08 94.5424 45.08ZM100.933 47V38.392H103.317V40.824L102.981 40.12C103.237 39.512 103.648 39.0533 104.213 38.744C104.779 38.424 105.467 38.264 106.277 38.264V40.568C106.171 40.5573 106.075 40.552 105.989 40.552C105.904 40.5413 105.813 40.536 105.717 40.536C105.035 40.536 104.48 40.7333 104.053 41.128C103.637 41.512 103.429 42.1147 103.429 42.936V47H100.933ZM107.777 47V38.392H110.273V47H107.777ZM109.025 37.192C108.566 37.192 108.193 37.0587 107.905 36.792C107.617 36.5253 107.473 36.1947 107.473 35.8C107.473 35.4053 107.617 35.0747 107.905 34.808C108.193 34.5413 108.566 34.408 109.025 34.408C109.484 34.408 109.857 34.536 110.145 34.792C110.433 35.0373 110.577 35.3573 110.577 35.752C110.577 36.168 110.433 36.5147 110.145 36.792C109.868 37.0587 109.494 37.192 109.025 37.192ZM116.286 47.128C115.475 47.128 114.744 46.9467 114.094 46.584C113.443 46.2107 112.926 45.6933 112.542 45.032C112.168 44.3707 111.982 43.592 111.982 42.696C111.982 41.7893 112.168 41.0053 112.542 40.344C112.926 39.6827 113.443 39.1707 114.094 38.808C114.744 38.4453 115.475 38.264 116.286 38.264C117.011 38.264 117.646 38.424 118.19 38.744C118.734 39.064 119.155 39.5493 119.454 40.2C119.752 40.8507 119.902 41.6827 119.902 42.696C119.902 43.6987 119.758 44.5307 119.47 45.192C119.182 45.8427 118.766 46.328 118.222 46.648C117.688 46.968 117.043 47.128 116.286 47.128ZM116.718 45.08C117.123 45.08 117.491 44.984 117.822 44.792C118.152 44.6 118.414 44.328 118.606 43.976C118.808 43.6133 118.91 43.1867 118.91 42.696C118.91 42.1947 118.808 41.768 118.606 41.416C118.414 41.064 118.152 40.792 117.822 40.6C117.491 40.408 117.123 40.312 116.718 40.312C116.302 40.312 115.928 40.408 115.598 40.6C115.267 40.792 115 41.064 114.798 41.416C114.606 41.768 114.51 42.1947 114.51 42.696C114.51 43.1867 114.606 43.6133 114.798 43.976C115 44.328 115.267 44.6 115.598 44.792C115.928 44.984 116.302 45.08 116.718 45.08ZM118.974 47V45.24L119.022 42.68L118.862 40.136V35.128H121.358V47H118.974ZM128.948 47V45.32L128.788 44.952V41.944C128.788 41.4107 128.622 40.9947 128.292 40.696C127.972 40.3973 127.476 40.248 126.804 40.248C126.345 40.248 125.892 40.3227 125.444 40.472C125.006 40.6107 124.633 40.8027 124.324 41.048L123.428 39.304C123.897 38.9733 124.462 38.7173 125.124 38.536C125.785 38.3547 126.457 38.264 127.14 38.264C128.452 38.264 129.47 38.5733 130.196 39.192C130.921 39.8107 131.284 40.776 131.284 42.088V47H128.948ZM126.324 47.128C125.652 47.128 125.076 47.016 124.596 46.792C124.116 46.5573 123.748 46.2427 123.492 45.848C123.236 45.4533 123.108 45.0107 123.108 44.52C123.108 44.008 123.23 43.56 123.476 43.176C123.732 42.792 124.132 42.4933 124.676 42.28C125.22 42.056 125.929 41.944 126.804 41.944H129.092V43.4H127.076C126.489 43.4 126.084 43.496 125.86 43.688C125.646 43.88 125.54 44.12 125.54 44.408C125.54 44.728 125.662 44.984 125.908 45.176C126.164 45.3573 126.51 45.448 126.948 45.448C127.364 45.448 127.737 45.352 128.068 45.16C128.398 44.9573 128.638 44.664 128.788 44.28L129.172 45.432C128.99 45.9867 128.66 46.408 128.18 46.696C127.7 46.984 127.081 47.128 126.324 47.128Z" fill="#29A9FF"/>
<g filter="url(#filter0_d_426_426)">
<circle cx="32.5" cy="32.5" r="28.5" fill="#29A9FF"/>
</g>
<path d="M24.3333 32.5008H22.311C21.5019 32.5008 21.0976 32.5008 20.7887 32.6521C20.517 32.7854 20.296 32.9975 20.1573 33.2592C20 33.5563 20 33.945 20 34.7229V38.6117C20 39.3896 20 39.7783 20.1573 40.0754C20.296 40.3367 20.517 40.5492 20.7887 40.6825C21.0976 40.8338 21.5019 40.8338 22.311 40.8338H24.3333M41.6667 32.5004H43.689C44.4981 32.5004 44.9024 32.5004 45.2113 32.6517C45.483 32.785 45.704 32.9971 45.8427 33.2588C46 33.5558 46 33.9446 46 34.7225V38.6113C46 39.3892 46 39.7779 45.8427 40.075C45.704 40.3363 45.4835 40.5488 45.2113 40.6821C44.9024 40.8333 44.4981 40.8333 43.689 40.8333H41.6667M37.3333 24.1667C37.3333 21.8654 35.3933 20 33 20C30.6067 20 28.6667 21.8654 28.6667 24.1667M30.111 32.5H35.8886M31.2662 45H34.7329C37.16 45 38.3733 45 39.3002 44.5458C40.1158 44.1462 40.7783 43.5092 41.1939 42.725C41.6662 41.8338 41.6662 40.6671 41.6662 38.3333V30.8333C41.6662 28.4996 41.6662 27.3329 41.1939 26.4417C40.7783 25.6575 40.1158 25.0204 39.3002 24.6208C38.3733 24.1667 37.16 24.1667 34.7329 24.1667H31.2662C28.8391 24.1667 27.6258 24.1667 26.6989 24.6208C25.8834 25.0204 25.2208 25.6579 24.8052 26.4417C24.3329 27.3329 24.3329 28.4996 24.3329 30.8333V38.3333C24.3329 40.6671 24.3329 41.8338 24.8052 42.725C25.2208 43.5092 25.8838 44.1462 26.6989 44.5458C27.6258 45 28.8391 45 31.2662 45Z" stroke="#1D1B22" stroke-width="3" stroke-linecap="round" stroke-linejoin="round"/>
<defs>
<filter id="filter0_d_426_426" x="0" y="0" width="77" height="77" filterUnits="userSpaceOnUse" color-interpolation-filters="sRGB">
<feFlood flood-opacity="0" result="BackgroundImageFix"/>
<feColorMatrix in="SourceAlpha" type="matrix" values="0 0 0 0 0 0 0 0 0 0 0 0 0 0 0 0 0 0 127 0" result="hardAlpha"/>
<feOffset dx="6" dy="6"/>
<feGaussianBlur stdDeviation="5"/>
<feComposite in2="hardAlpha" operator="out"/>
<feColorMatrix type="matrix" values="0 0 0 0 0 0 0 0 0 0 0 0 0 0 0 0 0 0 0.65 0"/>
<feBlend mode="normal" in2="BackgroundImageFix" result="effect1_dropShadow_426_426"/>
<feBlend mode="normal" in="SourceGraphic" in2="effect1_dropShadow_426_426" result="shape"/>
</filter>
</defs>
</svg>
