<svg width="145" height="77" viewBox="0 0 145 77" fill="none" xmlns="http://www.w3.org/2000/svg">
<path d="M77.688 30.192C76.824 30.192 76.0187 30.0533 75.272 29.776C74.536 29.488 73.896 29.0827 73.352 28.56C72.808 28.0373 72.3813 27.424 72.072 26.72C71.7733 26.016 71.624 25.2427 71.624 24.4C71.624 23.5573 71.7733 22.784 72.072 22.08C72.3813 21.376 72.808 20.7627 73.352 20.24C73.9067 19.7173 74.552 19.3173 75.288 19.04C76.024 18.752 76.8293 18.608 77.704 18.608C78.6747 18.608 79.5493 18.7787 80.328 19.12C81.1173 19.4507 81.7787 19.9413 82.312 20.592L80.648 22.128C80.264 21.6907 79.8373 21.3653 79.368 21.152C78.8987 20.928 78.3867 20.816 77.832 20.816C77.3093 20.816 76.8293 20.9013 76.392 21.072C75.9547 21.2427 75.576 21.488 75.256 21.808C74.936 22.128 74.6853 22.5067 74.504 22.944C74.3333 23.3813 74.248 23.8667 74.248 24.4C74.248 24.9333 74.3333 25.4187 74.504 25.856C74.6853 26.2933 74.936 26.672 75.256 26.992C75.576 27.312 75.9547 27.5573 76.392 27.728C76.8293 27.8987 77.3093 27.984 77.832 27.984C78.3867 27.984 78.8987 27.8773 79.368 27.664C79.8373 27.44 80.264 27.104 80.648 26.656L82.312 28.192C81.7787 28.8427 81.1173 29.3387 80.328 29.68C79.5493 30.0213 78.6693 30.192 77.688 30.192ZM87.3153 30.128C86.6006 30.128 85.9606 29.9893 85.3953 29.712C84.8406 29.4347 84.4086 29.0133 84.0993 28.448C83.7899 27.872 83.6353 27.1413 83.6353 26.256V21.392H86.1313V25.888C86.1313 26.6027 86.2806 27.1307 86.5793 27.472C86.8886 27.8027 87.3206 27.968 87.8753 27.968C88.2593 27.968 88.6006 27.888 88.8993 27.728C89.1979 27.5573 89.4326 27.3013 89.6033 26.96C89.7739 26.608 89.8593 26.1707 89.8593 25.648V21.392H92.3553V30H89.9873V27.632L90.4193 28.32C90.1313 28.9173 89.7046 29.3707 89.1393 29.68C88.5846 29.9787 87.9766 30.128 87.3153 30.128ZM94.6676 30V21.392H97.0516V23.824L96.7156 23.12C96.9716 22.512 97.3823 22.0533 97.9476 21.744C98.513 21.424 99.201 21.264 100.012 21.264V23.568C99.905 23.5573 99.809 23.552 99.7236 23.552C99.6383 23.5413 99.5476 23.536 99.4516 23.536C98.769 23.536 98.2143 23.7333 97.7876 24.128C97.3716 24.512 97.1636 25.1147 97.1636 25.936V30H94.6676ZM104.454 30.128C103.718 30.128 103.009 30.0427 102.326 29.872C101.654 29.6907 101.121 29.4667 100.726 29.2L101.558 27.408C101.953 27.6533 102.417 27.856 102.95 28.016C103.494 28.1653 104.028 28.24 104.55 28.24C105.126 28.24 105.532 28.1707 105.766 28.032C106.012 27.8933 106.134 27.7013 106.134 27.456C106.134 27.2533 106.038 27.104 105.846 27.008C105.665 26.9013 105.42 26.8213 105.11 26.768C104.801 26.7147 104.46 26.6613 104.086 26.608C103.724 26.5547 103.356 26.4853 102.982 26.4C102.609 26.304 102.268 26.1653 101.958 25.984C101.649 25.8027 101.398 25.5573 101.206 25.248C101.025 24.9387 100.934 24.5387 100.934 24.048C100.934 23.504 101.089 23.024 101.398 22.608C101.718 22.192 102.177 21.8667 102.774 21.632C103.372 21.3867 104.086 21.264 104.918 21.264C105.505 21.264 106.102 21.328 106.71 21.456C107.318 21.584 107.825 21.7707 108.23 22.016L107.398 23.792C106.982 23.5467 106.561 23.3813 106.134 23.296C105.718 23.2 105.313 23.152 104.918 23.152C104.364 23.152 103.958 23.2267 103.702 23.376C103.446 23.5253 103.318 23.7173 103.318 23.952C103.318 24.1653 103.409 24.3253 103.59 24.432C103.782 24.5387 104.033 24.624 104.342 24.688C104.652 24.752 104.988 24.8107 105.35 24.864C105.724 24.9067 106.097 24.976 106.47 25.072C106.844 25.168 107.18 25.3067 107.478 25.488C107.788 25.6587 108.038 25.8987 108.23 26.208C108.422 26.5067 108.518 26.9013 108.518 27.392C108.518 27.9253 108.358 28.4 108.038 28.816C107.718 29.2213 107.254 29.5413 106.646 29.776C106.049 30.0107 105.318 30.128 104.454 30.128ZM115.338 30V28.32L115.178 27.952V24.944C115.178 24.4107 115.013 23.9947 114.682 23.696C114.362 23.3973 113.866 23.248 113.194 23.248C112.736 23.248 112.282 23.3227 111.834 23.472C111.397 23.6107 111.024 23.8027 110.714 24.048L109.818 22.304C110.288 21.9733 110.853 21.7173 111.514 21.536C112.176 21.3547 112.848 21.264 113.53 21.264C114.842 21.264 115.861 21.5733 116.586 22.192C117.312 22.8107 117.674 23.776 117.674 25.088V30H115.338ZM112.714 30.128C112.042 30.128 111.466 30.016 110.986 29.792C110.506 29.5573 110.138 29.2427 109.882 28.848C109.626 28.4533 109.498 28.0107 109.498 27.52C109.498 27.008 109.621 26.56 109.866 26.176C110.122 25.792 110.522 25.4933 111.066 25.28C111.61 25.056 112.32 24.944 113.194 24.944H115.482V26.4H113.466C112.88 26.4 112.474 26.496 112.25 26.688C112.037 26.88 111.93 27.12 111.93 27.408C111.93 27.728 112.053 27.984 112.298 28.176C112.554 28.3573 112.901 28.448 113.338 28.448C113.754 28.448 114.128 28.352 114.458 28.16C114.789 27.9573 115.029 27.664 115.178 27.28L115.562 28.432C115.381 28.9867 115.05 29.408 114.57 29.696C114.09 29.984 113.472 30.128 112.714 30.128ZM123.692 30.128C122.881 30.128 122.15 29.9467 121.5 29.584C120.849 29.2107 120.332 28.6933 119.948 28.032C119.574 27.3707 119.388 26.592 119.388 25.696C119.388 24.7893 119.574 24.0053 119.948 23.344C120.332 22.6827 120.849 22.1707 121.5 21.808C122.15 21.4453 122.881 21.264 123.692 21.264C124.417 21.264 125.052 21.424 125.596 21.744C126.14 22.064 126.561 22.5493 126.86 23.2C127.158 23.8507 127.308 24.6827 127.308 25.696C127.308 26.6987 127.164 27.5307 126.876 28.192C126.588 28.8427 126.172 29.328 125.628 29.648C125.094 29.968 124.449 30.128 123.692 30.128ZM124.124 28.08C124.529 28.08 124.897 27.984 125.228 27.792C125.558 27.6 125.82 27.328 126.012 26.976C126.214 26.6133 126.316 26.1867 126.316 25.696C126.316 25.1947 126.214 24.768 126.012 24.416C125.82 24.064 125.558 23.792 125.228 23.6C124.897 23.408 124.529 23.312 124.124 23.312C123.708 23.312 123.334 23.408 123.004 23.6C122.673 23.792 122.406 24.064 122.204 24.416C122.012 24.768 121.916 25.1947 121.916 25.696C121.916 26.1867 122.012 26.6133 122.204 26.976C122.406 27.328 122.673 27.6 123.004 27.792C123.334 27.984 123.708 28.08 124.124 28.08ZM126.38 30V28.24L126.428 25.68L126.268 23.136V18.128H128.764V30H126.38ZM136.354 30V28.32L136.194 27.952V24.944C136.194 24.4107 136.029 23.9947 135.698 23.696C135.378 23.3973 134.882 23.248 134.21 23.248C133.751 23.248 133.298 23.3227 132.85 23.472C132.413 23.6107 132.039 23.8027 131.73 24.048L130.834 22.304C131.303 21.9733 131.869 21.7173 132.53 21.536C133.191 21.3547 133.863 21.264 134.546 21.264C135.858 21.264 136.877 21.5733 137.602 22.192C138.327 22.8107 138.69 23.776 138.69 25.088V30H136.354ZM133.73 30.128C133.058 30.128 132.482 30.016 132.002 29.792C131.522 29.5573 131.154 29.2427 130.898 28.848C130.642 28.4533 130.514 28.0107 130.514 27.52C130.514 27.008 130.637 26.56 130.882 26.176C131.138 25.792 131.538 25.4933 132.082 25.28C132.626 25.056 133.335 24.944 134.21 24.944H136.498V26.4H134.482C133.895 26.4 133.49 26.496 133.266 26.688C133.053 26.88 132.946 27.12 132.946 27.408C132.946 27.728 133.069 27.984 133.314 28.176C133.57 28.3573 133.917 28.448 134.354 28.448C134.77 28.448 135.143 28.352 135.474 28.16C135.805 27.9573 136.045 27.664 136.194 27.28L136.578 28.432C136.397 28.9867 136.066 29.408 135.586 29.696C135.106 29.984 134.487 30.128 133.73 30.128ZM72.328 47V35.8H77.176C78.1787 35.8 79.0427 35.9653 79.768 36.296C80.4933 36.616 81.0533 37.08 81.448 37.688C81.8427 38.296 82.04 39.0213 82.04 39.864C82.04 40.696 81.8427 41.416 81.448 42.024C81.0533 42.6213 80.4933 43.08 79.768 43.4C79.0427 43.72 78.1787 43.88 77.176 43.88H73.768L74.92 42.744V47H72.328ZM79.448 47L76.648 42.936H79.416L82.248 47H79.448ZM74.92 43.032L73.768 41.816H77.032C77.832 41.816 78.4293 41.6453 78.824 41.304C79.2187 40.952 79.416 40.472 79.416 39.864C79.416 39.2453 79.2187 38.7653 78.824 38.424C78.4293 38.0827 77.832 37.912 77.032 37.912H73.768L74.92 36.68V43.032ZM88.1896 47.128C87.2083 47.128 86.3443 46.936 85.5976 46.552C84.8616 46.168 84.291 45.6453 83.8856 44.984C83.4803 44.312 83.2776 43.5493 83.2776 42.696C83.2776 41.832 83.475 41.0693 83.8696 40.408C84.275 39.736 84.8243 39.2133 85.5176 38.84C86.211 38.456 86.995 38.264 87.8696 38.264C88.7123 38.264 89.4696 38.4453 90.1416 38.808C90.8243 39.16 91.363 39.672 91.7576 40.344C92.1523 41.0053 92.3496 41.8 92.3496 42.728C92.3496 42.824 92.3443 42.936 92.3336 43.064C92.323 43.1813 92.3123 43.2933 92.3016 43.4H85.3096V41.944H90.9896L90.0296 42.376C90.0296 41.928 89.939 41.5387 89.7576 41.208C89.5763 40.8773 89.3256 40.6213 89.0056 40.44C88.6856 40.248 88.3123 40.152 87.8856 40.152C87.459 40.152 87.0803 40.248 86.7496 40.44C86.4296 40.6213 86.179 40.8827 85.9976 41.224C85.8163 41.5547 85.7256 41.9493 85.7256 42.408V42.792C85.7256 43.2613 85.827 43.6773 86.0296 44.04C86.243 44.392 86.5363 44.664 86.9096 44.856C87.2936 45.0373 87.7416 45.128 88.2536 45.128C88.7123 45.128 89.1123 45.0587 89.4536 44.92C89.8056 44.7813 90.1256 44.5733 90.4136 44.296L91.7416 45.736C91.347 46.184 90.851 46.5307 90.2536 46.776C89.6563 47.0107 88.9683 47.128 88.1896 47.128ZM105.035 38.264C105.718 38.264 106.321 38.4027 106.843 38.68C107.377 38.9467 107.793 39.3627 108.091 39.928C108.401 40.4827 108.555 41.1973 108.555 42.072V47H106.059V42.456C106.059 41.7627 105.915 41.2507 105.627 40.92C105.339 40.5893 104.934 40.424 104.411 40.424C104.049 40.424 103.723 40.5093 103.435 40.68C103.147 40.84 102.923 41.0853 102.763 41.416C102.603 41.7467 102.523 42.168 102.523 42.68V47H100.027V42.456C100.027 41.7627 99.8834 41.2507 99.5954 40.92C99.318 40.5893 98.918 40.424 98.3954 40.424C98.0327 40.424 97.7074 40.5093 97.4194 40.68C97.1314 40.84 96.9074 41.0853 96.7474 41.416C96.5874 41.7467 96.5074 42.168 96.5074 42.68V47H94.0114V38.392H96.3954V40.744L95.9474 40.056C96.246 39.4693 96.6674 39.0267 97.2114 38.728C97.766 38.4187 98.3954 38.264 99.0994 38.264C99.8887 38.264 100.577 38.4667 101.163 38.872C101.761 39.2667 102.155 39.8747 102.347 40.696L101.467 40.456C101.755 39.784 102.214 39.2507 102.843 38.856C103.483 38.4613 104.214 38.264 105.035 38.264ZM114.951 47.128C114.034 47.128 113.218 46.936 112.503 46.552C111.799 46.168 111.239 45.6453 110.823 44.984C110.418 44.312 110.215 43.5493 110.215 42.696C110.215 41.832 110.418 41.0693 110.823 40.408C111.239 39.736 111.799 39.2133 112.503 38.84C113.218 38.456 114.034 38.264 114.951 38.264C115.858 38.264 116.668 38.456 117.383 38.84C118.098 39.2133 118.658 39.7307 119.063 40.392C119.468 41.0533 119.671 41.8213 119.671 42.696C119.671 43.5493 119.468 44.312 119.063 44.984C118.658 45.6453 118.098 46.168 117.383 46.552C116.668 46.936 115.858 47.128 114.951 47.128ZM114.951 45.08C115.367 45.08 115.74 44.984 116.071 44.792C116.402 44.6 116.663 44.328 116.855 43.976C117.047 43.6133 117.143 43.1867 117.143 42.696C117.143 42.1947 117.047 41.768 116.855 41.416C116.663 41.064 116.402 40.792 116.071 40.6C115.74 40.408 115.367 40.312 114.951 40.312C114.535 40.312 114.162 40.408 113.831 40.6C113.5 40.792 113.234 41.064 113.031 41.416C112.839 41.768 112.743 42.1947 112.743 42.696C112.743 43.1867 112.839 43.6133 113.031 43.976C113.234 44.328 113.5 44.6 113.831 44.792C114.162 44.984 114.535 45.08 114.951 45.08ZM124.86 47.128C123.846 47.128 123.057 46.872 122.492 46.36C121.926 45.8373 121.644 45.064 121.644 44.04V36.488H124.14V44.008C124.14 44.3707 124.236 44.6533 124.428 44.856C124.62 45.048 124.881 45.144 125.212 45.144C125.606 45.144 125.942 45.0373 126.22 44.824L126.892 46.584C126.636 46.7653 126.326 46.904 125.964 47C125.612 47.0853 125.244 47.128 124.86 47.128ZM120.316 40.504V38.584H126.284V40.504H120.316ZM133.573 47V45.32L133.413 44.952V41.944C133.413 41.4107 133.247 40.9947 132.917 40.696C132.597 40.3973 132.101 40.248 131.429 40.248C130.97 40.248 130.517 40.3227 130.069 40.472C129.631 40.6107 129.258 40.8027 128.949 41.048L128.053 39.304C128.522 38.9733 129.087 38.7173 129.749 38.536C130.41 38.3547 131.082 38.264 131.765 38.264C133.077 38.264 134.095 38.5733 134.821 39.192C135.546 39.8107 135.909 40.776 135.909 42.088V47H133.573ZM130.949 47.128C130.277 47.128 129.701 47.016 129.221 46.792C128.741 46.5573 128.373 46.2427 128.117 45.848C127.861 45.4533 127.733 45.0107 127.733 44.52C127.733 44.008 127.855 43.56 128.101 43.176C128.357 42.792 128.757 42.4933 129.301 42.28C129.845 42.056 130.554 41.944 131.429 41.944H133.717V43.4H131.701C131.114 43.4 130.709 43.496 130.485 43.688C130.271 43.88 130.165 44.12 130.165 44.408C130.165 44.728 130.287 44.984 130.533 45.176C130.789 45.3573 131.135 45.448 131.573 45.448C131.989 45.448 132.362 45.352 132.693 45.16C133.023 44.9573 133.263 44.664 133.413 44.28L133.797 45.432C133.615 45.9867 133.285 46.408 132.805 46.696C132.325 46.984 131.706 47.128 130.949 47.128Z" fill="#29A9FF"/>
<g filter="url(#filter0_d_426_427)">
<circle cx="32.5" cy="32.5" r="28.5" fill="#29A9FF"/>
</g>
<path d="M41.6663 39.4446V42.7779C41.6663 43.5558 41.6663 43.9446 41.509 44.2417C41.3703 44.5029 41.1498 44.7154 40.8777 44.8488C40.5687 45 40.1644 45 39.3554 45H26.6446C25.8356 45 25.4313 45 25.1223 44.8488C24.8507 44.7154 24.6297 44.5033 24.491 44.2417C24.3337 43.9446 24.3337 43.5558 24.3337 42.7779V39.4446M33.0002 29.7225H33.0145M38.7778 29.7225C38.7778 32.7908 36.1908 35.2779 33.0002 35.2779C29.8096 35.2779 27.2227 32.7904 27.2227 29.7225C27.2227 26.6546 29.8096 24.1671 33.0002 24.1671C36.1908 24.1671 38.7778 26.6546 38.7778 29.7225ZM33.7221 29.7225C33.7221 30.1058 33.3989 30.4171 32.9998 30.4171C32.6007 30.4171 32.2774 30.1063 32.2774 29.7225C32.2774 29.3388 32.6007 29.0279 32.9998 29.0279C33.3989 29.0279 33.7221 29.3388 33.7221 29.7225ZM24.6223 39.4446H41.3777C42.9957 39.4446 43.8048 39.4446 44.4227 39.1417C44.9661 38.8754 45.4081 38.4504 45.685 37.9279C46 37.3338 46 36.5558 46 35V24.4446C46 22.8888 46 22.1108 45.685 21.5167C45.4081 20.9942 44.9661 20.5692 44.4227 20.3029C43.8048 20 42.9957 20 41.3777 20H24.6223C23.0042 20 22.1952 20 21.5773 20.3029C21.0339 20.5692 20.5919 20.9942 20.315 21.5167C20 22.1108 20 22.8888 20 24.4446V35C20 36.5558 20 37.3338 20.315 37.9279C20.5919 38.4504 21.0339 38.8754 21.5773 39.1417C22.1952 39.4446 23.0042 39.4446 24.6223 39.4446Z" stroke="#1D1B22" stroke-width="3" stroke-linecap="round" stroke-linejoin="round"/>
<defs>
<filter id="filter0_d_426_427" x="0" y="0" width="77" height="77" filterUnits="userSpaceOnUse" color-interpolation-filters="sRGB">
<feFlood flood-opacity="0" result="BackgroundImageFix"/>
<feColorMatrix in="SourceAlpha" type="matrix" values="0 0 0 0 0 0 0 0 0 0 0 0 0 0 0 0 0 0 127 0" result="hardAlpha"/>
<feOffset dx="6" dy="6"/>
<feGaussianBlur stdDeviation="5"/>
<feComposite in2="hardAlpha" operator="out"/>
<feColorMatrix type="matrix" values="0 0 0 0 0 0 0 0 0 0 0 0 0 0 0 0 0 0 0.65 0"/>
<feBlend mode="normal" in2="BackgroundImageFix" result="effect1_dropShadow_426_427"/>
<feBlend mode="normal" in="SourceGraphic" in2="effect1_dropShadow_426_427" result="shape"/>
</filter>
</defs>
</svg>
