<svg width="145" height="215" viewBox="0 0 145 215" fill="none" xmlns="http://www.w3.org/2000/svg">
<path d="M77.688 168.192C76.824 168.192 76.0187 168.053 75.272 167.776C74.536 167.488 73.896 167.083 73.352 166.56C72.808 166.037 72.3813 165.424 72.072 164.72C71.7733 164.016 71.624 163.243 71.624 162.4C71.624 161.557 71.7733 160.784 72.072 160.08C72.3813 159.376 72.808 158.763 73.352 158.24C73.9067 157.717 74.552 157.317 75.288 157.04C76.024 156.752 76.8293 156.608 77.704 156.608C78.6747 156.608 79.5493 156.779 80.328 157.12C81.1173 157.451 81.7787 157.941 82.312 158.592L80.648 160.128C80.264 159.691 79.8373 159.365 79.368 159.152C78.8987 158.928 78.3867 158.816 77.832 158.816C77.3093 158.816 76.8293 158.901 76.392 159.072C75.9547 159.243 75.576 159.488 75.256 159.808C74.936 160.128 74.6853 160.507 74.504 160.944C74.3333 161.381 74.248 161.867 74.248 162.4C74.248 162.933 74.3333 163.419 74.504 163.856C74.6853 164.293 74.936 164.672 75.256 164.992C75.576 165.312 75.9547 165.557 76.392 165.728C76.8293 165.899 77.3093 165.984 77.832 165.984C78.3867 165.984 78.8987 165.877 79.368 165.664C79.8373 165.44 80.264 165.104 80.648 164.656L82.312 166.192C81.7787 166.843 81.1173 167.339 80.328 167.68C79.5493 168.021 78.6693 168.192 77.688 168.192ZM87.3153 168.128C86.6006 168.128 85.9606 167.989 85.3953 167.712C84.8406 167.435 84.4086 167.013 84.0993 166.448C83.7899 165.872 83.6353 165.141 83.6353 164.256V159.392H86.1313V163.888C86.1313 164.603 86.2806 165.131 86.5793 165.472C86.8886 165.803 87.3206 165.968 87.8753 165.968C88.2593 165.968 88.6006 165.888 88.8993 165.728C89.1979 165.557 89.4326 165.301 89.6033 164.96C89.7739 164.608 89.8593 164.171 89.8593 163.648V159.392H92.3553V168H89.9873V165.632L90.4193 166.32C90.1313 166.917 89.7046 167.371 89.1393 167.68C88.5846 167.979 87.9766 168.128 87.3153 168.128ZM94.6676 168V159.392H97.0516V161.824L96.7156 161.12C96.9716 160.512 97.3823 160.053 97.9476 159.744C98.513 159.424 99.201 159.264 100.012 159.264V161.568C99.905 161.557 99.809 161.552 99.7236 161.552C99.6383 161.541 99.5476 161.536 99.4516 161.536C98.769 161.536 98.2143 161.733 97.7876 162.128C97.3716 162.512 97.1636 163.115 97.1636 163.936V168H94.6676ZM104.454 168.128C103.718 168.128 103.009 168.043 102.326 167.872C101.654 167.691 101.121 167.467 100.726 167.2L101.558 165.408C101.953 165.653 102.417 165.856 102.95 166.016C103.494 166.165 104.028 166.24 104.55 166.24C105.126 166.24 105.532 166.171 105.766 166.032C106.012 165.893 106.134 165.701 106.134 165.456C106.134 165.253 106.038 165.104 105.846 165.008C105.665 164.901 105.42 164.821 105.11 164.768C104.801 164.715 104.46 164.661 104.086 164.608C103.724 164.555 103.356 164.485 102.982 164.4C102.609 164.304 102.268 164.165 101.958 163.984C101.649 163.803 101.398 163.557 101.206 163.248C101.025 162.939 100.934 162.539 100.934 162.048C100.934 161.504 101.089 161.024 101.398 160.608C101.718 160.192 102.177 159.867 102.774 159.632C103.372 159.387 104.086 159.264 104.918 159.264C105.505 159.264 106.102 159.328 106.71 159.456C107.318 159.584 107.825 159.771 108.23 160.016L107.398 161.792C106.982 161.547 106.561 161.381 106.134 161.296C105.718 161.2 105.313 161.152 104.918 161.152C104.364 161.152 103.958 161.227 103.702 161.376C103.446 161.525 103.318 161.717 103.318 161.952C103.318 162.165 103.409 162.325 103.59 162.432C103.782 162.539 104.033 162.624 104.342 162.688C104.652 162.752 104.988 162.811 105.35 162.864C105.724 162.907 106.097 162.976 106.47 163.072C106.844 163.168 107.18 163.307 107.478 163.488C107.788 163.659 108.038 163.899 108.23 164.208C108.422 164.507 108.518 164.901 108.518 165.392C108.518 165.925 108.358 166.4 108.038 166.816C107.718 167.221 107.254 167.541 106.646 167.776C106.049 168.011 105.318 168.128 104.454 168.128ZM115.338 168V166.32L115.178 165.952V162.944C115.178 162.411 115.013 161.995 114.682 161.696C114.362 161.397 113.866 161.248 113.194 161.248C112.736 161.248 112.282 161.323 111.834 161.472C111.397 161.611 111.024 161.803 110.714 162.048L109.818 160.304C110.288 159.973 110.853 159.717 111.514 159.536C112.176 159.355 112.848 159.264 113.53 159.264C114.842 159.264 115.861 159.573 116.586 160.192C117.312 160.811 117.674 161.776 117.674 163.088V168H115.338ZM112.714 168.128C112.042 168.128 111.466 168.016 110.986 167.792C110.506 167.557 110.138 167.243 109.882 166.848C109.626 166.453 109.498 166.011 109.498 165.52C109.498 165.008 109.621 164.56 109.866 164.176C110.122 163.792 110.522 163.493 111.066 163.28C111.61 163.056 112.32 162.944 113.194 162.944H115.482V164.4H113.466C112.88 164.4 112.474 164.496 112.25 164.688C112.037 164.88 111.93 165.12 111.93 165.408C111.93 165.728 112.053 165.984 112.298 166.176C112.554 166.357 112.901 166.448 113.338 166.448C113.754 166.448 114.128 166.352 114.458 166.16C114.789 165.957 115.029 165.664 115.178 165.28L115.562 166.432C115.381 166.987 115.05 167.408 114.57 167.696C114.09 167.984 113.472 168.128 112.714 168.128ZM123.692 168.128C122.881 168.128 122.15 167.947 121.5 167.584C120.849 167.211 120.332 166.693 119.948 166.032C119.574 165.371 119.388 164.592 119.388 163.696C119.388 162.789 119.574 162.005 119.948 161.344C120.332 160.683 120.849 160.171 121.5 159.808C122.15 159.445 122.881 159.264 123.692 159.264C124.417 159.264 125.052 159.424 125.596 159.744C126.14 160.064 126.561 160.549 126.86 161.2C127.158 161.851 127.308 162.683 127.308 163.696C127.308 164.699 127.164 165.531 126.876 166.192C126.588 166.843 126.172 167.328 125.628 167.648C125.094 167.968 124.449 168.128 123.692 168.128ZM124.124 166.08C124.529 166.08 124.897 165.984 125.228 165.792C125.558 165.6 125.82 165.328 126.012 164.976C126.214 164.613 126.316 164.187 126.316 163.696C126.316 163.195 126.214 162.768 126.012 162.416C125.82 162.064 125.558 161.792 125.228 161.6C124.897 161.408 124.529 161.312 124.124 161.312C123.708 161.312 123.334 161.408 123.004 161.6C122.673 161.792 122.406 162.064 122.204 162.416C122.012 162.768 121.916 163.195 121.916 163.696C121.916 164.187 122.012 164.613 122.204 164.976C122.406 165.328 122.673 165.6 123.004 165.792C123.334 165.984 123.708 166.08 124.124 166.08ZM126.38 168V166.24L126.428 163.68L126.268 161.136V156.128H128.764V168H126.38ZM136.354 168V166.32L136.194 165.952V162.944C136.194 162.411 136.029 161.995 135.698 161.696C135.378 161.397 134.882 161.248 134.21 161.248C133.751 161.248 133.298 161.323 132.85 161.472C132.413 161.611 132.039 161.803 131.73 162.048L130.834 160.304C131.303 159.973 131.869 159.717 132.53 159.536C133.191 159.355 133.863 159.264 134.546 159.264C135.858 159.264 136.877 159.573 137.602 160.192C138.327 160.811 138.69 161.776 138.69 163.088V168H136.354ZM133.73 168.128C133.058 168.128 132.482 168.016 132.002 167.792C131.522 167.557 131.154 167.243 130.898 166.848C130.642 166.453 130.514 166.011 130.514 165.52C130.514 165.008 130.637 164.56 130.882 164.176C131.138 163.792 131.538 163.493 132.082 163.28C132.626 163.056 133.335 162.944 134.21 162.944H136.498V164.4H134.482C133.895 164.4 133.49 164.496 133.266 164.688C133.053 164.88 132.946 165.12 132.946 165.408C132.946 165.728 133.069 165.984 133.314 166.176C133.57 166.357 133.917 166.448 134.354 166.448C134.77 166.448 135.143 166.352 135.474 166.16C135.805 165.957 136.045 165.664 136.194 165.28L136.578 166.432C136.397 166.987 136.066 167.408 135.586 167.696C135.106 167.984 134.487 168.128 133.73 168.128ZM80.008 173.8H82.6V185H80.008V173.8ZM74.92 185H72.328V173.8H74.92V185ZM80.2 180.408H74.728V178.216H80.2V180.408ZM85.0739 185V176.392H87.5699V185H85.0739ZM84.8659 175.288L87.0259 172.984H89.7139L86.8179 175.288H84.8659ZM94.9744 185.128C94.217 185.128 93.5664 184.968 93.0224 184.648C92.4784 184.328 92.0624 183.843 91.7744 183.192C91.4864 182.531 91.3424 181.699 91.3424 180.696C91.3424 179.683 91.4917 178.851 91.7904 178.2C92.0997 177.549 92.5264 177.064 93.0704 176.744C93.6144 176.424 94.249 176.264 94.9744 176.264C95.785 176.264 96.5104 176.445 97.1504 176.808C97.801 177.171 98.313 177.683 98.6864 178.344C99.0704 179.005 99.2624 179.789 99.2624 180.696C99.2624 181.592 99.0704 182.371 98.6864 183.032C98.313 183.693 97.801 184.211 97.1504 184.584C96.5104 184.947 95.785 185.128 94.9744 185.128ZM89.8864 185V173.128H92.3824V178.136L92.2224 180.68L92.2704 183.24V185H89.8864ZM94.5424 183.08C94.9584 183.08 95.3264 182.984 95.6464 182.792C95.977 182.6 96.2384 182.328 96.4304 181.976C96.633 181.613 96.7344 181.187 96.7344 180.696C96.7344 180.195 96.633 179.768 96.4304 179.416C96.2384 179.064 95.977 178.792 95.6464 178.6C95.3264 178.408 94.9584 178.312 94.5424 178.312C94.1264 178.312 93.753 178.408 93.4224 178.6C93.0917 178.792 92.8304 179.064 92.6384 179.416C92.4464 179.768 92.3504 180.195 92.3504 180.696C92.3504 181.187 92.4464 181.613 92.6384 181.976C92.8304 182.328 93.0917 182.6 93.4224 182.792C93.753 182.984 94.1264 183.08 94.5424 183.08ZM100.933 185V176.392H103.317V178.824L102.981 178.12C103.237 177.512 103.648 177.053 104.213 176.744C104.779 176.424 105.467 176.264 106.277 176.264V178.568C106.171 178.557 106.075 178.552 105.989 178.552C105.904 178.541 105.813 178.536 105.717 178.536C105.035 178.536 104.48 178.733 104.053 179.128C103.637 179.512 103.429 180.115 103.429 180.936V185H100.933ZM107.777 185V176.392H110.273V185H107.777ZM109.025 175.192C108.566 175.192 108.193 175.059 107.905 174.792C107.617 174.525 107.473 174.195 107.473 173.8C107.473 173.405 107.617 173.075 107.905 172.808C108.193 172.541 108.566 172.408 109.025 172.408C109.484 172.408 109.857 172.536 110.145 172.792C110.433 173.037 110.577 173.357 110.577 173.752C110.577 174.168 110.433 174.515 110.145 174.792C109.868 175.059 109.494 175.192 109.025 175.192ZM116.286 185.128C115.475 185.128 114.744 184.947 114.094 184.584C113.443 184.211 112.926 183.693 112.542 183.032C112.168 182.371 111.982 181.592 111.982 180.696C111.982 179.789 112.168 179.005 112.542 178.344C112.926 177.683 113.443 177.171 114.094 176.808C114.744 176.445 115.475 176.264 116.286 176.264C117.011 176.264 117.646 176.424 118.19 176.744C118.734 177.064 119.155 177.549 119.454 178.2C119.752 178.851 119.902 179.683 119.902 180.696C119.902 181.699 119.758 182.531 119.47 183.192C119.182 183.843 118.766 184.328 118.222 184.648C117.688 184.968 117.043 185.128 116.286 185.128ZM116.718 183.08C117.123 183.08 117.491 182.984 117.822 182.792C118.152 182.6 118.414 182.328 118.606 181.976C118.808 181.613 118.91 181.187 118.91 180.696C118.91 180.195 118.808 179.768 118.606 179.416C118.414 179.064 118.152 178.792 117.822 178.6C117.491 178.408 117.123 178.312 116.718 178.312C116.302 178.312 115.928 178.408 115.598 178.6C115.267 178.792 115 179.064 114.798 179.416C114.606 179.768 114.51 180.195 114.51 180.696C114.51 181.187 114.606 181.613 114.798 181.976C115 182.328 115.267 182.6 115.598 182.792C115.928 182.984 116.302 183.08 116.718 183.08ZM118.974 185V183.24L119.022 180.68L118.862 178.136V173.128H121.358V185H118.974ZM128.948 185V183.32L128.788 182.952V179.944C128.788 179.411 128.622 178.995 128.292 178.696C127.972 178.397 127.476 178.248 126.804 178.248C126.345 178.248 125.892 178.323 125.444 178.472C125.006 178.611 124.633 178.803 124.324 179.048L123.428 177.304C123.897 176.973 124.462 176.717 125.124 176.536C125.785 176.355 126.457 176.264 127.14 176.264C128.452 176.264 129.47 176.573 130.196 177.192C130.921 177.811 131.284 178.776 131.284 180.088V185H128.948ZM126.324 185.128C125.652 185.128 125.076 185.016 124.596 184.792C124.116 184.557 123.748 184.243 123.492 183.848C123.236 183.453 123.108 183.011 123.108 182.52C123.108 182.008 123.23 181.56 123.476 181.176C123.732 180.792 124.132 180.493 124.676 180.28C125.22 180.056 125.929 179.944 126.804 179.944H129.092V181.4H127.076C126.489 181.4 126.084 181.496 125.86 181.688C125.646 181.88 125.54 182.12 125.54 182.408C125.54 182.728 125.662 182.984 125.908 183.176C126.164 183.357 126.51 183.448 126.948 183.448C127.364 183.448 127.737 183.352 128.068 183.16C128.398 182.957 128.638 182.664 128.788 182.28L129.172 183.432C128.99 183.987 128.66 184.408 128.18 184.696C127.7 184.984 127.081 185.128 126.324 185.128Z" fill="#29A9FF"/>
<path d="M77.688 99.192C76.824 99.192 76.0187 99.0533 75.272 98.776C74.536 98.488 73.896 98.0827 73.352 97.56C72.808 97.0373 72.3813 96.424 72.072 95.72C71.7733 95.016 71.624 94.2427 71.624 93.4C71.624 92.5573 71.7733 91.784 72.072 91.08C72.3813 90.376 72.808 89.7627 73.352 89.24C73.9067 88.7173 74.552 88.3173 75.288 88.04C76.024 87.752 76.8293 87.608 77.704 87.608C78.6747 87.608 79.5493 87.7787 80.328 88.12C81.1173 88.4507 81.7787 88.9413 82.312 89.592L80.648 91.128C80.264 90.6907 79.8373 90.3653 79.368 90.152C78.8987 89.928 78.3867 89.816 77.832 89.816C77.3093 89.816 76.8293 89.9013 76.392 90.072C75.9547 90.2427 75.576 90.488 75.256 90.808C74.936 91.128 74.6853 91.5067 74.504 91.944C74.3333 92.3813 74.248 92.8667 74.248 93.4C74.248 93.9333 74.3333 94.4187 74.504 94.856C74.6853 95.2933 74.936 95.672 75.256 95.992C75.576 96.312 75.9547 96.5573 76.392 96.728C76.8293 96.8987 77.3093 96.984 77.832 96.984C78.3867 96.984 78.8987 96.8773 79.368 96.664C79.8373 96.44 80.264 96.104 80.648 95.656L82.312 97.192C81.7787 97.8427 81.1173 98.3387 80.328 98.68C79.5493 99.0213 78.6693 99.192 77.688 99.192ZM87.3153 99.128C86.6006 99.128 85.9606 98.9893 85.3953 98.712C84.8406 98.4347 84.4086 98.0133 84.0993 97.448C83.7899 96.872 83.6353 96.1413 83.6353 95.256V90.392H86.1313V94.888C86.1313 95.6027 86.2806 96.1307 86.5793 96.472C86.8886 96.8027 87.3206 96.968 87.8753 96.968C88.2593 96.968 88.6006 96.888 88.8993 96.728C89.1979 96.5573 89.4326 96.3013 89.6033 95.96C89.7739 95.608 89.8593 95.1707 89.8593 94.648V90.392H92.3553V99H89.9873V96.632L90.4193 97.32C90.1313 97.9173 89.7046 98.3707 89.1393 98.68C88.5846 98.9787 87.9766 99.128 87.3153 99.128ZM94.6676 99V90.392H97.0516V92.824L96.7156 92.12C96.9716 91.512 97.3823 91.0533 97.9476 90.744C98.513 90.424 99.201 90.264 100.012 90.264V92.568C99.905 92.5573 99.809 92.552 99.7236 92.552C99.6383 92.5413 99.5476 92.536 99.4516 92.536C98.769 92.536 98.2143 92.7333 97.7876 93.128C97.3716 93.512 97.1636 94.1147 97.1636 94.936V99H94.6676ZM104.454 99.128C103.718 99.128 103.009 99.0427 102.326 98.872C101.654 98.6907 101.121 98.4667 100.726 98.2L101.558 96.408C101.953 96.6533 102.417 96.856 102.95 97.016C103.494 97.1653 104.028 97.24 104.55 97.24C105.126 97.24 105.532 97.1707 105.766 97.032C106.012 96.8933 106.134 96.7013 106.134 96.456C106.134 96.2533 106.038 96.104 105.846 96.008C105.665 95.9013 105.42 95.8213 105.11 95.768C104.801 95.7147 104.46 95.6613 104.086 95.608C103.724 95.5547 103.356 95.4853 102.982 95.4C102.609 95.304 102.268 95.1653 101.958 94.984C101.649 94.8027 101.398 94.5573 101.206 94.248C101.025 93.9387 100.934 93.5387 100.934 93.048C100.934 92.504 101.089 92.024 101.398 91.608C101.718 91.192 102.177 90.8667 102.774 90.632C103.372 90.3867 104.086 90.264 104.918 90.264C105.505 90.264 106.102 90.328 106.71 90.456C107.318 90.584 107.825 90.7707 108.23 91.016L107.398 92.792C106.982 92.5467 106.561 92.3813 106.134 92.296C105.718 92.2 105.313 92.152 104.918 92.152C104.364 92.152 103.958 92.2267 103.702 92.376C103.446 92.5253 103.318 92.7173 103.318 92.952C103.318 93.1653 103.409 93.3253 103.59 93.432C103.782 93.5387 104.033 93.624 104.342 93.688C104.652 93.752 104.988 93.8107 105.35 93.864C105.724 93.9067 106.097 93.976 106.47 94.072C106.844 94.168 107.18 94.3067 107.478 94.488C107.788 94.6587 108.038 94.8987 108.23 95.208C108.422 95.5067 108.518 95.9013 108.518 96.392C108.518 96.9253 108.358 97.4 108.038 97.816C107.718 98.2213 107.254 98.5413 106.646 98.776C106.049 99.0107 105.318 99.128 104.454 99.128ZM115.338 99V97.32L115.178 96.952V93.944C115.178 93.4107 115.013 92.9947 114.682 92.696C114.362 92.3973 113.866 92.248 113.194 92.248C112.736 92.248 112.282 92.3227 111.834 92.472C111.397 92.6107 111.024 92.8027 110.714 93.048L109.818 91.304C110.288 90.9733 110.853 90.7173 111.514 90.536C112.176 90.3547 112.848 90.264 113.53 90.264C114.842 90.264 115.861 90.5733 116.586 91.192C117.312 91.8107 117.674 92.776 117.674 94.088V99H115.338ZM112.714 99.128C112.042 99.128 111.466 99.016 110.986 98.792C110.506 98.5573 110.138 98.2427 109.882 97.848C109.626 97.4533 109.498 97.0107 109.498 96.52C109.498 96.008 109.621 95.56 109.866 95.176C110.122 94.792 110.522 94.4933 111.066 94.28C111.61 94.056 112.32 93.944 113.194 93.944H115.482V95.4H113.466C112.88 95.4 112.474 95.496 112.25 95.688C112.037 95.88 111.93 96.12 111.93 96.408C111.93 96.728 112.053 96.984 112.298 97.176C112.554 97.3573 112.901 97.448 113.338 97.448C113.754 97.448 114.128 97.352 114.458 97.16C114.789 96.9573 115.029 96.664 115.178 96.28L115.562 97.432C115.381 97.9867 115.05 98.408 114.57 98.696C114.09 98.984 113.472 99.128 112.714 99.128ZM123.692 99.128C122.881 99.128 122.15 98.9467 121.5 98.584C120.849 98.2107 120.332 97.6933 119.948 97.032C119.574 96.3707 119.388 95.592 119.388 94.696C119.388 93.7893 119.574 93.0053 119.948 92.344C120.332 91.6827 120.849 91.1707 121.5 90.808C122.15 90.4453 122.881 90.264 123.692 90.264C124.417 90.264 125.052 90.424 125.596 90.744C126.14 91.064 126.561 91.5493 126.86 92.2C127.158 92.8507 127.308 93.6827 127.308 94.696C127.308 95.6987 127.164 96.5307 126.876 97.192C126.588 97.8427 126.172 98.328 125.628 98.648C125.094 98.968 124.449 99.128 123.692 99.128ZM124.124 97.08C124.529 97.08 124.897 96.984 125.228 96.792C125.558 96.6 125.82 96.328 126.012 95.976C126.214 95.6133 126.316 95.1867 126.316 94.696C126.316 94.1947 126.214 93.768 126.012 93.416C125.82 93.064 125.558 92.792 125.228 92.6C124.897 92.408 124.529 92.312 124.124 92.312C123.708 92.312 123.334 92.408 123.004 92.6C122.673 92.792 122.406 93.064 122.204 93.416C122.012 93.768 121.916 94.1947 121.916 94.696C121.916 95.1867 122.012 95.6133 122.204 95.976C122.406 96.328 122.673 96.6 123.004 96.792C123.334 96.984 123.708 97.08 124.124 97.08ZM126.38 99V97.24L126.428 94.68L126.268 92.136V87.128H128.764V99H126.38ZM136.354 99V97.32L136.194 96.952V93.944C136.194 93.4107 136.029 92.9947 135.698 92.696C135.378 92.3973 134.882 92.248 134.21 92.248C133.751 92.248 133.298 92.3227 132.85 92.472C132.413 92.6107 132.039 92.8027 131.73 93.048L130.834 91.304C131.303 90.9733 131.869 90.7173 132.53 90.536C133.191 90.3547 133.863 90.264 134.546 90.264C135.858 90.264 136.877 90.5733 137.602 91.192C138.327 91.8107 138.69 92.776 138.69 94.088V99H136.354ZM133.73 99.128C133.058 99.128 132.482 99.016 132.002 98.792C131.522 98.5573 131.154 98.2427 130.898 97.848C130.642 97.4533 130.514 97.0107 130.514 96.52C130.514 96.008 130.637 95.56 130.882 95.176C131.138 94.792 131.538 94.4933 132.082 94.28C132.626 94.056 133.335 93.944 134.21 93.944H136.498V95.4H134.482C133.895 95.4 133.49 95.496 133.266 95.688C133.053 95.88 132.946 96.12 132.946 96.408C132.946 96.728 133.069 96.984 133.314 97.176C133.57 97.3573 133.917 97.448 134.354 97.448C134.77 97.448 135.143 97.352 135.474 97.16C135.805 96.9573 136.045 96.664 136.194 96.28L136.578 97.432C136.397 97.9867 136.066 98.408 135.586 98.696C135.106 98.984 134.487 99.128 133.73 99.128ZM72.328 116V104.8H77.176C78.1787 104.8 79.0427 104.965 79.768 105.296C80.4933 105.616 81.0533 106.08 81.448 106.688C81.8427 107.296 82.04 108.021 82.04 108.864C82.04 109.696 81.8427 110.416 81.448 111.024C81.0533 111.621 80.4933 112.08 79.768 112.4C79.0427 112.72 78.1787 112.88 77.176 112.88H73.768L74.92 111.744V116H72.328ZM79.448 116L76.648 111.936H79.416L82.248 116H79.448ZM74.92 112.032L73.768 110.816H77.032C77.832 110.816 78.4293 110.645 78.824 110.304C79.2187 109.952 79.416 109.472 79.416 108.864C79.416 108.245 79.2187 107.765 78.824 107.424C78.4293 107.083 77.832 106.912 77.032 106.912H73.768L74.92 105.68V112.032ZM88.1896 116.128C87.2083 116.128 86.3443 115.936 85.5976 115.552C84.8616 115.168 84.291 114.645 83.8856 113.984C83.4803 113.312 83.2776 112.549 83.2776 111.696C83.2776 110.832 83.475 110.069 83.8696 109.408C84.275 108.736 84.8243 108.213 85.5176 107.84C86.211 107.456 86.995 107.264 87.8696 107.264C88.7123 107.264 89.4696 107.445 90.1416 107.808C90.8243 108.16 91.363 108.672 91.7576 109.344C92.1523 110.005 92.3496 110.8 92.3496 111.728C92.3496 111.824 92.3443 111.936 92.3336 112.064C92.323 112.181 92.3123 112.293 92.3016 112.4H85.3096V110.944H90.9896L90.0296 111.376C90.0296 110.928 89.939 110.539 89.7576 110.208C89.5763 109.877 89.3256 109.621 89.0056 109.44C88.6856 109.248 88.3123 109.152 87.8856 109.152C87.459 109.152 87.0803 109.248 86.7496 109.44C86.4296 109.621 86.179 109.883 85.9976 110.224C85.8163 110.555 85.7256 110.949 85.7256 111.408V111.792C85.7256 112.261 85.827 112.677 86.0296 113.04C86.243 113.392 86.5363 113.664 86.9096 113.856C87.2936 114.037 87.7416 114.128 88.2536 114.128C88.7123 114.128 89.1123 114.059 89.4536 113.92C89.8056 113.781 90.1256 113.573 90.4136 113.296L91.7416 114.736C91.347 115.184 90.851 115.531 90.2536 115.776C89.6563 116.011 88.9683 116.128 88.1896 116.128ZM105.035 107.264C105.718 107.264 106.321 107.403 106.843 107.68C107.377 107.947 107.793 108.363 108.091 108.928C108.401 109.483 108.555 110.197 108.555 111.072V116H106.059V111.456C106.059 110.763 105.915 110.251 105.627 109.92C105.339 109.589 104.934 109.424 104.411 109.424C104.049 109.424 103.723 109.509 103.435 109.68C103.147 109.84 102.923 110.085 102.763 110.416C102.603 110.747 102.523 111.168 102.523 111.68V116H100.027V111.456C100.027 110.763 99.8834 110.251 99.5954 109.92C99.318 109.589 98.918 109.424 98.3954 109.424C98.0327 109.424 97.7074 109.509 97.4194 109.68C97.1314 109.84 96.9074 110.085 96.7474 110.416C96.5874 110.747 96.5074 111.168 96.5074 111.68V116H94.0114V107.392H96.3954V109.744L95.9474 109.056C96.246 108.469 96.6674 108.027 97.2114 107.728C97.766 107.419 98.3954 107.264 99.0994 107.264C99.8887 107.264 100.577 107.467 101.163 107.872C101.761 108.267 102.155 108.875 102.347 109.696L101.467 109.456C101.755 108.784 102.214 108.251 102.843 107.856C103.483 107.461 104.214 107.264 105.035 107.264ZM114.951 116.128C114.034 116.128 113.218 115.936 112.503 115.552C111.799 115.168 111.239 114.645 110.823 113.984C110.418 113.312 110.215 112.549 110.215 111.696C110.215 110.832 110.418 110.069 110.823 109.408C111.239 108.736 111.799 108.213 112.503 107.84C113.218 107.456 114.034 107.264 114.951 107.264C115.858 107.264 116.668 107.456 117.383 107.84C118.098 108.213 118.658 108.731 119.063 109.392C119.468 110.053 119.671 110.821 119.671 111.696C119.671 112.549 119.468 113.312 119.063 113.984C118.658 114.645 118.098 115.168 117.383 115.552C116.668 115.936 115.858 116.128 114.951 116.128ZM114.951 114.08C115.367 114.08 115.74 113.984 116.071 113.792C116.402 113.6 116.663 113.328 116.855 112.976C117.047 112.613 117.143 112.187 117.143 111.696C117.143 111.195 117.047 110.768 116.855 110.416C116.663 110.064 116.402 109.792 116.071 109.6C115.74 109.408 115.367 109.312 114.951 109.312C114.535 109.312 114.162 109.408 113.831 109.6C113.5 109.792 113.234 110.064 113.031 110.416C112.839 110.768 112.743 111.195 112.743 111.696C112.743 112.187 112.839 112.613 113.031 112.976C113.234 113.328 113.5 113.6 113.831 113.792C114.162 113.984 114.535 114.08 114.951 114.08ZM124.86 116.128C123.846 116.128 123.057 115.872 122.492 115.36C121.926 114.837 121.644 114.064 121.644 113.04V105.488H124.14V113.008C124.14 113.371 124.236 113.653 124.428 113.856C124.62 114.048 124.881 114.144 125.212 114.144C125.606 114.144 125.942 114.037 126.22 113.824L126.892 115.584C126.636 115.765 126.326 115.904 125.964 116C125.612 116.085 125.244 116.128 124.86 116.128ZM120.316 109.504V107.584H126.284V109.504H120.316ZM133.573 116V114.32L133.413 113.952V110.944C133.413 110.411 133.247 109.995 132.917 109.696C132.597 109.397 132.101 109.248 131.429 109.248C130.97 109.248 130.517 109.323 130.069 109.472C129.631 109.611 129.258 109.803 128.949 110.048L128.053 108.304C128.522 107.973 129.087 107.717 129.749 107.536C130.41 107.355 131.082 107.264 131.765 107.264C133.077 107.264 134.095 107.573 134.821 108.192C135.546 108.811 135.909 109.776 135.909 111.088V116H133.573ZM130.949 116.128C130.277 116.128 129.701 116.016 129.221 115.792C128.741 115.557 128.373 115.243 128.117 114.848C127.861 114.453 127.733 114.011 127.733 113.52C127.733 113.008 127.855 112.56 128.101 112.176C128.357 111.792 128.757 111.493 129.301 111.28C129.845 111.056 130.554 110.944 131.429 110.944H133.717V112.4H131.701C131.114 112.4 130.709 112.496 130.485 112.688C130.271 112.88 130.165 113.12 130.165 113.408C130.165 113.728 130.287 113.984 130.533 114.176C130.789 114.357 131.135 114.448 131.573 114.448C131.989 114.448 132.362 114.352 132.693 114.16C133.023 113.957 133.263 113.664 133.413 113.28L133.797 114.432C133.615 114.987 133.285 115.408 132.805 115.696C132.325 115.984 131.706 116.128 130.949 116.128Z" fill="#29A9FF"/>
<path d="M77.688 30.192C76.824 30.192 76.0187 30.0533 75.272 29.776C74.536 29.488 73.896 29.0827 73.352 28.56C72.808 28.0373 72.3813 27.424 72.072 26.72C71.7733 26.016 71.624 25.2427 71.624 24.4C71.624 23.5573 71.7733 22.784 72.072 22.08C72.3813 21.376 72.808 20.7627 73.352 20.24C73.9067 19.7173 74.552 19.3173 75.288 19.04C76.024 18.752 76.8293 18.608 77.704 18.608C78.6747 18.608 79.5493 18.7787 80.328 19.12C81.1173 19.4507 81.7787 19.9413 82.312 20.592L80.648 22.128C80.264 21.6907 79.8373 21.3653 79.368 21.152C78.8987 20.928 78.3867 20.816 77.832 20.816C77.3093 20.816 76.8293 20.9013 76.392 21.072C75.9547 21.2427 75.576 21.488 75.256 21.808C74.936 22.128 74.6853 22.5067 74.504 22.944C74.3333 23.3813 74.248 23.8667 74.248 24.4C74.248 24.9333 74.3333 25.4187 74.504 25.856C74.6853 26.2933 74.936 26.672 75.256 26.992C75.576 27.312 75.9547 27.5573 76.392 27.728C76.8293 27.8987 77.3093 27.984 77.832 27.984C78.3867 27.984 78.8987 27.8773 79.368 27.664C79.8373 27.44 80.264 27.104 80.648 26.656L82.312 28.192C81.7787 28.8427 81.1173 29.3387 80.328 29.68C79.5493 30.0213 78.6693 30.192 77.688 30.192ZM87.3153 30.128C86.6006 30.128 85.9606 29.9893 85.3953 29.712C84.8406 29.4347 84.4086 29.0133 84.0993 28.448C83.7899 27.872 83.6353 27.1413 83.6353 26.256V21.392H86.1313V25.888C86.1313 26.6027 86.2806 27.1307 86.5793 27.472C86.8886 27.8027 87.3206 27.968 87.8753 27.968C88.2593 27.968 88.6006 27.888 88.8993 27.728C89.1979 27.5573 89.4326 27.3013 89.6033 26.96C89.7739 26.608 89.8593 26.1707 89.8593 25.648V21.392H92.3553V30H89.9873V27.632L90.4193 28.32C90.1313 28.9173 89.7046 29.3707 89.1393 29.68C88.5846 29.9787 87.9766 30.128 87.3153 30.128ZM94.6676 30V21.392H97.0516V23.824L96.7156 23.12C96.9716 22.512 97.3823 22.0533 97.9476 21.744C98.513 21.424 99.201 21.264 100.012 21.264V23.568C99.905 23.5573 99.809 23.552 99.7236 23.552C99.6383 23.5413 99.5476 23.536 99.4516 23.536C98.769 23.536 98.2143 23.7333 97.7876 24.128C97.3716 24.512 97.1636 25.1147 97.1636 25.936V30H94.6676ZM104.454 30.128C103.718 30.128 103.009 30.0427 102.326 29.872C101.654 29.6907 101.121 29.4667 100.726 29.2L101.558 27.408C101.953 27.6533 102.417 27.856 102.95 28.016C103.494 28.1653 104.028 28.24 104.55 28.24C105.126 28.24 105.532 28.1707 105.766 28.032C106.012 27.8933 106.134 27.7013 106.134 27.456C106.134 27.2533 106.038 27.104 105.846 27.008C105.665 26.9013 105.42 26.8213 105.11 26.768C104.801 26.7147 104.46 26.6613 104.086 26.608C103.724 26.5547 103.356 26.4853 102.982 26.4C102.609 26.304 102.268 26.1653 101.958 25.984C101.649 25.8027 101.398 25.5573 101.206 25.248C101.025 24.9387 100.934 24.5387 100.934 24.048C100.934 23.504 101.089 23.024 101.398 22.608C101.718 22.192 102.177 21.8667 102.774 21.632C103.372 21.3867 104.086 21.264 104.918 21.264C105.505 21.264 106.102 21.328 106.71 21.456C107.318 21.584 107.825 21.7707 108.23 22.016L107.398 23.792C106.982 23.5467 106.561 23.3813 106.134 23.296C105.718 23.2 105.313 23.152 104.918 23.152C104.364 23.152 103.958 23.2267 103.702 23.376C103.446 23.5253 103.318 23.7173 103.318 23.952C103.318 24.1653 103.409 24.3253 103.59 24.432C103.782 24.5387 104.033 24.624 104.342 24.688C104.652 24.752 104.988 24.8107 105.35 24.864C105.724 24.9067 106.097 24.976 106.47 25.072C106.844 25.168 107.18 25.3067 107.478 25.488C107.788 25.6587 108.038 25.8987 108.23 26.208C108.422 26.5067 108.518 26.9013 108.518 27.392C108.518 27.9253 108.358 28.4 108.038 28.816C107.718 29.2213 107.254 29.5413 106.646 29.776C106.049 30.0107 105.318 30.128 104.454 30.128ZM115.338 30V28.32L115.178 27.952V24.944C115.178 24.4107 115.013 23.9947 114.682 23.696C114.362 23.3973 113.866 23.248 113.194 23.248C112.736 23.248 112.282 23.3227 111.834 23.472C111.397 23.6107 111.024 23.8027 110.714 24.048L109.818 22.304C110.288 21.9733 110.853 21.7173 111.514 21.536C112.176 21.3547 112.848 21.264 113.53 21.264C114.842 21.264 115.861 21.5733 116.586 22.192C117.312 22.8107 117.674 23.776 117.674 25.088V30H115.338ZM112.714 30.128C112.042 30.128 111.466 30.016 110.986 29.792C110.506 29.5573 110.138 29.2427 109.882 28.848C109.626 28.4533 109.498 28.0107 109.498 27.52C109.498 27.008 109.621 26.56 109.866 26.176C110.122 25.792 110.522 25.4933 111.066 25.28C111.61 25.056 112.32 24.944 113.194 24.944H115.482V26.4H113.466C112.88 26.4 112.474 26.496 112.25 26.688C112.037 26.88 111.93 27.12 111.93 27.408C111.93 27.728 112.053 27.984 112.298 28.176C112.554 28.3573 112.901 28.448 113.338 28.448C113.754 28.448 114.128 28.352 114.458 28.16C114.789 27.9573 115.029 27.664 115.178 27.28L115.562 28.432C115.381 28.9867 115.05 29.408 114.57 29.696C114.09 29.984 113.472 30.128 112.714 30.128ZM123.692 30.128C122.881 30.128 122.15 29.9467 121.5 29.584C120.849 29.2107 120.332 28.6933 119.948 28.032C119.574 27.3707 119.388 26.592 119.388 25.696C119.388 24.7893 119.574 24.0053 119.948 23.344C120.332 22.6827 120.849 22.1707 121.5 21.808C122.15 21.4453 122.881 21.264 123.692 21.264C124.417 21.264 125.052 21.424 125.596 21.744C126.14 22.064 126.561 22.5493 126.86 23.2C127.158 23.8507 127.308 24.6827 127.308 25.696C127.308 26.6987 127.164 27.5307 126.876 28.192C126.588 28.8427 126.172 29.328 125.628 29.648C125.094 29.968 124.449 30.128 123.692 30.128ZM124.124 28.08C124.529 28.08 124.897 27.984 125.228 27.792C125.558 27.6 125.82 27.328 126.012 26.976C126.214 26.6133 126.316 26.1867 126.316 25.696C126.316 25.1947 126.214 24.768 126.012 24.416C125.82 24.064 125.558 23.792 125.228 23.6C124.897 23.408 124.529 23.312 124.124 23.312C123.708 23.312 123.334 23.408 123.004 23.6C122.673 23.792 122.406 24.064 122.204 24.416C122.012 24.768 121.916 25.1947 121.916 25.696C121.916 26.1867 122.012 26.6133 122.204 26.976C122.406 27.328 122.673 27.6 123.004 27.792C123.334 27.984 123.708 28.08 124.124 28.08ZM126.38 30V28.24L126.428 25.68L126.268 23.136V18.128H128.764V30H126.38ZM136.354 30V28.32L136.194 27.952V24.944C136.194 24.4107 136.029 23.9947 135.698 23.696C135.378 23.3973 134.882 23.248 134.21 23.248C133.751 23.248 133.298 23.3227 132.85 23.472C132.413 23.6107 132.039 23.8027 131.73 24.048L130.834 22.304C131.303 21.9733 131.869 21.7173 132.53 21.536C133.191 21.3547 133.863 21.264 134.546 21.264C135.858 21.264 136.877 21.5733 137.602 22.192C138.327 22.8107 138.69 23.776 138.69 25.088V30H136.354ZM133.73 30.128C133.058 30.128 132.482 30.016 132.002 29.792C131.522 29.5573 131.154 29.2427 130.898 28.848C130.642 28.4533 130.514 28.0107 130.514 27.52C130.514 27.008 130.637 26.56 130.882 26.176C131.138 25.792 131.538 25.4933 132.082 25.28C132.626 25.056 133.335 24.944 134.21 24.944H136.498V26.4H134.482C133.895 26.4 133.49 26.496 133.266 26.688C133.053 26.88 132.946 27.12 132.946 27.408C132.946 27.728 133.069 27.984 133.314 28.176C133.57 28.3573 133.917 28.448 134.354 28.448C134.77 28.448 135.143 28.352 135.474 28.16C135.805 27.9573 136.045 27.664 136.194 27.28L136.578 28.432C136.397 28.9867 136.066 29.408 135.586 29.696C135.106 29.984 134.487 30.128 133.73 30.128ZM75.688 47L70.856 35.8H73.656L77.88 45.72H76.232L80.52 35.8H83.096L78.248 47H75.688ZM83.9958 47V38.392H86.4918V47H83.9958ZM85.2438 37.192C84.7851 37.192 84.4118 37.0587 84.1238 36.792C83.8358 36.5253 83.6918 36.1947 83.6918 35.8C83.6918 35.4053 83.8358 35.0747 84.1238 34.808C84.4118 34.5413 84.7851 34.408 85.2438 34.408C85.7024 34.408 86.0758 34.536 86.3638 34.792C86.6518 35.0373 86.7958 35.3573 86.7958 35.752C86.7958 36.168 86.6518 36.5147 86.3638 36.792C86.0864 37.0587 85.7131 37.192 85.2438 37.192ZM88.8083 47V38.392H91.1923V40.824L90.8563 40.12C91.1123 39.512 91.5229 39.0533 92.0883 38.744C92.6536 38.424 93.3416 38.264 94.1523 38.264V40.568C94.0456 40.5573 93.9496 40.552 93.8643 40.552C93.7789 40.5413 93.6883 40.536 93.5923 40.536C92.9096 40.536 92.3549 40.7333 91.9283 41.128C91.5123 41.512 91.3043 42.1147 91.3043 42.936V47H88.8083ZM99.4533 47.128C98.4399 47.128 97.6506 46.872 97.0853 46.36C96.5199 45.8373 96.2373 45.064 96.2373 44.04V36.488H98.7333V44.008C98.7333 44.3707 98.8293 44.6533 99.0213 44.856C99.2133 45.048 99.4746 45.144 99.8053 45.144C100.2 45.144 100.536 45.0373 100.813 44.824L101.485 46.584C101.229 46.7653 100.92 46.904 100.557 47C100.205 47.0853 99.8373 47.128 99.4533 47.128ZM94.9093 40.504V38.584H100.877V40.504H94.9093ZM106.518 47.128C105.804 47.128 105.164 46.9893 104.598 46.712C104.044 46.4347 103.612 46.0133 103.302 45.448C102.993 44.872 102.838 44.1413 102.838 43.256V38.392H105.334V42.888C105.334 43.6027 105.484 44.1307 105.782 44.472C106.092 44.8027 106.524 44.968 107.078 44.968C107.462 44.968 107.804 44.888 108.102 44.728C108.401 44.5573 108.636 44.3013 108.806 43.96C108.977 43.608 109.062 43.1707 109.062 42.648V38.392H111.558V47H109.19V44.632L109.622 45.32C109.334 45.9173 108.908 46.3707 108.342 46.68C107.788 46.9787 107.18 47.128 106.518 47.128ZM119.151 47V45.32L118.991 44.952V41.944C118.991 41.4107 118.825 40.9947 118.495 40.696C118.175 40.3973 117.679 40.248 117.007 40.248C116.548 40.248 116.095 40.3227 115.647 40.472C115.209 40.6107 114.836 40.8027 114.527 41.048L113.631 39.304C114.1 38.9733 114.665 38.7173 115.327 38.536C115.988 38.3547 116.66 38.264 117.343 38.264C118.655 38.264 119.673 38.5733 120.399 39.192C121.124 39.8107 121.487 40.776 121.487 42.088V47H119.151ZM116.527 47.128C115.855 47.128 115.279 47.016 114.799 46.792C114.319 46.5573 113.951 46.2427 113.695 45.848C113.439 45.4533 113.311 45.0107 113.311 44.52C113.311 44.008 113.433 43.56 113.679 43.176C113.935 42.792 114.335 42.4933 114.879 42.28C115.423 42.056 116.132 41.944 117.007 41.944H119.295V43.4H117.279C116.692 43.4 116.287 43.496 116.063 43.688C115.849 43.88 115.743 44.12 115.743 44.408C115.743 44.728 115.865 44.984 116.111 45.176C116.367 45.3573 116.713 45.448 117.151 45.448C117.567 45.448 117.94 45.352 118.271 45.16C118.601 44.9573 118.841 44.664 118.991 44.28L119.375 45.432C119.193 45.9867 118.863 46.408 118.383 46.696C117.903 46.984 117.284 47.128 116.527 47.128ZM123.746 47V35.128H126.242V47H123.746Z" fill="#29A9FF"/>
<g filter="url(#filter0_d_245_265)">
<circle cx="32.5" cy="32.5" r="28.5" fill="#29A9FF"/>
</g>
<g filter="url(#filter1_d_245_265)">
<circle cx="32.5" cy="101.5" r="28.5" fill="#29A9FF"/>
</g>
<g filter="url(#filter2_d_245_265)">
<circle cx="32.5" cy="170.5" r="28.5" fill="#29A9FF"/>
</g>
<path d="M18 27.8126H28.8333M28.8333 27.8126H47.9995M28.8333 27.8126L37.1667 20M37.1667 20H42.6666C44.4111 20 45.3405 20 46.0365 20.278M37.1667 20H23.3334C21.4664 20 20.533 20 19.82 20.3408C19.193 20.6403 18.683 21.1184 18.3635 21.7062C18 22.3747 18 23.2498 18 25.0001V39.9999C18 41.7502 18 42.6253 18.3635 43.2938C18.683 43.8816 19.193 44.3597 19.82 44.6592C20.533 45 21.4664 45 23.3334 45H42.6666C44.5336 45 45.467 45 46.18 44.6592C46.807 44.3597 47.317 43.8816 47.6365 43.2938C48 42.6253 48 41.7502 48 39.9999V25.0001C48 23.2498 48 22.3747 47.6365 21.7062C47.317 21.1184 46.807 20.6403 46.18 20.3408C46.1335 20.3183 46.0855 20.2977 46.037 20.278L38.0002 27.8126M28.0003 20L19.667 27.8126M38.0002 36.406L29.6668 41.0935V31.7186L38.0002 36.406Z" stroke="#1D1B22" stroke-width="3" stroke-linejoin="round"/>
<path d="M41.6663 108.445V111.778C41.6663 112.556 41.6663 112.945 41.509 113.242C41.3703 113.503 41.1498 113.715 40.8777 113.849C40.5687 114 40.1644 114 39.3554 114H26.6446C25.8356 114 25.4313 114 25.1223 113.849C24.8507 113.715 24.6297 113.503 24.491 113.242C24.3337 112.945 24.3337 112.556 24.3337 111.778V108.445M33.0002 98.7225H33.0145M38.7778 98.7225C38.7778 101.791 36.1908 104.278 33.0002 104.278C29.8096 104.278 27.2227 101.79 27.2227 98.7225C27.2227 95.6546 29.8096 93.1671 33.0002 93.1671C36.1908 93.1671 38.7778 95.6546 38.7778 98.7225ZM33.7221 98.7225C33.7221 99.1058 33.3989 99.4171 32.9998 99.4171C32.6007 99.4171 32.2774 99.1063 32.2774 98.7225C32.2774 98.3388 32.6007 98.0279 32.9998 98.0279C33.3989 98.0279 33.7221 98.3388 33.7221 98.7225ZM24.6223 108.445H41.3777C42.9957 108.445 43.8048 108.445 44.4227 108.142C44.9661 107.875 45.4081 107.45 45.685 106.928C46 106.334 46 105.556 46 104V93.4446C46 91.8888 46 91.1108 45.685 90.5167C45.4081 89.9942 44.9661 89.5692 44.4227 89.3029C43.8048 89 42.9957 89 41.3777 89H24.6223C23.0042 89 22.1952 89 21.5773 89.3029C21.0339 89.5692 20.5919 89.9942 20.315 90.5167C20 91.1108 20 91.8888 20 93.4446V104C20 105.556 20 106.334 20.315 106.928C20.5919 107.45 21.0339 107.875 21.5773 108.142C22.1952 108.445 23.0042 108.445 24.6223 108.445Z" stroke="#1D1B22" stroke-width="3" stroke-linecap="round" stroke-linejoin="round"/>
<path d="M24.3333 170.501H22.311C21.5019 170.501 21.0976 170.501 20.7887 170.652C20.517 170.785 20.296 170.998 20.1573 171.259C20 171.556 20 171.945 20 172.723V176.612C20 177.39 20 177.778 20.1573 178.075C20.296 178.337 20.517 178.549 20.7887 178.683C21.0976 178.834 21.5019 178.834 22.311 178.834H24.3333M41.6667 170.5H43.689C44.4981 170.5 44.9024 170.5 45.2113 170.652C45.483 170.785 45.704 170.997 45.8427 171.259C46 171.556 46 171.945 46 172.723V176.611C46 177.389 46 177.778 45.8427 178.075C45.704 178.336 45.4835 178.549 45.2113 178.682C44.9024 178.833 44.4981 178.833 43.689 178.833H41.6667M37.3333 162.167C37.3333 159.865 35.3933 158 33 158C30.6067 158 28.6667 159.865 28.6667 162.167M30.111 170.5H35.8886M31.2662 183H34.7329C37.16 183 38.3733 183 39.3002 182.546C40.1158 182.146 40.7783 181.509 41.1939 180.725C41.6662 179.834 41.6662 178.667 41.6662 176.333V168.833C41.6662 166.5 41.6662 165.333 41.1939 164.442C40.7783 163.658 40.1158 163.02 39.3002 162.621C38.3733 162.167 37.16 162.167 34.7329 162.167H31.2662C28.8391 162.167 27.6258 162.167 26.6989 162.621C25.8834 163.02 25.2208 163.658 24.8052 164.442C24.3329 165.333 24.3329 166.5 24.3329 168.833V176.333C24.3329 178.667 24.3329 179.834 24.8052 180.725C25.2208 181.509 25.8838 182.146 26.6989 182.546C27.6258 183 28.8391 183 31.2662 183Z" stroke="#1D1B22" stroke-width="3" stroke-linecap="round" stroke-linejoin="round"/>
<defs>
<filter id="filter0_d_245_265" x="0" y="0" width="77" height="77" filterUnits="userSpaceOnUse" color-interpolation-filters="sRGB">
<feFlood flood-opacity="0" result="BackgroundImageFix"/>
<feColorMatrix in="SourceAlpha" type="matrix" values="0 0 0 0 0 0 0 0 0 0 0 0 0 0 0 0 0 0 127 0" result="hardAlpha"/>
<feOffset dx="6" dy="6"/>
<feGaussianBlur stdDeviation="5"/>
<feComposite in2="hardAlpha" operator="out"/>
<feColorMatrix type="matrix" values="0 0 0 0 0 0 0 0 0 0 0 0 0 0 0 0 0 0 0.65 0"/>
<feBlend mode="normal" in2="BackgroundImageFix" result="effect1_dropShadow_245_265"/>
<feBlend mode="normal" in="SourceGraphic" in2="effect1_dropShadow_245_265" result="shape"/>
</filter>
<filter id="filter1_d_245_265" x="0" y="69" width="77" height="77" filterUnits="userSpaceOnUse" color-interpolation-filters="sRGB">
<feFlood flood-opacity="0" result="BackgroundImageFix"/>
<feColorMatrix in="SourceAlpha" type="matrix" values="0 0 0 0 0 0 0 0 0 0 0 0 0 0 0 0 0 0 127 0" result="hardAlpha"/>
<feOffset dx="6" dy="6"/>
<feGaussianBlur stdDeviation="5"/>
<feComposite in2="hardAlpha" operator="out"/>
<feColorMatrix type="matrix" values="0 0 0 0 0 0 0 0 0 0 0 0 0 0 0 0 0 0 0.65 0"/>
<feBlend mode="normal" in2="BackgroundImageFix" result="effect1_dropShadow_245_265"/>
<feBlend mode="normal" in="SourceGraphic" in2="effect1_dropShadow_245_265" result="shape"/>
</filter>
<filter id="filter2_d_245_265" x="0" y="138" width="77" height="77" filterUnits="userSpaceOnUse" color-interpolation-filters="sRGB">
<feFlood flood-opacity="0" result="BackgroundImageFix"/>
<feColorMatrix in="SourceAlpha" type="matrix" values="0 0 0 0 0 0 0 0 0 0 0 0 0 0 0 0 0 0 127 0" result="hardAlpha"/>
<feOffset dx="6" dy="6"/>
<feGaussianBlur stdDeviation="5"/>
<feComposite in2="hardAlpha" operator="out"/>
<feColorMatrix type="matrix" values="0 0 0 0 0 0 0 0 0 0 0 0 0 0 0 0 0 0 0.65 0"/>
<feBlend mode="normal" in2="BackgroundImageFix" result="effect1_dropShadow_245_265"/>
<feBlend mode="normal" in="SourceGraphic" in2="effect1_dropShadow_245_265" result="shape"/>
</filter>
</defs>
</svg>
