<svg width="25" height="16" viewBox="0 0 25 16" fill="none" xmlns="http://www.w3.org/2000/svg">
<path d="M19.7519 2.00012H4.32162C3.17309 2.00012 2.59854 2.00012 2.33232 2.24207C2.10136 2.45188 1.97906 2.7672 2.00295 3.0898C2.03025 3.46152 2.43642 3.89448 3.24875 4.76041L10.9636 12.9843C11.3391 13.3845 11.5268 13.5846 11.7435 13.6598C11.9341 13.7259 12.1389 13.7259 12.3294 13.6598C12.5462 13.5846 12.7339 13.3845 13.1094 12.9843L20.8242 4.76041C21.6366 3.89448 22.0427 3.46152 22.07 3.0898C22.0939 2.7672 21.971 2.45188 21.7407 2.24207C21.475 2.00012 20.9005 2.00012 19.7519 2.00012Z" stroke="#1D1B22" stroke-width="4" stroke-linecap="round" stroke-linejoin="round"/>
</svg>
