<svg width="85" height="85" viewBox="0 0 85 85" fill="none" xmlns="http://www.w3.org/2000/svg">
<g filter="url(#filter0_d_522_368)">
<path d="M52.5656 68.6639L40.1724 58.5025C39.5718 58.0095 38.6886 58.0573 38.1509 58.6207L27.0448 70.1735C26.1084 71.1482 24.4559 70.4726 24.4757 69.122L24.6917 53.0975C24.7012 52.3199 24.1127 51.6634 23.3362 51.5902L7.37991 50.111C6.03138 49.9821 5.53461 48.2721 6.60473 47.4454L19.2669 37.6262C19.8804 37.1506 20.028 36.2755 19.5985 35.6265L10.8069 22.2322C10.0632 21.0999 11.09 19.6448 12.4078 19.9642L27.9816 23.7425C28.7379 23.9244 29.5097 23.4927 29.755 22.7557L34.7506 7.52684C35.174 6.24273 36.9544 6.13381 37.5235 7.36302L44.2753 21.8938C44.6036 22.6048 45.421 22.9333 46.1535 22.6645L61.1728 17.077C62.4412 16.6041 63.6318 17.9309 63.0323 19.1436L55.8831 33.483C55.534 34.1772 55.7825 35.0277 56.4484 35.4308L70.1857 43.6881C71.3467 44.3821 71.0556 46.1462 69.727 46.427L54.052 49.7787C53.2895 49.9424 52.7808 50.6654 52.8806 51.4359L54.9867 67.3203C55.1627 68.6607 53.6052 69.5287 52.561 68.6684L52.5656 68.6639Z" fill="#48E580"/>
</g>
<defs>
<filter id="filter0_d_522_368" x="0.0244141" y="0.499634" width="84.8867" height="84.1348" filterUnits="userSpaceOnUse" color-interpolation-filters="sRGB">
<feFlood flood-opacity="0" result="BackgroundImageFix"/>
<feColorMatrix in="SourceAlpha" type="matrix" values="0 0 0 0 0 0 0 0 0 0 0 0 0 0 0 0 0 0 127 0" result="hardAlpha"/>
<feOffset dx="4" dy="4"/>
<feGaussianBlur stdDeviation="5"/>
<feColorMatrix type="matrix" values="0 0 0 0 0 0 0 0 0 0 0 0 0 0 0 0 0 0 0.65 0"/>
<feBlend mode="normal" in2="BackgroundImageFix" result="effect1_dropShadow_522_368"/>
<feBlend mode="normal" in="SourceGraphic" in2="effect1_dropShadow_522_368" result="shape"/>
</filter>
</defs>
</svg>
