<svg width="86" height="87" viewBox="0 0 86 87" fill="none" xmlns="http://www.w3.org/2000/svg">
<g filter="url(#filter0_d_521_158)">
<path d="M71.901 40.1576L55.9398 50.1619C55.087 50.6948 54.553 51.6154 54.5074 52.617L53.699 71.4428C53.591 73.9694 50.6302 75.2722 48.6915 73.6484L34.2462 61.5553C33.4738 60.9066 32.4392 60.6866 31.4717 60.956L13.3245 65.9995C10.8883 66.6761 8.72841 64.2635 9.67591 61.918L16.7082 44.4414C17.0809 43.508 16.9761 42.4553 16.4235 41.6135L6.01631 25.9088C4.61864 23.8038 6.24677 21.0083 8.7712 21.1818L27.566 22.4763C28.5688 22.547 29.5415 22.1142 30.1694 21.3276L41.8873 6.57768C43.4565 4.59866 46.6192 5.28358 47.2336 7.7351L51.813 26.006C52.0551 26.9823 52.7634 27.7694 53.711 28.1214L71.3635 34.7088C73.7341 35.5974 74.0585 38.8078 71.9185 40.1543L71.901 40.1576Z" fill="#8EFE00"/>
</g>
<defs>
<filter id="filter0_d_521_158" x="0.501953" y="0.424072" width="84.5267" height="85.6217" filterUnits="userSpaceOnUse" color-interpolation-filters="sRGB">
<feFlood flood-opacity="0" result="BackgroundImageFix"/>
<feColorMatrix in="SourceAlpha" type="matrix" values="0 0 0 0 0 0 0 0 0 0 0 0 0 0 0 0 0 0 127 0" result="hardAlpha"/>
<feOffset dx="3.34" dy="3.34"/>
<feGaussianBlur stdDeviation="4.17"/>
<feColorMatrix type="matrix" values="0 0 0 0 0 0 0 0 0 0 0 0 0 0 0 0 0 0 0.65 0"/>
<feBlend mode="normal" in2="BackgroundImageFix" result="effect1_dropShadow_521_158"/>
<feBlend mode="normal" in="SourceGraphic" in2="effect1_dropShadow_521_158" result="shape"/>
</filter>
</defs>
</svg>
