<svg width="127" height="141" viewBox="0 0 127 141" fill="none" xmlns="http://www.w3.org/2000/svg">
<g filter="url(#filter0_d_2607_2)">
<path d="M76.1647 27.7408L15.7992 49.8052C9.0912 52.257 5.64094 59.6825 8.0928 66.3905L26.9034 117.854C29.3553 124.562 36.7808 128.012 43.4888 125.561L103.854 103.496C110.562 101.044 114.013 93.6189 111.561 86.9109L92.75 35.4472C90.2982 28.7392 82.8727 25.2889 76.1647 27.7408Z" fill="#3BA5E0"/>
</g>
<path d="M67.8848 99.4433L58.0951 72.6598C55.8108 66.4101 54.6684 63.2848 52.5913 61.338C50.7643 59.6253 48.4489 58.536 45.9779 58.2266C43.169 57.8747 40.0734 59.0062 33.883 61.2689L31.1198 62.2789C29.572 62.8446 28.7985 63.1273 28.3184 63.6472C27.8965 64.105 27.6297 64.6864 27.5563 65.3082C27.4735 66.015 27.7589 66.7959 28.3301 68.3585L39.3434 98.4898C39.9146 100.052 40.2 100.833 40.7191 101.32C41.1762 101.748 41.7551 102.02 42.3728 102.098C43.0749 102.186 43.8484 101.903 45.3962 101.337L53.539 98.3612C55.0321 97.8154 55.7782 97.5427 56.5477 97.4085C57.2308 97.2898 57.9256 97.2521 58.6178 97.2971C59.3976 97.3479 60.172 97.5383 61.7195 97.9205L67.8853 99.4421M58.0956 72.6587C55.8113 66.4089 54.6689 63.2837 55.001 60.4563C55.293 57.969 56.3601 55.6434 58.0492 53.8135C59.9691 51.7331 63.0647 50.6016 69.2551 48.339L72.0183 47.329C73.5661 46.7633 74.3396 46.4805 75.0417 46.5683C75.6594 46.6461 76.2382 46.9185 76.6954 47.3463C77.2144 47.833 77.4999 48.614 78.071 50.1766L89.0844 80.3079C89.6556 81.8706 89.941 82.6515 89.8582 83.3583C89.7847 83.98 89.5188 84.5611 89.096 85.0192C88.616 85.5391 87.8425 85.8219 86.2947 86.3876L78.1519 89.3639C76.6588 89.9096 75.9127 90.1823 75.2388 90.5757C74.6402 90.9254 74.0849 91.3448 73.5848 91.8254C73.0216 92.3672 72.5525 93.0121 71.6162 94.3022L67.885 99.4413" stroke="#48E580" stroke-width="5" stroke-linecap="round" stroke-linejoin="round"/>
<g filter="url(#filter1_d_2607_2)">
<path d="M46.4674 22.5008L38.627 28.7343C38.2464 29.039 38.161 29.582 38.4328 29.9871L44.0285 38.294C44.5026 38.9948 43.8713 39.9163 43.0464 39.7241L33.2844 37.4817C32.8102 37.3726 32.3313 37.6482 32.1864 38.1126L29.1804 47.6711C28.9274 48.4803 27.8161 48.5571 27.4476 47.7975L23.1138 38.7643C22.9057 38.3246 22.3921 38.1229 21.9369 38.2983L12.592 41.9079C11.8031 42.2146 11.0457 41.3944 11.4146 40.6326L15.774 31.6122C15.9848 31.1744 15.8236 30.6458 15.4044 30.3993L6.75695 25.343C6.02522 24.9154 6.19819 23.8149 7.02053 23.6258L16.7904 21.412C17.2639 21.3035 17.5776 20.8481 17.507 20.37L16.0696 10.455C15.9492 9.61799 16.9143 9.06329 17.5773 9.59012L25.4005 15.8462C25.7806 16.1511 26.3317 16.1126 26.6649 15.7547L33.5177 8.44977C34.0975 7.83282 35.1317 8.24176 35.1332 9.09063L35.1207 19.1092C35.1192 19.5948 35.4935 20.0003 35.98 20.0413L45.9636 20.8444C46.8092 20.9112 47.1315 21.9774 46.4692 22.5045L46.4674 22.5008Z" fill="#213E72"/>
</g>
<defs>
<filter id="filter0_d_2607_2" x="1.30371" y="20.9514" width="125.047" height="119.399" filterUnits="userSpaceOnUse" color-interpolation-filters="sRGB">
<feFlood flood-opacity="0" result="BackgroundImageFix"/>
<feColorMatrix in="SourceAlpha" type="matrix" values="0 0 0 0 0 0 0 0 0 0 0 0 0 0 0 0 0 0 127 0" result="hardAlpha"/>
<feOffset dx="4" dy="4"/>
<feGaussianBlur stdDeviation="5"/>
<feColorMatrix type="matrix" values="0 0 0 0 0 0 0 0 0 0 0 0 0 0 0 0 0 0 0.65 0"/>
<feBlend mode="normal" in2="BackgroundImageFix" result="effect1_dropShadow_2607_2"/>
<feBlend mode="normal" in="SourceGraphic" in2="effect1_dropShadow_2607_2" result="shape"/>
</filter>
<filter id="filter1_d_2607_2" x="0.294922" y="2.15308" width="60.5283" height="60.1721" filterUnits="userSpaceOnUse" color-interpolation-filters="sRGB">
<feFlood flood-opacity="0" result="BackgroundImageFix"/>
<feColorMatrix in="SourceAlpha" type="matrix" values="0 0 0 0 0 0 0 0 0 0 0 0 0 0 0 0 0 0 127 0" result="hardAlpha"/>
<feOffset dx="4" dy="4"/>
<feGaussianBlur stdDeviation="5"/>
<feColorMatrix type="matrix" values="0 0 0 0 0 0 0 0 0 0 0 0 0 0 0 0 0 0 0.65 0"/>
<feBlend mode="normal" in2="BackgroundImageFix" result="effect1_dropShadow_2607_2"/>
<feBlend mode="normal" in="SourceGraphic" in2="effect1_dropShadow_2607_2" result="shape"/>
</filter>
</defs>
</svg>
