<svg width="269" height="189" viewBox="0 0 269 189" fill="none" xmlns="http://www.w3.org/2000/svg">
<g filter="url(#filter0_d_607_2)">
<path d="M88.9272 18.8045L23.2474 67.646C15.9488 73.0734 14.432 83.3898 19.8594 90.6883L61.4984 146.683C66.9258 153.981 77.2422 155.498 84.5408 150.071L150.221 101.229C157.519 95.8018 159.036 85.4854 153.609 78.1868L111.97 22.1925C106.542 14.894 96.2257 13.3771 88.9272 18.8045Z" fill="#3BA5E0"/>
</g>
<path d="M104.843 109.334L83.1731 80.193C78.1164 73.393 75.5878 69.9926 72.3458 68.37C69.4939 66.9424 66.2723 66.453 63.1436 66.9721C59.5871 67.562 56.219 70.0666 49.4836 75.0752L46.4772 77.3109C44.7931 78.5632 43.9515 79.1891 43.5542 79.9979C43.2053 80.7099 43.0907 81.5164 43.2266 82.302C43.382 83.1948 44.0139 84.0445 45.2782 85.7447L69.6573 118.529C70.9217 120.229 71.5535 121.079 72.3638 121.484C73.077 121.841 73.8824 121.963 74.6647 121.834C75.5536 121.686 76.3952 121.06 78.0793 119.808L86.9389 113.22C88.5635 112.012 89.3753 111.408 90.2659 110.965C91.0566 110.572 91.8912 110.274 92.7523 110.078C93.7227 109.857 94.7371 109.808 96.7649 109.713L104.844 109.333M83.1733 80.1914C78.1166 73.3915 75.588 69.991 74.9672 66.4192C74.4209 63.2771 74.8796 60.0509 76.2773 57.2042C77.8659 53.9679 81.234 51.4633 87.9694 46.4547L90.9758 44.219C92.6599 42.9667 93.5015 42.3408 94.3904 42.1931C95.1727 42.064 95.9781 42.1863 96.6914 42.5427C97.5016 42.9485 98.1335 43.7981 99.3978 45.4984L123.777 78.2824C125.041 79.9826 125.673 80.8322 125.828 81.725C125.964 82.5106 125.851 83.3165 125.501 84.0292C125.104 84.838 124.262 85.4638 122.578 86.7161L113.718 93.3044C112.094 94.5125 111.282 95.1162 110.602 95.8409C109.998 96.4851 109.473 97.1985 109.037 97.9667C108.546 98.8324 108.207 99.7899 107.533 101.704L104.843 109.332" stroke="#48E580" stroke-width="8" stroke-linecap="round" stroke-linejoin="round"/>
<g filter="url(#filter1_d_607_2)">
<path d="M163.055 154.911C187.322 170.335 219.497 163.168 234.919 138.904C250.341 114.639 243.17 82.4658 218.903 67.042C194.636 51.6182 162.461 58.7849 147.039 83.0493C131.617 107.314 138.788 139.487 163.055 154.911Z" fill="#7039C7"/>
</g>
<path d="M196.085 88.6513L210.336 90.7141C213.662 91.1955 215.325 91.4362 216.501 92.2673C217.536 92.9983 218.313 94.0382 218.721 95.2379C219.184 96.6019 218.943 98.2647 218.462 101.59L214.68 127.718M161.237 119.982L162.097 114.044M183.743 87.4825C183.539 87.4654 183.334 87.4421 183.129 87.4124C180.087 86.9721 177.509 85.212 175.731 82.6739C173.307 84.6037 170.335 85.5605 167.294 85.1202C167.089 85.0905 166.886 85.0548 166.685 85.0133C166.274 86.1105 165.971 87.2796 165.794 88.5042C164.842 95.0781 167.827 101.15 172.723 103.457C178.072 102.633 182.656 97.6567 183.608 91.0828C183.785 89.8582 183.826 88.6511 183.743 87.4825ZM158.268 119.553L217.649 128.148L217.305 130.523C216.824 133.849 216.583 135.512 215.752 136.688C215.021 137.723 213.981 138.5 212.782 138.907C211.418 139.371 209.755 139.13 206.429 138.649L166.05 132.804C162.724 132.323 161.062 132.082 159.885 131.251C158.85 130.52 158.073 129.48 157.666 128.28C157.202 126.916 157.443 125.253 157.924 121.928L158.268 119.553Z" stroke="#8EFE00" stroke-width="6" stroke-linecap="round" stroke-linejoin="round"/>
<defs>
<filter id="filter0_d_607_2" x="10.605" y="9.55005" width="160.258" height="157.775" filterUnits="userSpaceOnUse" color-interpolation-filters="sRGB">
<feFlood flood-opacity="0" result="BackgroundImageFix"/>
<feColorMatrix in="SourceAlpha" type="matrix" values="0 0 0 0 0 0 0 0 0 0 0 0 0 0 0 0 0 0 127 0" result="hardAlpha"/>
<feOffset dx="4" dy="4"/>
<feGaussianBlur stdDeviation="5"/>
<feColorMatrix type="matrix" values="0 0 0 0 0 0 0 0 0 0 0 0 0 0 0 0 0 0 0.65 0"/>
<feBlend mode="normal" in2="BackgroundImageFix" result="effect1_dropShadow_607_2"/>
<feBlend mode="normal" in="SourceGraphic" in2="effect1_dropShadow_607_2" result="shape"/>
</filter>
<filter id="filter1_d_607_2" x="134.911" y="54.9106" width="124.137" height="124.132" filterUnits="userSpaceOnUse" color-interpolation-filters="sRGB">
<feFlood flood-opacity="0" result="BackgroundImageFix"/>
<feColorMatrix in="SourceAlpha" type="matrix" values="0 0 0 0 0 0 0 0 0 0 0 0 0 0 0 0 0 0 127 0" result="hardAlpha"/>
<feOffset dx="6" dy="6"/>
<feGaussianBlur stdDeviation="5"/>
<feColorMatrix type="matrix" values="0 0 0 0 0 0 0 0 0 0 0 0 0 0 0 0 0 0 0.65 0"/>
<feBlend mode="normal" in2="BackgroundImageFix" result="effect1_dropShadow_607_2"/>
<feBlend mode="normal" in="SourceGraphic" in2="effect1_dropShadow_607_2" result="shape"/>
</filter>
</defs>
</svg>
