<svg width="98" height="74" viewBox="0 0 98 74" fill="none" xmlns="http://www.w3.org/2000/svg">
<g filter="url(#filter0_d_1602_2)">
<path d="M49.5033 46.047C57.6544 52.9559 69.8623 51.9496 76.7704 43.7994C83.6785 35.6493 82.6708 23.4415 74.5197 16.5326C66.3685 9.62372 54.1606 10.63 47.2526 18.7801C40.3445 26.9303 41.3521 39.1381 49.5033 46.047Z" fill="#7039C7"/>
</g>
<path d="M61.4747 20.1245C60.343 19.5471 59.7428 19.2578 59.1639 19.2555C58.6217 19.2533 58.0934 19.4224 57.6551 19.7381C57.1566 20.0972 56.8308 20.7344 56.1791 22.0088L50.5944 32.9304C49.9427 34.2048 49.6169 34.842 49.6177 35.4564C49.6183 35.9966 49.7906 36.5239 50.1097 36.9622C50.4725 37.4607 51.1137 37.7885 52.396 38.4443L61.0958 42.8929C62.3781 43.5486 63.0193 43.8764 63.6359 43.8787C64.1781 43.8808 64.7064 43.7118 65.1447 43.396C65.6432 43.037 65.969 42.3998 66.6207 41.1254L72.2052 30.2041C72.8569 28.9297 73.1827 28.2925 73.1819 27.6781C73.1814 27.1379 73.0091 26.6107 72.6899 26.1724C72.3491 25.7045 71.7637 25.387 70.6325 24.8077M61.4747 20.1245L60.3114 22.3996L69.4693 27.0825L70.6327 24.8074M61.4747 20.1245L61.6451 19.7914C61.9084 19.2764 62.3672 18.8875 62.9198 18.7108C63.4725 18.534 64.0741 18.5833 64.5927 18.8484L69.8422 21.5327C70.3604 21.7977 70.7529 22.2568 70.9332 22.8083C71.1134 23.3599 71.0667 23.9594 70.8034 24.4744L70.633 24.8076M65.4159 32.1857L61.9818 30.4296M63.0889 36.7366L59.6547 34.9805M58.5476 28.6736L58.5589 28.6794M56.2205 33.2245L56.2318 33.2303" stroke="#8EFE00" stroke-width="2.5" stroke-linecap="round" stroke-linejoin="round"/>
<g filter="url(#filter1_d_1602_2)">
<path d="M37.8642 21.5724L11.3374 25.9478C8.38961 26.434 6.39415 29.2177 6.88036 32.1655L10.6105 54.7805C11.0967 57.7283 13.8805 59.7237 16.8282 59.2375L43.3551 54.8621C46.3028 54.3759 48.2983 51.5922 47.8121 48.6444L44.0819 26.0294C43.5957 23.0816 40.8119 21.0862 37.8642 21.5724Z" fill="#3BA5E0"/>
</g>
<path d="M28.8861 50.3993L26.9448 38.6297C26.4918 35.8833 26.2653 34.51 25.5629 33.5483C24.9451 32.7023 24.0782 32.0746 23.0866 31.7553C21.9595 31.3923 20.5991 31.6166 17.8788 32.0653L16.6646 32.2656C15.9844 32.3778 15.6445 32.4339 15.4068 32.6102C15.1978 32.7656 15.0429 32.9838 14.9644 33.2336C14.8754 33.5177 14.932 33.8609 15.0453 34.5475L17.2292 47.7884C17.3425 48.4751 17.3991 48.8182 17.5746 49.0586C17.7292 49.27 17.946 49.427 18.1938 49.507C18.4756 49.5976 18.8155 49.5416 19.4956 49.4294L23.0739 48.8392C23.73 48.731 24.0579 48.6769 24.3846 48.6816C24.6746 48.6859 24.9631 48.7244 25.2441 48.7967C25.5606 48.8782 25.8641 49.0167 26.4705 49.2941L28.8864 50.3989M26.9451 38.6293C26.4921 35.8829 26.2656 34.5096 26.6219 33.3733C26.9353 32.3737 27.5547 31.5008 28.3913 30.88C29.3421 30.1742 30.7024 29.9498 33.4227 29.5011L34.637 29.3008C35.3171 29.1886 35.657 29.1326 35.9388 29.2232C36.1866 29.3033 36.4034 29.4602 36.558 29.6716C36.7335 29.912 36.7901 30.2552 36.9034 30.9418L39.0873 44.1827C39.2006 44.8694 39.2572 45.2125 39.1682 45.4966C39.0897 45.7464 38.9352 45.9646 38.7258 46.12C38.4881 46.2964 38.1482 46.3524 37.468 46.4646L33.8898 47.0548C33.2337 47.163 32.9058 47.2171 32.5982 47.3264C32.325 47.4236 32.0641 47.5528 31.8212 47.7115C31.5476 47.8903 31.3047 48.1189 30.8195 48.5764L28.8864 50.3986" stroke="#48E580" stroke-width="3" stroke-linecap="round" stroke-linejoin="round"/>
<defs>
<filter id="filter0_d_1602_2" x="38.665" y="7.94336" width="58.6934" height="58.6929" filterUnits="userSpaceOnUse" color-interpolation-filters="sRGB">
<feFlood flood-opacity="0" result="BackgroundImageFix"/>
<feColorMatrix in="SourceAlpha" type="matrix" values="0 0 0 0 0 0 0 0 0 0 0 0 0 0 0 0 0 0 127 0" result="hardAlpha"/>
<feOffset dx="6" dy="6"/>
<feGaussianBlur stdDeviation="5"/>
<feColorMatrix type="matrix" values="0 0 0 0 0 0 0 0 0 0 0 0 0 0 0 0 0 0 0.65 0"/>
<feBlend mode="normal" in2="BackgroundImageFix" result="effect1_dropShadow_1602_2"/>
<feBlend mode="normal" in="SourceGraphic" in2="effect1_dropShadow_1602_2" result="shape"/>
</filter>
<filter id="filter1_d_1602_2" x="0.807617" y="15.4995" width="61.0771" height="57.811" filterUnits="userSpaceOnUse" color-interpolation-filters="sRGB">
<feFlood flood-opacity="0" result="BackgroundImageFix"/>
<feColorMatrix in="SourceAlpha" type="matrix" values="0 0 0 0 0 0 0 0 0 0 0 0 0 0 0 0 0 0 127 0" result="hardAlpha"/>
<feOffset dx="4" dy="4"/>
<feGaussianBlur stdDeviation="5"/>
<feColorMatrix type="matrix" values="0 0 0 0 0 0 0 0 0 0 0 0 0 0 0 0 0 0 0.65 0"/>
<feBlend mode="normal" in2="BackgroundImageFix" result="effect1_dropShadow_1602_2"/>
<feBlend mode="normal" in="SourceGraphic" in2="effect1_dropShadow_1602_2" result="shape"/>
</filter>
</defs>
</svg>
