<svg width="533" height="249" viewBox="0 0 533 249" fill="none" xmlns="http://www.w3.org/2000/svg">
<g filter="url(#filter0_d_974_2)">
<path d="M52.3852 229.018C81.317 239.095 112.94 223.81 123.017 194.878C133.094 165.946 117.81 134.323 88.8779 124.246C59.9461 114.169 28.323 129.454 18.2459 158.386C8.16871 187.317 23.4534 218.94 52.3852 229.018Z" fill="url(#paint0_linear_974_2)"/>
</g>
<path d="M73.4038 168.566L63.6728 148.433C62.9544 146.947 62.5953 146.204 62.0316 145.776C61.5364 145.4 60.9335 145.19 60.3114 145.177C59.6041 145.162 58.861 145.521 57.3747 146.239L55.2512 147.266C53.765 147.984 53.0219 148.343 52.5943 148.907C52.2174 149.403 52.0077 150.005 51.9951 150.627C51.98 151.335 52.3392 152.078 53.0576 153.564L62.7885 173.697M78.5345 179.181L88.265 199.313C88.9833 200.799 89.3425 201.542 89.3274 202.249C89.3149 202.871 89.1049 203.474 88.7282 203.97C88.3006 204.533 87.5575 204.892 86.0713 205.611L83.9481 206.636C82.4619 207.355 81.7187 207.714 81.0111 207.699C80.3885 207.686 79.7864 207.476 79.2909 207.1C78.7273 206.673 78.3681 205.93 77.65 204.443L67.9196 184.311M64.6217 158.92L67.9601 157.303M80.9476 192.698L84.2955 191.1M86.9495 162.022L92.0802 172.637M37.1272 193.047L37.5811 192.169C39.1883 189.06 39.9919 187.506 41.055 186.163C41.9989 184.972 43.0915 183.908 44.308 182.996C45.6778 181.97 47.2533 181.208 50.4044 179.685L94.1208 158.555C97.0524 157.139 100.577 158.367 101.994 161.297C103.41 164.228 102.182 167.754 99.2515 169.17L54.7335 190.688C51.8748 192.07 50.446 192.76 48.9447 193.183C47.6127 193.558 46.2404 193.775 44.8576 193.831C43.2993 193.893 41.7263 193.677 38.5812 193.247L37.128 193.048L37.1272 193.047Z" stroke="#8EFE00" stroke-width="5" stroke-linecap="round" stroke-linejoin="round"/>
<g filter="url(#filter1_d_974_2)">
<path d="M414.027 154.577C449.581 140.314 466.84 99.9291 452.577 64.3755C438.313 28.8219 397.929 11.5627 362.375 25.8259C326.822 40.089 309.563 80.4735 323.826 116.027C338.089 151.581 378.473 168.84 414.027 154.577Z" fill="url(#paint1_linear_974_2)"/>
</g>
<path d="M418.503 66.7466L377.436 63.3656L350.09 94.1922L369.543 95.7939M369.543 95.7939L374.978 115.369C375.666 117.845 377.824 119.63 380.386 119.841C393.214 120.897 405.791 115.851 414.333 106.222C416.039 104.3 416.364 101.518 415.15 99.2528L405.55 81.3488M369.543 95.7939L391.158 97.5731L405.55 81.3488M418.502 66.747L405.55 81.3488M418.502 66.747L429.48 94.1125M418.502 66.747L384.296 80.4696" stroke="#EDEDED" stroke-width="6" stroke-linecap="round" stroke-linejoin="round"/>
<g filter="url(#filter2_d_974_2)">
<path d="M200.266 95.5804L187.873 85.419C187.272 84.926 186.389 84.9738 185.851 85.5372L174.745 97.09C173.809 98.0647 172.156 97.3891 172.176 96.0386L172.392 80.014C172.401 79.2364 171.813 78.5799 171.036 78.5068L155.08 77.0275C153.732 76.8986 153.235 75.1886 154.305 74.3619L166.967 64.5427C167.581 64.0671 167.728 63.192 167.299 62.543L158.507 49.1488C157.763 48.0165 158.79 46.5613 160.108 46.8807L175.682 50.659C176.438 50.8409 177.21 50.4092 177.455 49.6722L182.451 34.4433C182.874 33.1592 184.655 33.0503 185.224 34.2795L191.975 48.8103C192.304 49.5213 193.121 49.8498 193.854 49.581L208.873 43.9935C210.141 43.5206 211.332 44.8474 210.732 46.0601L203.583 60.3995C203.234 61.0937 203.483 61.9442 204.149 62.3473L217.886 70.6046C219.047 71.2986 218.756 73.0627 217.427 73.3435L201.752 76.6952C200.99 76.8589 200.481 77.5819 200.581 78.3524L202.687 94.2368C202.863 95.5772 201.305 96.4452 200.261 95.5849L200.266 95.5804Z" fill="#48E580"/>
</g>
<g filter="url(#filter3_d_974_2)">
<path d="M246.225 197.315L243.306 186.244C243.165 185.707 242.634 185.365 242.087 185.466L230.821 187.503C229.87 187.675 229.197 186.592 229.774 185.818L236.609 176.633C236.94 176.187 236.874 175.56 236.455 175.193L227.838 167.655C227.112 167.016 227.54 165.818 228.506 165.788L239.947 165.406C240.501 165.388 240.953 164.943 240.976 164.387L241.496 152.953C241.539 151.986 242.743 151.574 243.372 152.31L250.805 161.019C251.166 161.441 251.794 161.514 252.244 161.19L261.513 154.467C262.296 153.901 263.372 154.583 263.186 155.533L261.01 166.771C260.903 167.32 261.238 167.852 261.775 168.004L272.808 171.058C273.74 171.316 273.874 172.582 273.019 173.033L262.877 178.34C262.384 178.595 262.172 179.192 262.388 179.704L266.882 190.236C267.264 191.124 266.357 192.023 265.47 191.629L254.993 187.006C254.483 186.781 253.886 186.987 253.621 187.474L248.189 197.551C247.73 198.401 246.465 198.251 246.221 197.316L246.225 197.315Z" fill="#7039C7"/>
</g>
<g filter="url(#filter4_d_974_2)">
<path d="M519.582 205.957L505.278 214.922C504.514 215.4 504.035 216.225 503.994 217.122L503.27 233.994C503.173 236.258 500.52 237.425 498.782 235.97L485.837 225.133C485.145 224.551 484.217 224.354 483.35 224.596L467.087 229.115C464.904 229.722 462.968 227.56 463.818 225.458L470.12 209.796C470.454 208.959 470.36 208.016 469.865 207.261L460.538 193.187C459.285 191.301 460.744 188.796 463.007 188.951L479.85 190.111C480.749 190.174 481.621 189.787 482.183 189.082L492.685 175.863C494.091 174.09 496.925 174.703 497.476 176.9L501.58 193.274C501.797 194.149 502.431 194.855 503.281 195.17L519.1 201.074C521.225 201.87 521.516 204.747 519.598 205.954L519.582 205.957Z" fill="#EDEDED"/>
</g>
<defs>
<filter id="filter0_d_974_2" x="11.1445" y="117.144" width="130.975" height="130.975" filterUnits="userSpaceOnUse" color-interpolation-filters="sRGB">
<feFlood flood-opacity="0" result="BackgroundImageFix"/>
<feColorMatrix in="SourceAlpha" type="matrix" values="0 0 0 0 0 0 0 0 0 0 0 0 0 0 0 0 0 0 127 0" result="hardAlpha"/>
<feOffset dx="6" dy="6"/>
<feGaussianBlur stdDeviation="5"/>
<feColorMatrix type="matrix" values="0 0 0 0 0 0 0 0 0 0 0 0 0 0 0 0 0 0 0.65 0"/>
<feBlend mode="normal" in2="BackgroundImageFix" result="effect1_dropShadow_974_2"/>
<feBlend mode="normal" in="SourceGraphic" in2="effect1_dropShadow_974_2" result="shape"/>
</filter>
<filter id="filter1_d_974_2" x="315.48" y="17.4803" width="155.442" height="155.442" filterUnits="userSpaceOnUse" color-interpolation-filters="sRGB">
<feFlood flood-opacity="0" result="BackgroundImageFix"/>
<feColorMatrix in="SourceAlpha" type="matrix" values="0 0 0 0 0 0 0 0 0 0 0 0 0 0 0 0 0 0 127 0" result="hardAlpha"/>
<feOffset dx="5" dy="5"/>
<feGaussianBlur stdDeviation="4.17"/>
<feColorMatrix type="matrix" values="0 0 0 0 0 0 0 0 0 0 0 0 0 0 0 0 0 0 0.65 0"/>
<feBlend mode="normal" in2="BackgroundImageFix" result="effect1_dropShadow_974_2"/>
<feBlend mode="normal" in="SourceGraphic" in2="effect1_dropShadow_974_2" result="shape"/>
</filter>
<filter id="filter2_d_974_2" x="147.725" y="27.4163" width="84.8867" height="84.1346" filterUnits="userSpaceOnUse" color-interpolation-filters="sRGB">
<feFlood flood-opacity="0" result="BackgroundImageFix"/>
<feColorMatrix in="SourceAlpha" type="matrix" values="0 0 0 0 0 0 0 0 0 0 0 0 0 0 0 0 0 0 127 0" result="hardAlpha"/>
<feOffset dx="4" dy="4"/>
<feGaussianBlur stdDeviation="5"/>
<feColorMatrix type="matrix" values="0 0 0 0 0 0 0 0 0 0 0 0 0 0 0 0 0 0 0.65 0"/>
<feBlend mode="normal" in2="BackgroundImageFix" result="effect1_dropShadow_974_2"/>
<feBlend mode="normal" in="SourceGraphic" in2="effect1_dropShadow_974_2" result="shape"/>
</filter>
<filter id="filter3_d_974_2" x="221.473" y="145.934" width="66.1172" height="66.1768" filterUnits="userSpaceOnUse" color-interpolation-filters="sRGB">
<feFlood flood-opacity="0" result="BackgroundImageFix"/>
<feColorMatrix in="SourceAlpha" type="matrix" values="0 0 0 0 0 0 0 0 0 0 0 0 0 0 0 0 0 0 127 0" result="hardAlpha"/>
<feOffset dx="4" dy="4"/>
<feGaussianBlur stdDeviation="5"/>
<feColorMatrix type="matrix" values="0 0 0 0 0 0 0 0 0 0 0 0 0 0 0 0 0 0 0.65 0"/>
<feBlend mode="normal" in2="BackgroundImageFix" result="effect1_dropShadow_974_2"/>
<feBlend mode="normal" in="SourceGraphic" in2="effect1_dropShadow_974_2" result="shape"/>
</filter>
<filter id="filter4_d_974_2" x="455.076" y="169.829" width="77.4827" height="78.4638" filterUnits="userSpaceOnUse" color-interpolation-filters="sRGB">
<feFlood flood-opacity="0" result="BackgroundImageFix"/>
<feColorMatrix in="SourceAlpha" type="matrix" values="0 0 0 0 0 0 0 0 0 0 0 0 0 0 0 0 0 0 127 0" result="hardAlpha"/>
<feOffset dx="3.34" dy="3.34"/>
<feGaussianBlur stdDeviation="4.17"/>
<feColorMatrix type="matrix" values="0 0 0 0 0 0 0 0 0 0 0 0 0 0 0 0 0 0 0.65 0"/>
<feBlend mode="normal" in2="BackgroundImageFix" result="effect1_dropShadow_974_2"/>
<feBlend mode="normal" in="SourceGraphic" in2="effect1_dropShadow_974_2" result="shape"/>
</filter>
<linearGradient id="paint0_linear_974_2" x1="88.8778" y1="124.246" x2="52.3852" y2="229.018" gradientUnits="userSpaceOnUse">
<stop stop-color="#213E72"/>
<stop offset="1" stop-color="#1B81C4"/>
</linearGradient>
<linearGradient id="paint1_linear_974_2" x1="362.375" y1="25.8258" x2="414.027" y2="154.577" gradientUnits="userSpaceOnUse">
<stop stop-color="#1B81C4"/>
<stop offset="1" stop-color="#FF0098"/>
</linearGradient>
</defs>
</svg>
