<svg width="61" height="60" viewBox="0 0 61 60" fill="none" xmlns="http://www.w3.org/2000/svg">
<g filter="url(#filter0_d_284_51)">
<circle cx="29.2627" cy="29.0001" r="24" fill="#29A9FF"/>
</g>
<path d="M22.3855 29.0008H20.6824C20.0011 29.0008 19.6607 29.0008 19.4005 29.1282C19.1717 29.2405 18.9856 29.4191 18.8688 29.6394C18.7363 29.8896 18.7363 30.217 18.7363 30.8721V34.1468C18.7363 34.8019 18.7363 35.1293 18.8688 35.3794C18.9856 35.5994 19.1717 35.7784 19.4005 35.8907C19.6607 36.018 20.0011 36.018 20.6824 36.018H22.3855M36.9819 29.0005H38.685C39.3663 29.0005 39.7067 29.0005 39.9669 29.1279C40.1957 29.2401 40.3818 29.4187 40.4986 29.6391C40.6311 29.8893 40.6311 30.2166 40.6311 30.8717V34.1464C40.6311 34.8015 40.6311 35.1289 40.4986 35.3791C40.3818 35.5991 40.1961 35.778 39.9669 35.8903C39.7067 36.0177 39.3663 36.0177 38.685 36.0177H36.9819M33.3328 21.9826C33.3328 20.0447 31.6991 18.4738 29.6837 18.4738C27.6683 18.4738 26.0346 20.0447 26.0346 21.9826M27.2508 29.0001H32.1162M28.2237 39.5264H31.143C33.1869 39.5264 34.2086 39.5264 34.9892 39.144C35.6759 38.8075 36.2339 38.271 36.5838 37.6107C36.9816 36.8601 36.9816 35.8777 36.9816 33.9124V27.5966C36.9816 25.6314 36.9816 24.6489 36.5838 23.8984C36.2339 23.238 35.6759 22.7015 34.9892 22.365C34.2086 21.9826 33.1869 21.9826 31.143 21.9826H28.2237C26.1798 21.9826 25.1581 21.9826 24.3775 22.365C23.6907 22.7015 23.1328 23.2384 22.7828 23.8984C22.3851 24.6489 22.3851 25.6314 22.3851 27.5966V33.9124C22.3851 35.8777 22.3851 36.8601 22.7828 37.6107C23.1328 38.271 23.6911 38.8075 24.3775 39.144C25.1581 39.5264 26.1798 39.5264 28.2237 39.5264Z" stroke="#1D1B22" stroke-width="2.5" stroke-linecap="round" stroke-linejoin="round"/>
<defs>
<filter id="filter0_d_284_51" x="0.262695" y="0.00012207" width="60" height="60" filterUnits="userSpaceOnUse" color-interpolation-filters="sRGB">
<feFlood flood-opacity="0" result="BackgroundImageFix"/>
<feColorMatrix in="SourceAlpha" type="matrix" values="0 0 0 0 0 0 0 0 0 0 0 0 0 0 0 0 0 0 127 0" result="hardAlpha"/>
<feOffset dx="1" dy="1"/>
<feGaussianBlur stdDeviation="3"/>
<feComposite in2="hardAlpha" operator="out"/>
<feColorMatrix type="matrix" values="0 0 0 0 0 0 0 0 0 0 0 0 0 0 0 0 0 0 0.65 0"/>
<feBlend mode="normal" in2="BackgroundImageFix" result="effect1_dropShadow_284_51"/>
<feBlend mode="normal" in="SourceGraphic" in2="effect1_dropShadow_284_51" result="shape"/>
</filter>
</defs>
</svg>
