<svg width="283" height="212" viewBox="0 0 283 212" fill="none" xmlns="http://www.w3.org/2000/svg">
<g filter="url(#filter0_d_374_2)">
<circle cx="186.775" cy="111.28" r="75.3804" transform="rotate(-18.9511 186.775 111.28)" fill="#213E72"/>
</g>
<path d="M146.476 112.009L173.576 102.704M173.576 102.704L221.522 86.2408M173.576 102.704L187.712 76.0023M187.712 76.0023L201.47 71.278C205.834 69.7796 208.159 68.9812 210.139 69.0787M187.712 76.0023L153.107 87.8846C148.437 89.4883 146.102 90.2901 144.611 91.755C143.3 93.0428 142.435 94.677 142.14 96.4218C141.805 98.4062 142.557 100.595 144.06 104.974L156.945 142.497C158.448 146.875 159.2 149.064 160.683 150.424C161.987 151.62 163.674 152.378 165.5 152.589C167.576 152.829 169.911 152.027 174.581 150.424L222.945 133.817C227.615 132.213 229.95 131.412 231.441 129.947C232.752 128.659 233.617 127.025 233.911 125.28C234.247 123.295 233.495 121.106 231.991 116.728L219.107 79.2048C217.604 74.8264 216.852 72.6371 215.368 71.2773C214.064 70.0813 212.378 69.3233 210.552 69.1126C210.416 69.0962 210.279 69.0859 210.14 69.0783L196.508 94.8299M164.782 83.8759L150.646 110.578M203.889 116.327L187.069 135.211L179.016 111.759L203.889 116.327Z" stroke="#48E580" stroke-width="6" stroke-linejoin="round"/>
<g filter="url(#filter1_d_374_2)">
<circle cx="64.6205" cy="141.621" r="53.5" transform="rotate(13.6589 64.6205 141.621)" fill="#7039C7"/>
</g>
<path d="M78.2624 158.351L76.7848 164.432C76.4399 165.851 76.2676 166.56 75.849 167.032C75.4802 167.447 74.9837 167.737 74.4282 167.86C73.7976 167.999 73.0601 167.819 71.5844 167.461L48.3987 161.826C46.9229 161.468 46.1854 161.288 45.6889 160.876C45.2524 160.512 44.9433 160.027 44.8064 159.488C44.6511 158.877 44.8235 158.168 45.1683 156.749L46.6459 150.668M66.7642 136.776L66.7903 136.782M77.303 139.337C75.9429 144.934 70.1215 148.324 64.3016 146.909C58.4816 145.495 54.8654 139.811 56.2254 134.215C57.5853 128.619 63.4069 125.228 69.2268 126.642C75.0468 128.056 78.663 133.741 77.303 139.337ZM68.081 137.096C67.9111 137.795 67.1835 138.22 66.4555 138.043C65.7275 137.866 65.2756 137.155 65.4457 136.455C65.6158 135.755 66.3433 135.332 67.0713 135.509C67.7993 135.686 68.2511 136.396 68.081 137.096ZM47.1723 150.796L77.736 158.224C80.6874 158.941 82.1632 159.299 83.4246 159.021C84.5338 158.776 85.5285 158.197 86.2652 157.366C87.1032 156.422 87.448 155.003 88.1377 152.165L92.8167 132.911C93.5064 130.073 93.8513 128.654 93.54 127.43C93.2665 126.355 92.6487 125.383 91.7755 124.657C90.7826 123.83 89.3069 123.472 86.3554 122.755L55.7918 115.327C52.8403 114.61 51.3646 114.251 50.1032 114.53C48.9939 114.775 47.9993 115.354 47.2626 116.184C46.4246 117.129 46.0797 118.548 45.3901 121.386L40.711 140.64C40.0213 143.478 39.6765 144.897 39.9878 146.12C40.2612 147.196 40.8791 148.167 41.7523 148.894C42.7451 149.72 44.2209 150.079 47.1723 150.796Z" stroke="#A9E846" stroke-width="5" stroke-linecap="round" stroke-linejoin="round"/>
<g filter="url(#filter2_d_374_2)">
<circle cx="100.14" cy="56.1397" r="51.5573" transform="rotate(-5.34974 100.14 56.1397)" fill="#32352F"/>
</g>
<path d="M85.4304 57.5186L81.7878 57.8597C80.3307 57.9962 79.6025 58.0644 79.0715 58.3889C78.6046 58.6749 78.2423 59.0942 78.0367 59.5888C77.8035 60.1505 77.869 60.8507 78.0002 62.2518L78.6561 69.256C78.7873 70.6572 78.8529 71.3574 79.1863 71.8659C79.4802 72.3131 79.9141 72.6586 80.4259 72.8529C81.0079 73.0732 81.7361 73.005 83.1933 72.8685L86.8359 72.5274M116.65 54.5943L120.293 54.2532C121.75 54.1168 122.478 54.0486 123.06 54.2689C123.572 54.4632 124.006 54.808 124.3 55.2559C124.633 55.7644 124.699 56.4646 124.83 57.8658L125.486 64.87C125.617 66.2711 125.683 66.9713 125.449 67.5329C125.244 68.0269 124.882 68.4468 124.415 68.7329C123.884 69.0574 123.156 69.1256 121.698 69.2621L118.056 69.6032M107.44 40.3149C107.052 36.17 103.243 33.1373 98.9319 33.541C94.6212 33.9447 91.4416 37.6318 91.8297 41.7767M95.8367 56.5426L106.243 55.5682M100.026 78.8621L106.27 78.2774C110.641 77.8681 112.827 77.6634 114.42 76.6891C115.821 75.8318 116.907 74.5726 117.523 73.0901C118.224 71.4051 118.027 69.3038 117.633 65.1004L116.368 51.5918C115.975 47.3883 115.778 45.287 114.777 43.7614C113.896 42.4191 112.595 41.3833 111.059 40.8012C109.313 40.1395 107.127 40.3441 102.756 40.7535L96.5119 41.3382C92.1404 41.7476 89.955 41.9522 88.3621 42.9266C86.9606 43.7838 85.8747 45.0438 85.2584 46.5256C84.558 48.2105 84.7548 50.3118 85.1484 54.5153L86.4134 68.0239C86.807 72.2273 87.0038 74.3287 88.0048 75.8543C88.8856 77.1966 90.1872 78.2322 91.7227 78.8145C93.4688 79.4762 95.6542 79.2715 100.026 78.8621Z" stroke="#8EFE00" stroke-width="4" stroke-linecap="round" stroke-linejoin="round"/>
<defs>
<filter id="filter0_d_374_2" x="107.374" y="31.8794" width="170.802" height="170.802" filterUnits="userSpaceOnUse" color-interpolation-filters="sRGB">
<feFlood flood-opacity="0" result="BackgroundImageFix"/>
<feColorMatrix in="SourceAlpha" type="matrix" values="0 0 0 0 0 0 0 0 0 0 0 0 0 0 0 0 0 0 127 0" result="hardAlpha"/>
<feOffset dx="6" dy="6"/>
<feGaussianBlur stdDeviation="5"/>
<feComposite in2="hardAlpha" operator="out"/>
<feColorMatrix type="matrix" values="0 0 0 0 0 0 0 0 0 0 0 0 0 0 0 0 0 0 0.65 0"/>
<feBlend mode="normal" in2="BackgroundImageFix" result="effect1_dropShadow_374_2"/>
<feBlend mode="normal" in="SourceGraphic" in2="effect1_dropShadow_374_2" result="shape"/>
</filter>
<filter id="filter1_d_374_2" x="7.10815" y="84.1082" width="127.025" height="127.025" filterUnits="userSpaceOnUse" color-interpolation-filters="sRGB">
<feFlood flood-opacity="0" result="BackgroundImageFix"/>
<feColorMatrix in="SourceAlpha" type="matrix" values="0 0 0 0 0 0 0 0 0 0 0 0 0 0 0 0 0 0 127 0" result="hardAlpha"/>
<feOffset dx="6" dy="6"/>
<feGaussianBlur stdDeviation="5"/>
<feComposite in2="hardAlpha" operator="out"/>
<feColorMatrix type="matrix" values="0 0 0 0 0 0 0 0 0 0 0 0 0 0 0 0 0 0 0.65 0"/>
<feBlend mode="normal" in2="BackgroundImageFix" result="effect1_dropShadow_374_2"/>
<feBlend mode="normal" in="SourceGraphic" in2="effect1_dropShadow_374_2" result="shape"/>
</filter>
<filter id="filter2_d_374_2" x="44.5789" y="0.578857" width="123.122" height="123.122" filterUnits="userSpaceOnUse" color-interpolation-filters="sRGB">
<feFlood flood-opacity="0" result="BackgroundImageFix"/>
<feColorMatrix in="SourceAlpha" type="matrix" values="0 0 0 0 0 0 0 0 0 0 0 0 0 0 0 0 0 0 127 0" result="hardAlpha"/>
<feOffset dx="6" dy="6"/>
<feGaussianBlur stdDeviation="5"/>
<feComposite in2="hardAlpha" operator="out"/>
<feColorMatrix type="matrix" values="0 0 0 0 0 0 0 0 0 0 0 0 0 0 0 0 0 0 0.65 0"/>
<feBlend mode="normal" in2="BackgroundImageFix" result="effect1_dropShadow_374_2"/>
<feBlend mode="normal" in="SourceGraphic" in2="effect1_dropShadow_374_2" result="shape"/>
</filter>
</defs>
</svg>
