<svg width="60" height="60" viewBox="0 0 60 60" fill="none" xmlns="http://www.w3.org/2000/svg">
<g filter="url(#filter0_d_284_45)">
<circle cx="29" cy="29.0001" r="24" fill="#29A9FF"/>
</g>
<path d="M16.7894 25.0528H25.9122M25.9122 25.0528H42.0522M25.9122 25.0528L32.9298 18.4738M32.9298 18.4738H37.5613C39.0303 18.4738 39.813 18.4738 40.3991 18.7079M32.9298 18.4738H21.2807C19.7085 18.4738 18.9224 18.4738 18.322 18.7608C17.794 19.013 17.3646 19.4156 17.0955 19.9106C16.7894 20.4735 16.7894 21.2105 16.7894 22.6844V35.3158C16.7894 36.7898 16.7894 37.5267 17.0955 38.0896C17.3646 38.5846 17.794 38.9872 18.322 39.2395C18.9224 39.5264 19.7085 39.5264 21.2807 39.5264H37.5613C39.1335 39.5264 39.9196 39.5264 40.52 39.2395C41.048 38.9872 41.4774 38.5846 41.7465 38.0896C42.0526 37.5267 42.0526 36.7898 42.0526 35.3158V22.6844C42.0526 21.2105 42.0526 20.4735 41.7465 19.9106C41.4774 19.4156 41.048 19.013 40.52 18.7608C40.4808 18.7418 40.4404 18.7245 40.3996 18.7079L33.6317 25.0528M25.2108 18.4738L18.1932 25.0528M33.6317 32.2894L26.6141 36.2368V28.3421L33.6317 32.2894Z" stroke="#1D1B22" stroke-width="2.5" stroke-linejoin="round"/>
<defs>
<filter id="filter0_d_284_45" x="0" y="0.00012207" width="60" height="60" filterUnits="userSpaceOnUse" color-interpolation-filters="sRGB">
<feFlood flood-opacity="0" result="BackgroundImageFix"/>
<feColorMatrix in="SourceAlpha" type="matrix" values="0 0 0 0 0 0 0 0 0 0 0 0 0 0 0 0 0 0 127 0" result="hardAlpha"/>
<feOffset dx="1" dy="1"/>
<feGaussianBlur stdDeviation="3"/>
<feComposite in2="hardAlpha" operator="out"/>
<feColorMatrix type="matrix" values="0 0 0 0 0 0 0 0 0 0 0 0 0 0 0 0 0 0 0.65 0"/>
<feBlend mode="normal" in2="BackgroundImageFix" result="effect1_dropShadow_284_45"/>
<feBlend mode="normal" in="SourceGraphic" in2="effect1_dropShadow_284_45" result="shape"/>
</filter>
</defs>
</svg>
