<svg width="60" height="60" viewBox="0 0 60 60" fill="none" xmlns="http://www.w3.org/2000/svg">
<g filter="url(#filter0_d_284_48)">
<circle cx="29" cy="29.0001" r="24" fill="#29A9FF"/>
</g>
<path d="M36.7189 34.8482V37.6552C36.7189 38.3103 36.7189 38.6377 36.5865 38.8879C36.4697 39.1079 36.284 39.2868 36.0548 39.3991C35.7946 39.5264 35.4542 39.5264 34.7729 39.5264H24.0691C23.3878 39.5264 23.0474 39.5264 22.7872 39.3991C22.5584 39.2868 22.3723 39.1082 22.2555 38.8879C22.1231 38.6377 22.1231 38.3103 22.1231 37.6552V34.8482M29.4212 26.6612H29.4332M34.2865 26.6612C34.2865 29.245 32.108 31.3394 29.4212 31.3394C26.7344 31.3394 24.5559 29.2447 24.5559 26.6612C24.5559 24.0777 26.7344 21.9829 29.4212 21.9829C32.108 21.9829 34.2865 24.0777 34.2865 26.6612ZM30.0291 26.6612C30.0291 26.984 29.7569 27.2461 29.4208 27.2461C29.0847 27.2461 28.8125 26.9843 28.8125 26.6612C28.8125 26.338 29.0847 26.0763 29.4208 26.0763C29.7569 26.0763 30.0291 26.338 30.0291 26.6612ZM22.3661 34.8482H36.4759C37.8385 34.8482 38.5198 34.8482 39.0401 34.5931C39.4977 34.3689 39.8699 34.011 40.1031 33.571C40.3684 33.0707 40.3684 32.4156 40.3684 31.1054V22.2166C40.3684 20.9064 40.3684 20.2514 40.1031 19.751C39.8699 19.311 39.4977 18.9531 39.0401 18.7289C38.5198 18.4738 37.8385 18.4738 36.4759 18.4738H22.3661C21.0035 18.4738 20.3222 18.4738 19.8019 18.7289C19.3443 18.9531 18.9721 19.311 18.7389 19.751C18.4736 20.2514 18.4736 20.9064 18.4736 22.2166V31.1054C18.4736 32.4156 18.4736 33.0707 18.7389 33.571C18.9721 34.011 19.3443 34.3689 19.8019 34.5931C20.3222 34.8482 21.0035 34.8482 22.3661 34.8482Z" stroke="#1D1B22" stroke-width="2.5" stroke-linecap="round" stroke-linejoin="round"/>
<defs>
<filter id="filter0_d_284_48" x="0" y="0.00012207" width="60" height="60" filterUnits="userSpaceOnUse" color-interpolation-filters="sRGB">
<feFlood flood-opacity="0" result="BackgroundImageFix"/>
<feColorMatrix in="SourceAlpha" type="matrix" values="0 0 0 0 0 0 0 0 0 0 0 0 0 0 0 0 0 0 127 0" result="hardAlpha"/>
<feOffset dx="1" dy="1"/>
<feGaussianBlur stdDeviation="3"/>
<feComposite in2="hardAlpha" operator="out"/>
<feColorMatrix type="matrix" values="0 0 0 0 0 0 0 0 0 0 0 0 0 0 0 0 0 0 0.65 0"/>
<feBlend mode="normal" in2="BackgroundImageFix" result="effect1_dropShadow_284_48"/>
<feBlend mode="normal" in="SourceGraphic" in2="effect1_dropShadow_284_48" result="shape"/>
</filter>
</defs>
</svg>
