<svg width="117" height="116" viewBox="0 0 117 116" fill="none" xmlns="http://www.w3.org/2000/svg">
<path d="M113.148 57.6708C113.148 87.845 88.5104 112.342 58.0741 112.342C27.6378 112.342 3 87.845 3 57.6708C3 27.4966 27.6378 3 58.0741 3C88.5104 3 113.148 27.4966 113.148 57.6708Z" stroke="#EDEDED" stroke-width="6"/>
<path d="M30 47.6664H85.9991M48.6664 66.3327L54.8888 72.5551L67.3327 60.1112M42.4449 29V35.2224M73.5551 29V35.2224M39.9557 84.9991H76.0443C79.5293 84.9991 81.2718 84.9991 82.6027 84.3205C83.7731 83.7242 84.7251 82.7722 85.3215 81.6018C86 80.2709 86 78.5284 86 75.0434V45.1781C86 41.6931 86 39.9506 85.3215 38.6197C84.7251 37.4493 83.7731 36.4973 82.6027 35.901C81.2718 35.2224 79.5293 35.2224 76.0443 35.2224H39.9557C36.4707 35.2224 34.7282 35.2224 33.3973 35.901C32.2269 36.4973 31.2749 37.4493 30.6785 38.6197C30 39.9506 30 41.6931 30 45.1781V75.0443C30 78.5293 30 80.2718 30.6785 81.6027C31.2749 82.7731 32.2269 83.7251 33.3973 84.3215C34.7282 85 36.4707 85 39.9557 85V84.9991Z" stroke="#EDEDED" stroke-width="6" stroke-linecap="round" stroke-linejoin="round"/>
</svg>
