<svg width="39" height="39" viewBox="0 0 39 39" fill="none" xmlns="http://www.w3.org/2000/svg">
<g filter="url(#filter0_d_80_58)">
<path d="M17.4607 32.9824C25.814 32.9824 32.5857 26.2107 32.5857 17.8574C32.5857 9.50412 25.814 2.73242 17.4607 2.73242C9.10739 2.73242 2.33569 9.50412 2.33569 17.8574C2.33569 26.2107 9.10739 32.9824 17.4607 32.9824Z" fill="#29A9FF"/>
</g>
<path d="M20.6876 10.1648H14.2413C11.4411 10.1648 9.77185 11.834 9.77185 14.6343V21.073C9.77185 23.8808 11.4411 25.55 14.2413 25.55H20.68C23.48 25.55 25.1495 23.8808 25.1495 21.0806V14.6343C25.1571 11.834 23.4877 10.1648 20.6876 10.1648ZM17.4644 20.8422C15.8182 20.8422 14.4797 19.5037 14.4797 17.8575C14.4797 16.2114 15.8182 14.8729 17.4644 14.8729C19.1105 14.8729 20.449 16.2114 20.449 17.8575C20.449 19.5037 19.1105 20.8422 17.4644 20.8422ZM22.0183 13.9189C21.9798 14.0112 21.926 14.0959 21.8568 14.1727C21.7799 14.2419 21.6952 14.2957 21.6029 14.3343C21.5106 14.3728 21.4107 14.3959 21.3105 14.3959C21.1028 14.3959 20.9106 14.319 20.7643 14.1727C20.695 14.0959 20.6412 14.0112 20.6027 13.9189C20.5642 13.8265 20.5411 13.7266 20.5411 13.6265C20.5411 13.5263 20.5642 13.4264 20.6027 13.3341C20.6412 13.2341 20.695 13.1571 20.7643 13.0802C20.9413 12.9032 21.2103 12.8187 21.4566 12.8725C21.5104 12.8801 21.5565 12.8956 21.6027 12.9187C21.6488 12.9341 21.695 12.9572 21.7411 12.9879C21.7797 13.011 21.818 13.0495 21.8565 13.0802C21.9258 13.1571 21.9795 13.2341 22.0181 13.3341C22.0566 13.4264 22.0797 13.5263 22.0797 13.6265C22.0797 13.7266 22.0566 13.8265 22.0181 13.9189H22.0183Z" fill="#1D1B22"/>
<defs>
<filter id="filter0_d_80_58" x="0.335693" y="0.732422" width="38.25" height="38.25" filterUnits="userSpaceOnUse" color-interpolation-filters="sRGB">
<feFlood flood-opacity="0" result="BackgroundImageFix"/>
<feColorMatrix in="SourceAlpha" type="matrix" values="0 0 0 0 0 0 0 0 0 0 0 0 0 0 0 0 0 0 127 0" result="hardAlpha"/>
<feOffset dx="2" dy="2"/>
<feGaussianBlur stdDeviation="2"/>
<feColorMatrix type="matrix" values="0 0 0 0 0.0708333 0 0 0 0 0.0708333 0 0 0 0 0.0708333 0 0 0 0.65 0"/>
<feBlend mode="normal" in2="BackgroundImageFix" result="effect1_dropShadow_80_58"/>
<feBlend mode="normal" in="SourceGraphic" in2="effect1_dropShadow_80_58" result="shape"/>
</filter>
</defs>
</svg>
