<svg width="212" height="158" viewBox="0 0 212 158" fill="none" xmlns="http://www.w3.org/2000/svg">
<g filter="url(#filter0_d_884_3)">
<path d="M145.737 127.253C177.778 121.067 198.738 90.0787 192.553 58.0378C186.367 25.9968 155.379 5.03667 123.338 11.222C91.2966 17.4074 70.3365 48.396 76.5219 80.4369C82.7072 112.478 113.696 133.438 145.737 127.253Z" fill="white"/>
</g>
<path d="M109.288 49.1398C108.37 49.317 107.912 49.4055 107.52 49.5132C102.913 50.7784 99.743 55.0033 99.8108 59.7881C99.8164 60.1937 99.8596 60.6605 99.9444 61.5924L101.993 84.7612M129.662 80.8807L143.396 78.2294M129.662 80.8807C131.128 88.4787 126.169 95.8243 118.583 97.2886C110.998 98.753 103.66 93.7802 102.193 86.1833C100.727 78.5863 105.687 71.2395 113.272 69.7753C120.856 68.3112 128.195 73.2837 129.662 80.8807ZM143.396 78.2294C144.862 85.8274 152.201 90.7989 159.786 89.3345C167.372 87.8702 172.331 80.5236 170.865 72.9266C169.398 65.3297 162.059 60.3571 154.475 61.8213C146.89 63.2854 141.929 70.6324 143.396 78.2294ZM150.543 41.1758C151.461 40.9987 151.919 40.9102 152.323 40.8644C157.07 40.3235 161.585 43.0651 163.303 47.5312C163.449 47.9098 163.582 48.3591 163.85 49.2556L170.533 71.5704" stroke="#213E72" stroke-width="8" stroke-linecap="round" stroke-linejoin="round"/>
<g filter="url(#filter1_d_884_3)">
<path d="M92.3545 91.3508L77.5721 104.248C76.8546 104.878 76.736 105.948 77.3041 106.716L88.995 122.469C89.9852 123.797 88.8325 125.657 87.2013 125.354L67.9013 121.84C66.9637 121.669 66.0514 122.251 65.8094 123.173L60.7829 142.143C60.3602 143.749 58.1929 143.998 57.404 142.545L48.1171 125.259C47.6705 124.417 46.6476 124.069 45.7727 124.453L27.812 132.35C26.296 133.021 24.7407 131.484 25.3943 129.961L33.1169 111.922C33.4903 111.047 33.1275 110.027 32.2854 109.582L14.9143 100.463C13.4444 99.6915 13.6844 97.5229 15.2764 97.0794L34.1933 91.8743C35.1101 91.6197 35.6832 90.7006 35.5023 89.7715L31.8034 70.5012C31.4929 68.8743 33.3315 67.7027 34.6759 68.6742L50.5415 80.2147C51.3124 80.7773 52.3873 80.6528 53.0072 79.9227L65.7616 65.0176C66.8408 63.7587 68.9009 64.4663 68.9798 66.127L69.8511 85.7298C69.8916 86.6799 70.6602 87.4398 71.6157 87.4766L91.2206 88.1551C92.8811 88.2102 93.607 90.2674 92.3582 91.3578L92.3545 91.3508Z" fill="#7039C7"/>
</g>
<defs>
<filter id="filter0_d_884_3" x="70.9497" y="5.64989" width="140.635" height="140.635" filterUnits="userSpaceOnUse" color-interpolation-filters="sRGB">
<feFlood flood-opacity="0" result="BackgroundImageFix"/>
<feColorMatrix in="SourceAlpha" type="matrix" values="0 0 0 0 0 0 0 0 0 0 0 0 0 0 0 0 0 0 127 0" result="hardAlpha"/>
<feOffset dx="6.73" dy="6.73"/>
<feGaussianBlur stdDeviation="5.61"/>
<feColorMatrix type="matrix" values="0 0 0 0 0 0 0 0 0 0 0 0 0 0 0 0 0 0 0.65 0"/>
<feBlend mode="normal" in2="BackgroundImageFix" result="effect1_dropShadow_884_3"/>
<feBlend mode="normal" in="SourceGraphic" in2="effect1_dropShadow_884_3" result="shape"/>
</filter>
<filter id="filter1_d_884_3" x="7.93604" y="58.375" width="99.0522" height="99.1292" filterUnits="userSpaceOnUse" color-interpolation-filters="sRGB">
<feFlood flood-opacity="0" result="BackgroundImageFix"/>
<feColorMatrix in="SourceAlpha" type="matrix" values="0 0 0 0 0 0 0 0 0 0 0 0 0 0 0 0 0 0 127 0" result="hardAlpha"/>
<feOffset dx="4" dy="4"/>
<feGaussianBlur stdDeviation="5"/>
<feColorMatrix type="matrix" values="0 0 0 0 0 0 0 0 0 0 0 0 0 0 0 0 0 0 0.65 0"/>
<feBlend mode="normal" in2="BackgroundImageFix" result="effect1_dropShadow_884_3"/>
<feBlend mode="normal" in="SourceGraphic" in2="effect1_dropShadow_884_3" result="shape"/>
</filter>
</defs>
</svg>
