<svg width="10" height="12" viewBox="0 0 10 12" fill="none" xmlns="http://www.w3.org/2000/svg">
<path d="M5.2715 0.439453C2.88109 0.439453 0.942871 2.37767 0.942871 4.76808C0.942871 5.70941 1.2515 6.57311 1.76444 7.28056C1.77368 7.29758 1.77512 7.31648 1.78551 7.33264L4.67126 11.6613C4.80501 11.862 5.03054 11.9825 5.2715 11.9825C5.51246 11.9825 5.73783 11.862 5.87173 11.6613L8.75748 7.33264C8.76816 7.31634 8.76946 7.29744 8.77855 7.28056C9.29149 6.57311 9.60012 5.70941 9.60012 4.76808C9.60012 2.37767 7.66205 0.439453 5.2715 0.439453ZM5.2715 6.21095C4.47474 6.21095 3.82862 5.56483 3.82862 4.76808C3.82862 3.97132 4.47474 3.3252 5.2715 3.3252C6.06825 3.3252 6.71437 3.97132 6.71437 4.76808C6.71437 5.56483 6.06825 6.21095 5.2715 6.21095Z" fill="#EDEDED"/>
</svg>
