<svg width="13" height="12" viewBox="0 0 13 12" fill="none" xmlns="http://www.w3.org/2000/svg">
<path d="M12.043 9.1431V3.77185L8.96246 6.45762L12.043 9.1431Z" fill="#EDEDED"/>
<path d="M10.2499 0.439453H2.29306C1.30282 0.439453 0.5 1.24227 0.5 2.23251V2.28503L5.63765 6.76401C5.8206 6.92287 6.04439 7.00122 6.2715 7.00151C6.49875 7.00122 6.72283 6.92287 6.90536 6.76401L12.043 2.28503V2.23251C12.043 1.24227 11.2402 0.439453 10.2499 0.439453Z" fill="#EDEDED"/>
<path d="M7.64164 7.60897C7.25033 7.95065 6.75904 8.12264 6.27149 8.12235C5.7838 8.12278 5.29307 7.9505 4.90133 7.60897L4.43341 7.20093L0.546448 10.5895C0.728539 11.3869 1.44074 11.9825 2.29305 11.9825H10.2499C11.1027 11.9825 11.8144 11.3869 11.9967 10.5895L8.10971 7.20093L7.64179 7.60897H7.64164Z" fill="#EDEDED"/>
<path d="M0.499969 3.77185V9.1431L3.58051 6.45733L0.499969 3.77185Z" fill="#EDEDED"/>
</svg>
