<svg width="201" height="187" viewBox="0 0 201 187" fill="none" xmlns="http://www.w3.org/2000/svg">
<g filter="url(#filter0_d_563_4)">
<path d="M132.796 27.5385L43.8886 60.0352C34.009 63.6463 28.9274 74.5828 32.5385 84.4624L60.2431 160.259C63.8542 170.138 74.7906 175.22 84.6702 171.609L173.577 139.112C183.457 135.501 188.539 124.565 184.927 114.685L157.223 38.8887C153.612 29.009 142.675 23.9274 132.796 27.5385Z" fill="#3BA5E0"/>
</g>
<path d="M120.602 133.143L106.183 93.6958C102.819 84.4911 101.136 79.8881 98.0772 77.0209C95.3863 74.4983 91.9762 72.894 88.3369 72.4384C84.1999 71.9201 79.6406 73.5865 70.5233 76.919L66.4536 78.4065C64.174 79.2398 63.0348 79.6562 62.3278 80.4218C61.7064 81.0961 61.3135 81.9524 61.2053 82.8682C61.0833 83.9091 61.5037 85.0592 62.3449 87.3607L78.5656 131.739C79.4068 134.04 79.8272 135.19 80.5917 135.907C81.2649 136.537 82.1174 136.938 83.0272 137.053C84.0613 137.182 85.2005 136.766 87.4802 135.933L99.473 131.549C101.672 130.745 102.771 130.344 103.904 130.146C104.91 129.971 105.934 129.916 106.953 129.982C108.102 130.057 109.242 130.337 111.521 130.9L120.602 133.141M106.184 93.6941C102.82 84.4894 101.137 79.8864 101.626 75.7222C102.056 72.059 103.628 68.6338 106.116 65.9386C108.943 62.8746 113.503 61.2082 122.62 57.8757L126.689 56.3882C128.969 55.5549 130.108 55.1385 131.142 55.2678C132.052 55.3824 132.905 55.7835 133.578 56.4136C134.342 57.1305 134.763 58.2807 135.604 60.5822L151.825 104.96C152.666 107.262 153.086 108.412 152.964 109.453C152.856 110.368 152.464 111.224 151.842 111.899C151.135 112.665 149.996 113.081 147.716 113.914L135.723 118.298C133.524 119.102 132.425 119.503 131.433 120.083C130.551 120.598 129.733 121.215 128.997 121.923C128.167 122.721 127.476 123.671 126.097 125.571L120.602 133.14" stroke="#48E580" stroke-width="8" stroke-linecap="round" stroke-linejoin="round"/>
<g filter="url(#filter1_d_563_4)">
<path d="M68.4387 33.1395L56.8913 42.3202C56.3307 42.769 56.2048 43.5689 56.6052 44.1655L64.8466 56.3999C65.5449 57.4321 64.6151 58.7894 63.4001 58.5063L49.0226 55.2035C48.3241 55.0428 47.6188 55.4488 47.4054 56.1328L42.9781 70.2107C42.6055 71.4025 40.9688 71.5156 40.4261 70.3968L34.0432 57.0926C33.7366 56.445 32.9802 56.1479 32.3098 56.4063L18.5465 61.7225C17.3846 62.1742 16.269 60.9662 16.8124 59.8443L23.2329 46.5589C23.5435 45.914 23.3059 45.1355 22.6887 44.7726L9.95252 37.3256C8.87481 36.6958 9.12957 35.075 10.3407 34.7965L24.7299 31.5359C25.4273 31.3761 25.8893 30.7054 25.7853 30.0012L23.6683 15.3983C23.4909 14.1655 24.9123 13.3485 25.8889 14.1245L37.411 23.3385C37.9708 23.7876 38.7825 23.7309 39.2733 23.2038L49.3661 12.4449C50.22 11.5363 51.7433 12.1386 51.7455 13.3888L51.727 28.1444C51.7248 28.8595 52.2761 29.4567 52.9926 29.5172L67.6966 30.7C68.9421 30.7983 69.4168 32.3686 68.4412 33.1449L68.4387 33.1395Z" fill="#213E72"/>
</g>
<defs>
<filter id="filter0_d_563_4" x="25.3759" y="20.3757" width="174.714" height="166.396" filterUnits="userSpaceOnUse" color-interpolation-filters="sRGB">
<feFlood flood-opacity="0" result="BackgroundImageFix"/>
<feColorMatrix in="SourceAlpha" type="matrix" values="0 0 0 0 0 0 0 0 0 0 0 0 0 0 0 0 0 0 127 0" result="hardAlpha"/>
<feOffset dx="4" dy="4"/>
<feGaussianBlur stdDeviation="5"/>
<feColorMatrix type="matrix" values="0 0 0 0 0 0 0 0 0 0 0 0 0 0 0 0 0 0 0.65 0"/>
<feBlend mode="normal" in2="BackgroundImageFix" result="effect1_dropShadow_563_4"/>
<feBlend mode="normal" in="SourceGraphic" in2="effect1_dropShadow_563_4" result="shape"/>
</filter>
<filter id="filter1_d_563_4" x="3.27148" y="6.00806" width="79.6914" height="79.1658" filterUnits="userSpaceOnUse" color-interpolation-filters="sRGB">
<feFlood flood-opacity="0" result="BackgroundImageFix"/>
<feColorMatrix in="SourceAlpha" type="matrix" values="0 0 0 0 0 0 0 0 0 0 0 0 0 0 0 0 0 0 127 0" result="hardAlpha"/>
<feOffset dx="4" dy="4"/>
<feGaussianBlur stdDeviation="5"/>
<feColorMatrix type="matrix" values="0 0 0 0 0 0 0 0 0 0 0 0 0 0 0 0 0 0 0.65 0"/>
<feBlend mode="normal" in2="BackgroundImageFix" result="effect1_dropShadow_563_4"/>
<feBlend mode="normal" in="SourceGraphic" in2="effect1_dropShadow_563_4" result="shape"/>
</filter>
</defs>
</svg>
