<svg width="35" height="35" viewBox="0 0 35 35" fill="none" xmlns="http://www.w3.org/2000/svg">
<path d="M12.5139 27.3184V32.3053M22.4876 27.3184V32.3053M9.18912 32.3053H25.8119M2.53962 17.3447H32.4609M17.5002 22.3315H17.5167M7.85862 27.3184H27.1414C29.0035 27.3184 29.9345 27.3184 30.6456 26.9559C31.271 26.6372 31.7797 26.1285 32.0983 25.5032C32.4609 24.792 32.4609 23.861 32.4609 21.9989V7.70353C32.4609 5.84143 32.4609 4.91038 32.0983 4.19926C31.7797 3.5739 31.271 3.06524 30.6456 2.74658C29.9345 2.38403 29.0035 2.38403 27.1414 2.38403H7.85862C5.99652 2.38403 5.06547 2.38403 4.35435 2.74658C3.72899 3.06524 3.22033 3.5739 2.90167 4.19926C2.53912 4.91038 2.53912 5.84143 2.53912 7.70353V21.9994C2.53912 23.8615 2.53912 24.7925 2.90167 25.5037C3.22033 26.129 3.72899 26.6377 4.35435 26.9564C5.06547 27.3189 5.99652 27.3189 7.85862 27.3189V27.3184Z" stroke="#1D1B22" stroke-width="4" stroke-linecap="round" stroke-linejoin="round"/>
</svg>
