<svg width="72" height="71" viewBox="0 0 72 71" fill="none" xmlns="http://www.w3.org/2000/svg">
<circle cx="35.9135" cy="35.6202" r="35.1019" fill="#8EFE00"/>
<path d="M29.5985 49.1885V55.5045M42.2306 49.1885V55.5045M25.3876 55.5045H46.4409M16.9657 36.5563H54.8621M35.9139 42.8724H35.9347M23.7024 49.1885H48.1247C50.4831 49.1885 51.6624 49.1885 52.563 48.7293C53.3551 48.3257 53.9993 47.6814 54.4029 46.8894C54.8621 45.9887 54.8621 44.8095 54.8621 42.4511V24.3455C54.8621 21.9871 54.8621 20.8079 54.4029 19.9072C53.9993 19.1152 53.3551 18.4709 52.563 18.0673C51.6624 17.6082 50.4831 17.6082 48.1247 17.6082H23.7024C21.344 17.6082 20.1648 17.6082 19.2641 18.0673C18.4721 18.4709 17.8279 19.1152 17.4243 19.9072C16.9651 20.8079 16.9651 21.9871 16.9651 24.3455V42.4517C16.9651 44.8102 16.9651 45.9894 17.4243 46.89C17.8279 47.6821 18.4721 48.3263 19.2641 48.7299C20.1648 49.1891 21.344 49.1891 23.7024 49.1891V49.1885Z" stroke="#1D1B22" stroke-width="4.5" stroke-linecap="round" stroke-linejoin="round"/>
</svg>
