<svg width="72" height="71" viewBox="0 0 72 71" fill="none" xmlns="http://www.w3.org/2000/svg">
<circle cx="35.9135" cy="35.7024" r="35.1019" fill="#8EFE00"/>
<path d="M29.5979 16.7543V20.9652M35.9139 16.7543V20.9652M42.23 16.7543V20.9652M38.0191 29.3864H29.5979M42.23 37.8076H29.5979M27.9134 54.6506H43.9138C46.2723 54.6506 47.4515 54.6506 48.3521 54.1915C49.1442 53.7879 49.7884 53.1436 50.192 52.3516C50.6512 51.4509 50.6512 50.2717 50.6512 47.9133V25.5968C50.6512 23.2383 50.6512 22.0591 50.192 21.1585C49.7884 20.3664 49.1442 19.7222 48.3521 19.3186C47.4515 18.8594 46.2723 18.8594 43.9138 18.8594H27.9134C25.5549 18.8594 24.3757 18.8594 23.4751 19.3186C22.683 19.7222 22.0388 20.3664 21.6352 21.1585C21.176 22.0591 21.176 23.2383 21.176 25.5968V47.9133C21.176 50.2717 21.176 51.4509 21.6352 52.3516C22.0388 53.1436 22.683 53.7879 23.4751 54.1915C24.3757 54.6506 25.5549 54.6506 27.9134 54.6506Z" stroke="#1D1B22" stroke-width="4.5" stroke-linecap="round" stroke-linejoin="round"/>
</svg>
