<svg width="29" height="35" viewBox="0 0 29 35" fill="none" xmlns="http://www.w3.org/2000/svg">
<path d="M9.51339 2.38354V5.70829M14.5003 2.38354V5.70829M19.4871 2.38354V5.70829M16.1624 12.3573H9.51339M19.4871 19.0063H9.51339M8.18339 32.3048H20.8166C22.6787 32.3048 23.6098 32.3048 24.3209 31.9422C24.9463 31.6236 25.4549 31.1149 25.7736 30.4896C26.1361 29.7784 26.1361 28.8474 26.1361 26.9853V9.36517C26.1361 7.50307 26.1361 6.57202 25.7736 5.86089C25.4549 5.23554 24.9463 4.72688 24.3209 4.40821C23.6098 4.04567 22.6787 4.04567 20.8166 4.04567H8.18339C6.32129 4.04567 5.39024 4.04567 4.67911 4.40821C4.05376 4.72688 3.5451 5.23554 3.22644 5.86089C2.86389 6.57202 2.86389 7.50307 2.86389 9.36517V26.9853C2.86389 28.8474 2.86389 29.7784 3.22644 30.4896C3.5451 31.1149 4.05376 31.6236 4.67911 31.9422C5.39024 32.3048 6.32129 32.3048 8.18339 32.3048Z" stroke="#1D1B22" stroke-width="4" stroke-linecap="round" stroke-linejoin="round"/>
</svg>
