<svg width="210" height="209" viewBox="0 0 210 209" fill="none" xmlns="http://www.w3.org/2000/svg">
<g filter="url(#filter0_d_461_2)">
<path d="M75.4254 179.285C116.806 195.541 163.529 175.174 179.785 133.794C196.041 92.4139 175.674 45.6905 134.294 29.4343C92.9139 13.1782 46.1905 33.5453 29.9343 74.9254C13.6782 116.306 34.0453 163.029 75.4254 179.285Z" fill="#32352F"/>
</g>
<path d="M110.539 73.8808L96.0472 68.1877C91.7753 66.5095 89.6393 65.6703 87.6801 65.8638C85.9573 66.0335 84.3305 66.7457 83.034 67.8977C81.5594 69.2075 80.7176 71.3502 79.0341 75.6355L64.6068 112.361C62.9233 116.646 62.0815 118.789 62.2703 120.752C62.436 122.478 63.1431 124.107 64.2897 125.404C65.5934 126.88 67.7293 127.719 72.0013 129.397L108.612 143.779C112.884 145.457 115.02 146.297 116.979 146.103C118.702 145.933 120.328 145.221 121.625 144.069C123.099 142.759 123.941 140.617 125.625 136.331L132.087 119.882M125.446 86.362L131.981 101.419M100.26 97.3874L135.605 81.9144C139.757 80.0969 144.587 81.9945 146.392 86.1518C148.197 90.3095 146.294 95.1549 142.141 96.9719L105.66 112.942C101.611 114.715 99.5866 115.601 97.4769 116.11C95.6051 116.562 93.6861 116.791 91.7615 116.795C89.5928 116.799 87.4192 116.415 83.0731 115.649L81.065 115.294L81.7448 114.095C84.1519 109.85 85.3555 107.728 86.9078 105.914C88.2859 104.306 89.8648 102.882 91.6049 101.676C93.5661 100.318 95.7974 99.341 100.261 97.3879L100.26 97.3874Z" stroke="#FF0098" stroke-width="6" stroke-linecap="round" stroke-linejoin="round"/>
<defs>
<filter id="filter0_d_461_2" x="20.3385" y="19.8385" width="181.042" height="181.042" filterUnits="userSpaceOnUse" color-interpolation-filters="sRGB">
<feFlood flood-opacity="0" result="BackgroundImageFix"/>
<feColorMatrix in="SourceAlpha" type="matrix" values="0 0 0 0 0 0 0 0 0 0 0 0 0 0 0 0 0 0 127 0" result="hardAlpha"/>
<feOffset dx="6" dy="6"/>
<feGaussianBlur stdDeviation="5"/>
<feColorMatrix type="matrix" values="0 0 0 0 0 0 0 0 0 0 0 0 0 0 0 0 0 0 0.65 0"/>
<feBlend mode="normal" in2="BackgroundImageFix" result="effect1_dropShadow_461_2"/>
<feBlend mode="normal" in="SourceGraphic" in2="effect1_dropShadow_461_2" result="shape"/>
</filter>
</defs>
</svg>
