<svg width="117" height="116" viewBox="0 0 117 116" fill="none" xmlns="http://www.w3.org/2000/svg">
<path d="M113.148 57.6708C113.148 87.845 88.5104 112.342 58.0741 112.342C27.6378 112.342 3 87.845 3 57.6708C3 27.4966 27.6378 3 58.0741 3C88.5104 3 113.148 27.4966 113.148 57.6708Z" stroke="#EDEDED" stroke-width="6"/>
<path d="M59.8565 29H44.9428C41.4623 29 39.7221 29 38.3929 29.6785C37.224 30.2749 36.2733 31.2269 35.6776 32.3973C35 33.7282 35 35.4707 35 38.9557V75.0443C35 78.5293 35 80.2718 35.6776 81.6027C36.2733 82.7731 37.224 83.7251 38.3929 84.3215C39.7221 85 41.4623 85 44.9428 85H50.5354M59.8565 29L78.4986 47.6664M59.8565 29V42.689C59.8565 44.4315 59.8565 45.3023 60.1949 45.9677C60.4931 46.5529 60.9676 47.0289 61.5529 47.3276C62.2175 47.6664 63.0872 47.6664 64.8274 47.6664H78.4986M78.4986 47.6664V50.7771M47.4287 72.5551H55.196M47.4287 60.1112H62.9641M47.4287 47.6664H50.5354M62.9632 84.9991L69.2549 83.7391C69.803 83.629 70.078 83.5739 70.3334 83.474C70.5608 83.3854 70.7761 83.2696 70.9765 83.1296C71.2021 82.9719 71.3997 82.774 71.7959 82.3783L84.713 69.4444C86.429 67.7262 86.429 64.9402 84.713 63.222C82.997 61.5037 80.2146 61.5037 78.4986 63.222L65.5815 76.1559C65.1854 76.5525 64.9877 76.7504 64.8312 76.9763C64.6913 77.176 64.5758 77.3925 64.4872 77.6203C64.3865 77.876 64.3315 78.1513 64.2225 78.7001L62.9641 85L62.9632 84.9991Z" stroke="#EDEDED" stroke-width="6" stroke-linecap="round" stroke-linejoin="round"/>
</svg>
