<svg width="163" height="164" viewBox="0 0 163 164" fill="none" xmlns="http://www.w3.org/2000/svg">
<g filter="url(#filter0_d_245_191)">
<path d="M94.1799 146.098C130.322 138.162 153.187 102.429 145.251 66.2875C137.315 30.1454 101.583 7.27995 65.441 15.216C29.2989 23.152 6.43343 58.8843 14.3695 95.0264C22.3055 131.168 58.0378 154.034 94.1799 146.098Z" fill="#48E580"/>
</g>
<path d="M79.9863 83.4473C83.0238 78.7005 86.5791 76.3066 85.635 72.007C84.6909 67.7073 80.4398 64.987 76.1401 65.9311C72.512 66.7278 70.009 69.8785 69.8821 73.4255M82.5516 95.1244L82.5901 95.116M110.538 83.8027L114.791 77.1561C115.994 75.2763 116.596 74.3363 116.689 73.3843C116.772 72.5472 116.587 71.7041 116.161 70.9788C115.677 70.1535 114.737 69.552 112.858 68.349L106.211 64.0958C105.389 63.57 104.979 63.3075 104.652 62.968C104.362 62.6669 104.122 62.3218 103.939 61.9446C103.733 61.5198 103.629 61.0445 103.42 60.0916L101.935 53.3292C101.456 51.149 101.217 50.0595 100.61 49.32C100.076 48.6699 99.3495 48.2051 98.5353 47.9922C97.6096 47.7511 96.5189 47.9906 94.3399 48.4691L87.5775 49.954C86.6258 50.1629 86.1493 50.2676 85.6773 50.2586C85.2593 50.25 84.8454 50.1769 84.4505 50.0396C84.0053 49.8852 83.594 49.623 82.7734 49.0969L76.1269 44.8437C74.247 43.6407 73.3071 43.0393 72.3551 42.946C71.5168 42.8632 70.6748 43.0481 69.9495 43.4742C69.1242 43.9577 68.5227 44.8977 67.3198 46.7776L63.0666 53.4241C62.5407 54.2458 62.2783 54.656 61.9387 54.9827C61.6377 55.2728 61.2925 55.5126 60.9153 55.6958C60.4905 55.9017 60.0152 56.0061 59.0624 56.2153L52.3 57.7002C50.1198 58.1789 49.0303 58.4181 48.2908 59.0248C47.6406 59.5593 47.1759 60.2856 46.963 61.0998C46.7219 62.0255 46.9611 63.115 47.4398 65.2952L48.9247 72.0576C49.1337 73.0093 49.2383 73.4858 49.2293 73.9578C49.2208 74.3758 49.1476 74.7897 49.0106 75.1858C48.8562 75.631 48.594 76.0423 48.0679 76.8628L43.8147 83.5094C42.6117 85.3893 42.0103 86.3292 41.917 87.2812C41.8339 88.1183 42.0191 88.9614 42.4452 89.6867C42.9287 90.5121 43.8687 91.1135 45.7486 92.3165L52.3951 96.5697C53.2154 97.0946 53.627 97.358 53.9537 97.6975C54.2438 97.9986 54.4836 98.3438 54.6668 98.7209C54.8725 99.1446 54.9771 99.621 55.186 100.573L56.6709 107.335C57.1497 109.515 57.3889 110.605 57.9956 111.344C58.53 111.994 59.2564 112.459 60.0706 112.672C60.9963 112.913 62.0858 112.674 64.2659 112.195L71.0284 110.71C71.9801 110.501 72.4565 110.397 72.9285 110.406C73.3466 110.414 73.7604 110.487 74.1565 110.625C74.6017 110.779 75.013 111.041 75.8336 111.567L82.4801 115.82C84.36 117.023 85.3 117.625 86.2519 117.718C87.0891 117.801 87.931 117.616 88.6575 117.19C89.4828 116.706 90.0843 115.766 91.2872 113.887L95.5404 107.24C96.0665 106.419 96.3287 106.008 96.6683 105.681C96.9693 105.391 97.3142 105.15 97.6905 104.969C98.1153 104.763 98.5906 104.658 99.5435 104.449L106.306 102.964C108.486 102.485 109.576 102.246 110.315 101.64C110.965 101.105 111.43 100.379 111.643 99.5645C111.884 98.6388 111.644 97.5482 111.166 95.3692L109.681 88.6068C109.472 87.655 109.368 87.1786 109.377 86.7078C109.385 86.2897 109.458 85.8758 109.596 85.4798C109.75 85.0346 110.012 84.6232 110.538 83.8027Z" stroke="#213E72" stroke-width="8" stroke-miterlimit="133.33" stroke-linecap="round"/>
<defs>
<filter id="filter0_d_245_191" x="8.79626" y="9.6427" width="154.028" height="154.028" filterUnits="userSpaceOnUse" color-interpolation-filters="sRGB">
<feFlood flood-opacity="0" result="BackgroundImageFix"/>
<feColorMatrix in="SourceAlpha" type="matrix" values="0 0 0 0 0 0 0 0 0 0 0 0 0 0 0 0 0 0 127 0" result="hardAlpha"/>
<feOffset dx="6" dy="6"/>
<feGaussianBlur stdDeviation="5"/>
<feColorMatrix type="matrix" values="0 0 0 0 0 0 0 0 0 0 0 0 0 0 0 0 0 0 0.65 0"/>
<feBlend mode="normal" in2="BackgroundImageFix" result="effect1_dropShadow_245_191"/>
<feBlend mode="normal" in="SourceGraphic" in2="effect1_dropShadow_245_191" result="shape"/>
</filter>
</defs>
</svg>
