<svg width="290" height="194" viewBox="0 0 290 194" fill="none" xmlns="http://www.w3.org/2000/svg">
<g filter="url(#filter0_d_426_261)">
<path d="M30.0337 14.0424C32.6282 7.94389 39.6752 5.10337 45.7737 7.69785L263.523 100.336L275.978 128.238L257.087 172.643C254.493 178.741 247.445 181.582 241.347 178.987L14.0421 82.2844C7.94368 79.6899 5.10317 72.6429 7.69765 66.5444L30.0337 14.0424Z" fill="#FF0098"/>
</g>
<g filter="url(#filter1_d_426_261)">
<path d="M216.885 118.369C215.733 117.879 214.93 117.143 214.477 116.161C214.047 115.189 214.082 114.116 214.582 112.941C215.072 111.789 215.787 111.004 216.726 110.588C217.698 110.158 218.829 110.217 220.12 110.766L235.015 117.103C236.305 117.652 237.121 118.421 237.462 119.409C237.836 120.385 237.778 121.449 237.288 122.601C236.788 123.776 236.028 124.541 235.006 124.895C234.008 125.259 232.932 125.196 231.78 124.706C230.997 124.373 230.398 124.023 229.983 123.656C229.6 123.275 229.308 122.906 229.107 122.548C228.915 122.168 228.715 121.838 228.507 121.559C228.309 121.257 228.003 121.018 227.588 120.841L227.012 121.331C227.016 121.578 227.05 121.946 227.114 122.435C227.188 122.902 227.176 123.537 227.08 124.339C226.993 125.118 226.695 126.107 226.185 127.305L221.936 137.293C221.534 138.238 220.844 138.869 219.865 139.188C218.909 139.516 217.924 139.464 216.91 139.033C215.873 138.592 215.13 137.908 214.681 136.982C214.254 136.066 214.242 135.136 214.644 134.191L218.893 124.203C219.403 123.005 219.908 122.104 220.41 121.501C220.921 120.875 221.37 120.427 221.757 120.156C222.177 119.873 222.478 119.647 222.658 119.478L222.577 118.709C222.162 118.533 221.777 118.478 221.423 118.545C221.077 118.588 220.701 118.673 220.294 118.799C219.896 118.902 219.428 118.948 218.889 118.936C218.359 118.901 217.691 118.712 216.885 118.369Z" fill="#4B0D41"/>
</g>
<g filter="url(#filter2_d_426_261)">
<path d="M202.296 103.459L199.632 109.72C198.777 109.356 198.124 109.238 197.671 109.364C197.235 109.484 196.888 109.848 196.629 110.455L193.312 118.252C193.135 118.668 193.01 119.086 192.938 119.507C192.865 119.928 192.871 120.336 192.955 120.73C193.056 121.119 193.248 121.479 193.531 121.812C193.831 122.139 194.262 122.422 194.824 122.661C195.904 123.121 196.811 123.175 197.546 122.823C198.285 122.46 198.86 121.794 199.272 120.827L202.574 113.064C202.871 112.367 202.861 111.811 202.546 111.398C202.235 110.973 201.714 110.606 200.982 110.294L203.646 104.034L214.767 108.765L212.103 115.026C211.349 114.705 210.722 114.571 210.221 114.624C209.725 114.665 209.329 115.034 209.032 115.732L205.608 123.781C205.168 124.816 204.573 125.839 203.824 126.849C203.092 127.853 202.139 128.656 200.965 129.26C199.808 129.857 198.383 130.161 196.691 130.172C195.004 130.171 192.985 129.671 190.633 128.671C188.923 127.943 187.517 127.159 186.413 126.317C185.316 125.492 184.448 124.644 183.808 123.774C183.169 122.904 182.732 122.041 182.499 121.184C182.27 120.316 182.161 119.48 182.172 118.674C182.198 117.861 182.306 117.11 182.493 116.419C182.686 115.717 182.899 115.09 183.134 114.539L186.587 106.422C186.903 105.68 186.902 105.088 186.584 104.647C186.272 104.195 185.62 103.759 184.63 103.338L187.294 97.0771L202.296 103.459Z" fill="#4B0D41"/>
</g>
<g filter="url(#filter3_d_426_261)">
<path d="M180.429 109.442C179.994 110.466 179.455 111.406 178.812 112.262C178.173 113.106 177.452 113.849 176.648 114.49C175.855 115.136 174.989 115.671 174.051 116.096C173.129 116.514 172.164 116.801 171.154 116.956C170.156 117.116 169.131 117.138 168.077 117.022C167.029 116.895 165.981 116.608 164.935 116.163C163.922 115.733 163.01 115.192 162.198 114.54C161.396 113.894 160.695 113.17 160.092 112.369C159.494 111.557 159.008 110.686 158.633 109.756C158.274 108.819 158.034 107.853 157.913 106.858C157.807 105.857 157.821 104.84 157.955 103.807C158.1 102.779 158.385 101.765 158.811 100.764C159.228 99.7848 159.753 98.8788 160.386 98.0456C161.025 97.2011 161.74 96.4559 162.533 95.81C163.337 95.169 164.203 94.6337 165.129 94.2042C166.056 93.7748 167.015 93.472 168.007 93.296C169.01 93.1248 170.027 93.0924 171.058 93.1988C172.089 93.3052 173.11 93.5738 174.123 94.0046C175.754 94.6986 177.131 95.5835 178.255 96.6593C179.389 97.7398 180.228 98.9537 180.771 100.301C181.33 101.641 181.584 103.091 181.532 104.65C181.496 106.202 181.128 107.8 180.429 109.442ZM172.75 106.694C172.956 106.21 173.082 105.712 173.127 105.2C173.188 104.681 173.158 104.19 173.036 103.726C172.919 103.251 172.704 102.821 172.39 102.435C172.092 102.042 171.684 101.736 171.166 101.516C170.638 101.291 170.125 101.185 169.627 101.2C169.129 101.214 168.657 101.325 168.209 101.533C167.778 101.735 167.388 102.027 167.039 102.41C166.695 102.782 166.418 103.216 166.207 103.711C166.006 104.183 165.872 104.684 165.806 105.214C165.74 105.744 165.761 106.258 165.868 106.755C165.976 107.253 166.176 107.703 166.469 108.107C166.774 108.515 167.19 108.832 167.719 109.057C168.248 109.282 168.763 109.382 169.266 109.356C169.784 109.325 170.264 109.196 170.705 108.972C171.15 108.737 171.55 108.422 171.904 108.027C172.257 107.633 172.54 107.189 172.75 106.694Z" fill="#4B0D41"/>
</g>
<g filter="url(#filter4_d_426_261)">
<path d="M144.014 78.3064C146.755 79.4728 148.77 80.942 150.057 82.714C151.376 84.4727 152.049 86.4731 152.075 88.7153C152.133 90.9442 151.614 93.3489 150.516 95.9294C148.673 100.261 146.387 103.043 143.658 104.277C140.93 105.511 137.641 105.309 133.794 103.672L132.273 103.025C131.144 102.545 130.145 101.984 129.275 101.341C128.405 100.699 127.729 99.922 127.247 99.0093C126.774 98.0736 126.566 96.9645 126.622 95.6821C126.677 94.3998 127.078 92.8831 127.823 91.132C128.519 89.4962 129.34 88.1723 130.288 87.1605C131.258 86.1584 132.207 85.4326 133.133 84.983C134.058 84.5334 134.809 84.3358 135.385 84.3902L135.491 83.66L134.904 83.4101C133.844 82.9592 133.145 82.2673 132.807 81.3345C132.502 80.3885 132.583 79.3345 133.05 78.1727C133.517 77.0109 134.209 76.2167 135.125 75.7902C136.074 75.3504 137.079 75.356 138.138 75.8069L144.014 78.3064ZM134.615 93.491C134.409 93.9749 134.371 94.3531 134.5 94.6256C134.652 94.9079 134.946 95.1422 135.384 95.3285L137.25 96.1224C138.425 96.6223 139.443 96.7561 140.304 96.5236C141.165 96.2912 141.889 95.8372 142.475 95.1617C143.095 94.4729 143.596 93.6792 143.978 92.7807C144.36 91.8821 144.59 90.9593 144.666 90.0122C144.766 89.075 144.605 88.2041 144.186 87.3998C143.766 86.5954 142.969 85.9432 141.794 85.4433L139.927 84.6494C139.49 84.4631 139.111 84.4247 138.793 84.534C138.507 84.6301 138.256 84.9316 138.041 85.4385L134.615 93.491Z" fill="#4B0D41"/>
</g>
<g filter="url(#filter5_d_426_261)">
<path d="M121.131 76.3227C120.141 75.9015 119.375 75.735 118.832 75.8231C118.306 75.9048 117.885 76.3169 117.569 77.0594L113.132 87.4881L116.507 88.924C116.968 89.1202 117.376 89.2403 117.729 89.2844C118.082 89.3284 118.409 89.248 118.708 89.0434C119.013 88.8274 119.309 88.4751 119.597 87.9863C119.895 87.5023 120.227 86.8328 120.591 85.9778L126.497 88.4905L122.146 98.7168L97.7449 88.3357L100.408 82.075C101.398 82.4962 102.162 82.6684 102.7 82.5915C103.242 82.5034 103.669 82.0937 103.98 81.3624L107.613 72.8236C107.928 72.0811 107.928 71.4896 107.61 71.0489C107.298 70.5971 106.646 70.1605 105.656 69.7394L108.32 63.4787L123.794 70.062L121.131 76.3227Z" fill="#4B0D41"/>
</g>
<g filter="url(#filter6_d_426_261)">
<path d="M84.5305 82.8363C82.0653 81.7875 80.2105 80.359 78.9662 78.5508C77.7219 76.7425 77.0688 74.696 77.0068 72.4112C76.9449 70.1264 77.4432 67.7398 78.5018 65.2515C79.5507 62.7862 80.9196 60.7836 82.6087 59.2438C84.3076 57.6809 86.2399 56.7207 88.4055 56.3631C90.581 55.9826 92.9014 56.3167 95.3667 57.3655C97.8319 58.4143 99.6703 59.8495 100.882 61.6709C102.126 63.4792 102.774 65.5372 102.826 67.8451C102.888 70.1299 102.395 72.5049 101.346 74.9702C100.287 77.4585 98.9136 79.4726 97.2245 81.0125C95.5354 82.5523 93.6081 83.501 91.4424 83.8586C89.2998 84.2259 86.9958 83.8852 84.5305 82.8363ZM83.0917 66.5511C82.7878 67.2654 82.6714 68.0186 82.7426 68.8107C82.8235 69.5798 83.2876 70.3759 84.1347 71.1988C84.9916 71.9988 86.4224 72.8251 88.4268 73.6779C90.4313 74.5307 92.0074 74.9835 93.1549 75.0363C94.3353 75.0759 95.2306 74.8582 95.8409 74.3832C96.4609 73.8851 96.9229 73.2789 97.2268 72.5647C97.5404 71.8274 97.647 71.0972 97.5464 70.3742C97.4557 69.6281 96.9769 68.8666 96.1102 68.0897C95.2763 67.2996 93.8571 66.4782 91.8526 65.6254C89.8482 64.7726 88.2606 64.3149 87.09 64.2523C85.9292 64.1666 85.0486 64.3497 84.4481 64.8017C83.8575 65.2307 83.4053 65.8138 83.0917 66.5511Z" fill="#4B0D41"/>
</g>
<g filter="url(#filter7_d_426_261)">
<path d="M70.9385 49.5037C72.2288 50.0526 73.3467 50.7187 74.2924 51.5019C75.2709 52.2719 76.1825 53.2312 77.0272 54.3796L78.1014 54.0612C78.8406 53.8587 79.4173 53.7503 79.8315 53.736C80.2688 53.7316 80.7178 53.8274 81.1786 54.0234C81.7316 54.2587 82.1155 54.5716 82.3302 54.9623C82.5547 55.3299 82.569 55.7441 82.3729 56.2049C82.2945 56.3893 82.1766 56.5704 82.0193 56.7483L78.5388 60.9001C78.1422 61.3845 77.7682 61.6879 77.4168 61.8105C77.0884 61.9429 76.6822 61.9062 76.1984 61.7003C75.6915 61.4847 75.3059 61.1438 75.0417 60.6776C74.8103 60.1982 74.4972 59.3032 74.1025 57.9924C73.6882 56.7277 73.2253 55.7689 72.714 55.116C72.2355 54.4499 71.6507 53.9698 70.9595 53.6757C70.4526 53.4601 69.9528 53.4516 69.4602 53.6501C68.9774 53.8257 68.633 54.1554 68.4272 54.6392C68.1919 55.1922 68.2479 55.8282 68.595 56.5473C68.9519 57.2433 69.566 58.1984 70.4372 59.4126C71.3314 60.6365 72.0476 61.7031 72.586 62.6124C73.1243 63.5217 73.4886 64.5202 73.6789 65.6079C73.8691 66.6956 73.729 67.7925 73.2585 68.8984C72.9547 69.6126 72.5356 70.2779 72.0014 70.8941C70.6642 72.502 68.995 73.4517 66.9935 73.743C65.0019 74.0114 62.9462 73.6946 60.8265 72.7928C59.2367 72.1165 57.9788 71.3637 57.0528 70.5343C56.1267 69.705 55.2854 68.6124 54.5289 67.2566L52.8437 67.7641C52.0618 68.0029 51.4474 68.136 51.0003 68.1635C50.5631 68.1679 50.1141 68.0721 49.6533 67.8761C49.1233 67.6507 48.751 67.3426 48.5363 66.9519C48.3446 66.5711 48.3418 66.1618 48.5281 65.724C48.6261 65.4936 48.7751 65.2713 48.9751 65.057L52.8593 60.628C53.2984 60.1074 53.7332 59.789 54.1636 59.6728C54.594 59.5566 55.0626 59.6063 55.5695 59.8219C56.0994 60.0474 56.4933 60.4326 56.7512 60.9777C57.0321 61.5326 57.3124 62.4409 57.5919 63.7026C57.8783 65.0761 58.2443 66.1026 58.6899 66.782C59.1586 67.4711 59.8307 68.002 60.7063 68.3744C61.3283 68.6391 61.8399 68.7479 62.2409 68.7008C62.6747 68.6405 63.0538 68.4208 63.3783 68.0419C63.4734 67.9463 63.5699 67.7833 63.668 67.5529C63.9032 66.9999 63.8539 66.3803 63.52 65.694C63.1861 65.0078 62.6035 64.1069 61.772 62.9912C60.9008 61.7771 60.2142 60.7367 59.7122 59.8701C59.2199 58.9804 58.8787 57.9917 58.6884 56.904C58.5211 55.8261 58.6826 54.7111 59.1727 53.5591C59.5157 52.7527 59.9806 52.0117 60.5673 51.3362C61.7275 49.9522 63.2622 49.095 65.1715 48.7645C67.0808 48.4339 69.0032 48.6803 70.9385 49.5037Z" fill="#4B0D41"/>
</g>
<path d="M263.505 100.328L275.978 128.238L255.363 119.468L263.505 100.328Z" fill="#FFA0D9"/>
<defs>
<filter id="filter0_d_426_261" x="0.736816" y="0.737" width="289.241" height="193.211" filterUnits="userSpaceOnUse" color-interpolation-filters="sRGB">
<feFlood flood-opacity="0" result="BackgroundImageFix"/>
<feColorMatrix in="SourceAlpha" type="matrix" values="0 0 0 0 0 0 0 0 0 0 0 0 0 0 0 0 0 0 127 0" result="hardAlpha"/>
<feOffset dx="4" dy="4"/>
<feGaussianBlur stdDeviation="5"/>
<feComposite in2="hardAlpha" operator="out"/>
<feColorMatrix type="matrix" values="0 0 0 0 0 0 0 0 0 0 0 0 0 0 0 0 0 0 0.65 0"/>
<feBlend mode="normal" in2="BackgroundImageFix" result="effect1_dropShadow_426_261"/>
<feBlend mode="normal" in="SourceGraphic" in2="effect1_dropShadow_426_261" result="shape"/>
</filter>
<filter id="filter1_d_426_261" x="210.179" y="110.304" width="31.5259" height="37.0957" filterUnits="userSpaceOnUse" color-interpolation-filters="sRGB">
<feFlood flood-opacity="0" result="BackgroundImageFix"/>
<feColorMatrix in="SourceAlpha" type="matrix" values="0 0 0 0 0 0 0 0 0 0 0 0 0 0 0 0 0 0 127 0" result="hardAlpha"/>
<feOffset dy="4"/>
<feGaussianBlur stdDeviation="2"/>
<feComposite in2="hardAlpha" operator="out"/>
<feColorMatrix type="matrix" values="0 0 0 0 0 0 0 0 0 0 0 0 0 0 0 0 0 0 0.25 0"/>
<feBlend mode="normal" in2="BackgroundImageFix" result="effect1_dropShadow_426_261"/>
<feBlend mode="normal" in="SourceGraphic" in2="effect1_dropShadow_426_261" result="shape"/>
</filter>
<filter id="filter2_d_426_261" x="178.171" y="97.0771" width="40.5957" height="41.0947" filterUnits="userSpaceOnUse" color-interpolation-filters="sRGB">
<feFlood flood-opacity="0" result="BackgroundImageFix"/>
<feColorMatrix in="SourceAlpha" type="matrix" values="0 0 0 0 0 0 0 0 0 0 0 0 0 0 0 0 0 0 127 0" result="hardAlpha"/>
<feOffset dy="4"/>
<feGaussianBlur stdDeviation="2"/>
<feComposite in2="hardAlpha" operator="out"/>
<feColorMatrix type="matrix" values="0 0 0 0 0 0 0 0 0 0 0 0 0 0 0 0 0 0 0.25 0"/>
<feBlend mode="normal" in2="BackgroundImageFix" result="effect1_dropShadow_426_261"/>
<feBlend mode="normal" in="SourceGraphic" in2="effect1_dropShadow_426_261" result="shape"/>
</filter>
<filter id="filter3_d_426_261" x="153.843" y="93.1376" width="31.6953" height="31.9574" filterUnits="userSpaceOnUse" color-interpolation-filters="sRGB">
<feFlood flood-opacity="0" result="BackgroundImageFix"/>
<feColorMatrix in="SourceAlpha" type="matrix" values="0 0 0 0 0 0 0 0 0 0 0 0 0 0 0 0 0 0 127 0" result="hardAlpha"/>
<feOffset dy="4"/>
<feGaussianBlur stdDeviation="2"/>
<feComposite in2="hardAlpha" operator="out"/>
<feColorMatrix type="matrix" values="0 0 0 0 0 0 0 0 0 0 0 0 0 0 0 0 0 0 0.25 0"/>
<feBlend mode="normal" in2="BackgroundImageFix" result="effect1_dropShadow_426_261"/>
<feBlend mode="normal" in="SourceGraphic" in2="effect1_dropShadow_426_261" result="shape"/>
</filter>
<filter id="filter4_d_426_261" x="122.613" y="75.4645" width="33.4663" height="37.6078" filterUnits="userSpaceOnUse" color-interpolation-filters="sRGB">
<feFlood flood-opacity="0" result="BackgroundImageFix"/>
<feColorMatrix in="SourceAlpha" type="matrix" values="0 0 0 0 0 0 0 0 0 0 0 0 0 0 0 0 0 0 127 0" result="hardAlpha"/>
<feOffset dy="4"/>
<feGaussianBlur stdDeviation="2"/>
<feComposite in2="hardAlpha" operator="out"/>
<feColorMatrix type="matrix" values="0 0 0 0 0 0 0 0 0 0 0 0 0 0 0 0 0 0 0.25 0"/>
<feBlend mode="normal" in2="BackgroundImageFix" result="effect1_dropShadow_426_261"/>
<feBlend mode="normal" in="SourceGraphic" in2="effect1_dropShadow_426_261" result="shape"/>
</filter>
<filter id="filter5_d_426_261" x="93.7446" y="63.4787" width="36.752" height="43.2381" filterUnits="userSpaceOnUse" color-interpolation-filters="sRGB">
<feFlood flood-opacity="0" result="BackgroundImageFix"/>
<feColorMatrix in="SourceAlpha" type="matrix" values="0 0 0 0 0 0 0 0 0 0 0 0 0 0 0 0 0 0 127 0" result="hardAlpha"/>
<feOffset dy="4"/>
<feGaussianBlur stdDeviation="2"/>
<feComposite in2="hardAlpha" operator="out"/>
<feColorMatrix type="matrix" values="0 0 0 0 0 0 0 0 0 0 0 0 0 0 0 0 0 0 0.25 0"/>
<feBlend mode="normal" in2="BackgroundImageFix" result="effect1_dropShadow_426_261"/>
<feBlend mode="normal" in="SourceGraphic" in2="effect1_dropShadow_426_261" result="shape"/>
</filter>
<filter id="filter6_d_426_261" x="73.002" y="56.2112" width="33.8296" height="35.7903" filterUnits="userSpaceOnUse" color-interpolation-filters="sRGB">
<feFlood flood-opacity="0" result="BackgroundImageFix"/>
<feColorMatrix in="SourceAlpha" type="matrix" values="0 0 0 0 0 0 0 0 0 0 0 0 0 0 0 0 0 0 127 0" result="hardAlpha"/>
<feOffset dy="4"/>
<feGaussianBlur stdDeviation="2"/>
<feComposite in2="hardAlpha" operator="out"/>
<feColorMatrix type="matrix" values="0 0 0 0 0 0 0 0 0 0 0 0 0 0 0 0 0 0 0.25 0"/>
<feBlend mode="normal" in2="BackgroundImageFix" result="effect1_dropShadow_426_261"/>
<feBlend mode="normal" in="SourceGraphic" in2="effect1_dropShadow_426_261" result="shape"/>
</filter>
<filter id="filter7_d_426_261" x="44.3906" y="48.6224" width="42.1191" height="33.2129" filterUnits="userSpaceOnUse" color-interpolation-filters="sRGB">
<feFlood flood-opacity="0" result="BackgroundImageFix"/>
<feColorMatrix in="SourceAlpha" type="matrix" values="0 0 0 0 0 0 0 0 0 0 0 0 0 0 0 0 0 0 127 0" result="hardAlpha"/>
<feOffset dy="4"/>
<feGaussianBlur stdDeviation="2"/>
<feComposite in2="hardAlpha" operator="out"/>
<feColorMatrix type="matrix" values="0 0 0 0 0 0 0 0 0 0 0 0 0 0 0 0 0 0 0.25 0"/>
<feBlend mode="normal" in2="BackgroundImageFix" result="effect1_dropShadow_426_261"/>
<feBlend mode="normal" in="SourceGraphic" in2="effect1_dropShadow_426_261" result="shape"/>
</filter>
</defs>
</svg>
