<svg width="86" height="87" viewBox="0 0 86 87" fill="none" xmlns="http://www.w3.org/2000/svg">
<g filter="url(#filter0_d_286_218)">
<path d="M72.0367 40.6687L56.0754 50.673C55.2227 51.2059 54.6887 52.1265 54.643 53.1281L53.8346 71.9539C53.7266 74.4805 50.7658 75.7833 48.8271 74.1595L34.3818 62.0664C33.6094 61.4177 32.5748 61.1978 31.6073 61.4671L13.4601 66.5106C11.0239 67.1872 8.86403 64.7746 9.81153 62.4291L16.8438 44.9525C17.2165 44.0191 17.1117 42.9664 16.5592 42.1246L6.15193 26.4199C4.75426 24.3149 6.38239 21.5194 8.90682 21.6929L27.7016 22.9874C28.7044 23.0581 29.6772 22.6253 30.3051 21.8387L42.0229 7.08878C43.5921 5.10977 46.7548 5.79469 47.3693 8.24621L51.9487 26.5171C52.1907 27.4934 52.8991 28.2805 53.8466 28.6325L71.4992 35.2199C73.8697 36.1085 74.1941 39.319 72.0541 40.6654L72.0367 40.6687Z" fill="#7039C7"/>
</g>
<defs>
<filter id="filter0_d_286_218" x="0.637634" y="0.93518" width="84.5265" height="85.6217" filterUnits="userSpaceOnUse" color-interpolation-filters="sRGB">
<feFlood flood-opacity="0" result="BackgroundImageFix"/>
<feColorMatrix in="SourceAlpha" type="matrix" values="0 0 0 0 0 0 0 0 0 0 0 0 0 0 0 0 0 0 127 0" result="hardAlpha"/>
<feOffset dx="3.34" dy="3.34"/>
<feGaussianBlur stdDeviation="4.17"/>
<feColorMatrix type="matrix" values="0 0 0 0 0 0 0 0 0 0 0 0 0 0 0 0 0 0 0.65 0"/>
<feBlend mode="normal" in2="BackgroundImageFix" result="effect1_dropShadow_286_218"/>
<feBlend mode="normal" in="SourceGraphic" in2="effect1_dropShadow_286_218" result="shape"/>
</filter>
</defs>
</svg>
