<svg width="120" height="154" viewBox="0 0 120 154" fill="none" xmlns="http://www.w3.org/2000/svg">
<g filter="url(#filter0_d_530_2)">
<path d="M92.603 78.532L87.5713 94.9871C87.329 95.789 87.7367 96.6409 88.5158 96.9498L104.522 103.262C105.875 103.793 105.879 105.712 104.524 106.243L88.5223 112.57C87.7448 112.877 87.3351 113.733 87.5821 114.532L92.6303 130.989C93.0597 132.38 91.5613 133.571 90.3003 132.854L75.3733 124.285C74.6507 123.865 73.7273 124.079 73.2537 124.771L63.5384 138.976C62.7202 140.178 60.8496 139.754 60.6304 138.317L58.0218 121.304C57.8941 120.479 57.1513 119.888 56.3182 119.947L39.1555 121.206C37.7035 121.313 36.8772 119.587 37.8572 118.519L49.5326 105.876C50.0973 105.261 50.0981 104.311 49.5328 103.703L37.8477 91.0667C36.8625 89.999 37.6888 88.2745 39.1401 88.3749L56.3037 89.6165C57.1385 89.6782 57.8813 89.0873 58.0046 88.2564L60.5953 71.2456C60.8155 69.8079 62.6777 69.3802 63.506 70.5804L73.2395 84.7748C73.71 85.4636 74.6346 85.6733 75.3632 85.2579L90.2776 76.6776C91.5396 75.9491 93.0336 77.1446 92.6089 78.5354L92.603 78.532Z" fill="#A9E846"/>
</g>
<g filter="url(#filter1_d_530_2)">
<path d="M41.3047 51.9288L32.7897 44.9471C32.377 44.6084 31.7702 44.6412 31.4007 45.0283L23.77 52.966C23.1267 53.6357 21.9912 53.1715 22.0048 52.2436L22.1533 41.2335C22.1598 40.6992 21.7554 40.2482 21.2219 40.1979L10.2588 39.1816C9.33224 39.093 8.99093 37.9181 9.72618 37.3501L18.426 30.6036C18.8476 30.2768 18.949 29.6756 18.6539 29.2296L12.6134 20.0268C12.1024 19.2488 12.8079 18.249 13.7133 18.4685L24.4137 21.0645C24.9333 21.1895 25.4636 20.8928 25.6321 20.3865L29.0645 9.9231C29.3554 9.04083 30.5786 8.96599 30.9697 9.81055L35.6086 19.7943C35.8342 20.2827 36.3958 20.5085 36.8991 20.3238L47.2185 16.4848C48.09 16.1598 48.908 17.0714 48.4961 17.9047L43.584 27.7569C43.3442 28.2339 43.5149 28.8182 43.9724 29.0952L53.411 34.7685C54.2087 35.2454 54.0087 36.4575 53.0958 36.6504L42.326 38.9533C41.802 39.0657 41.4525 39.5625 41.5211 40.0919L42.9682 51.0057C43.0891 51.9266 42.019 52.5229 41.3015 51.9319L41.3047 51.9288Z" fill="white"/>
</g>
<defs>
<filter id="filter0_d_530_2" x="31.418" y="63.882" width="88.1206" height="89.795" filterUnits="userSpaceOnUse" color-interpolation-filters="sRGB">
<feFlood flood-opacity="0" result="BackgroundImageFix"/>
<feColorMatrix in="SourceAlpha" type="matrix" values="0 0 0 0 0 0 0 0 0 0 0 0 0 0 0 0 0 0 127 0" result="hardAlpha"/>
<feOffset dx="4" dy="4"/>
<feGaussianBlur stdDeviation="5"/>
<feColorMatrix type="matrix" values="0 0 0 0 0 0 0 0 0 0 0 0 0 0 0 0 0 0 0.65 0"/>
<feBlend mode="normal" in2="BackgroundImageFix" result="effect1_dropShadow_530_2"/>
<feBlend mode="normal" in="SourceGraphic" in2="effect1_dropShadow_530_2" result="shape"/>
</filter>
<filter id="filter1_d_530_2" x="3.32739" y="3.21741" width="64.5818" height="64.0652" filterUnits="userSpaceOnUse" color-interpolation-filters="sRGB">
<feFlood flood-opacity="0" result="BackgroundImageFix"/>
<feColorMatrix in="SourceAlpha" type="matrix" values="0 0 0 0 0 0 0 0 0 0 0 0 0 0 0 0 0 0 127 0" result="hardAlpha"/>
<feOffset dx="4" dy="4"/>
<feGaussianBlur stdDeviation="5"/>
<feColorMatrix type="matrix" values="0 0 0 0 0 0 0 0 0 0 0 0 0 0 0 0 0 0 0.65 0"/>
<feBlend mode="normal" in2="BackgroundImageFix" result="effect1_dropShadow_530_2"/>
<feBlend mode="normal" in="SourceGraphic" in2="effect1_dropShadow_530_2" result="shape"/>
</filter>
</defs>
</svg>
