<svg width="64" height="71" viewBox="0 0 64 71" fill="none" xmlns="http://www.w3.org/2000/svg">
<g filter="url(#filter0_d_2617_3)">
<path d="M38.9195 35.1074C47.2795 36.9919 55.5844 31.7423 57.4688 23.3823C59.3532 15.0222 54.1037 6.71742 45.7437 4.83298C37.3836 2.94854 29.0788 8.19806 27.1944 16.5581C25.3099 24.9182 30.5594 33.223 38.9195 35.1074Z" fill="#213E72"/>
</g>
<path d="M42.8458 17.6409L39.5037 12.3536C39.257 11.9633 39.1336 11.7682 38.9634 11.6672C38.8138 11.5782 38.6396 11.5389 38.4663 11.5551C38.2693 11.5733 38.0741 11.6967 37.6838 11.9434L37.1261 12.2959C36.7358 12.5426 36.5407 12.666 36.4397 12.8362C36.3506 12.986 36.3114 13.16 36.3276 13.3333C36.3458 13.5303 36.4692 13.7255 36.7159 14.1158L40.058 19.403M44.6079 20.4286L47.9498 25.7156C48.1965 26.1059 48.3199 26.301 48.3381 26.4981C48.3543 26.6714 48.3151 26.8456 48.2261 26.9952C48.1251 27.1654 47.9299 27.2887 47.5396 27.5354L46.982 27.8877C46.5917 28.1344 46.3965 28.2578 46.1994 28.2762C46.0259 28.2921 45.852 28.2529 45.7023 28.1642C45.5321 28.0632 45.4088 27.868 45.1621 27.4775L41.8202 22.1906M40.0995 15.238L40.9761 14.6831M45.7066 24.109L46.5865 23.5588M46.4032 15.3932L48.1654 18.181M33.5389 25.5938L33.6372 25.3353C33.9854 24.4203 34.1595 23.9629 34.4125 23.5561C34.6371 23.1952 34.9071 22.8648 35.2163 22.573C35.5645 22.2442 35.9782 21.9825 36.8058 21.4596L48.2865 14.2026C49.0564 13.7161 50.075 13.9457 50.5615 14.7154C51.048 15.485 50.8184 16.5038 50.0487 16.9903L38.3574 24.3804C37.6067 24.855 37.2314 25.0922 36.8276 25.2572C36.4693 25.4037 36.0947 25.5074 35.7121 25.5667C35.281 25.6333 34.837 25.6232 33.9493 25.6032L33.5391 25.5939L33.5389 25.5938Z" stroke="#8EFE00" stroke-width="1.5" stroke-linecap="round" stroke-linejoin="round"/>
<g filter="url(#filter1_d_2617_3)">
<path d="M22.2961 56.9255C31.8401 56.0993 38.9073 47.6927 38.0812 38.1486C37.2551 28.6046 28.8484 21.5374 19.3044 22.3635C9.76039 23.1897 2.69315 31.5963 3.51928 41.1403C4.34542 50.6844 12.7521 57.7516 22.2961 56.9255Z" fill="#8EFE00"/>
</g>
<path d="M29.7564 36.237L20.1767 32.4405L11.3916 37.8266L15.9292 39.625M29.7561 36.237L25.595 38.7883L29.7561 36.237ZM29.7561 36.237L30.392 43.583L29.7561 36.237ZM29.7561 36.237L20.5739 37.0318L29.7561 36.237ZM15.9292 39.625L15.8057 44.7038C15.79 45.3462 16.1767 45.9303 16.7742 46.1672C19.7665 47.353 23.1427 47.0608 25.8871 45.3784C26.435 45.0426 26.7152 44.4005 26.5893 43.7703L25.595 38.7883M15.9292 39.625L20.9713 41.6231L25.595 38.7883" fill="#8EFE00"/>
<path d="M29.7564 36.237L20.1767 32.4405L11.3916 37.8266L15.9292 39.625M15.9292 39.625L15.8057 44.7038C15.79 45.3462 16.1767 45.9303 16.7742 46.1672C19.7665 47.353 23.1427 47.0608 25.8871 45.3784C26.435 45.0426 26.7152 44.4005 26.5893 43.7703L25.595 38.7883M15.9292 39.625L20.9713 41.6231L25.595 38.7883M29.7561 36.237L25.595 38.7883M29.7561 36.237L30.392 43.583M29.7561 36.237L20.5739 37.0318" stroke="#FF0098" stroke-width="2" stroke-linecap="round" stroke-linejoin="round"/>
<defs>
<filter id="filter0_d_2617_3" x="22.811" y="0.449707" width="51.041" height="51.0408" filterUnits="userSpaceOnUse" color-interpolation-filters="sRGB">
<feFlood flood-opacity="0" result="BackgroundImageFix"/>
<feColorMatrix in="SourceAlpha" type="matrix" values="0 0 0 0 0 0 0 0 0 0 0 0 0 0 0 0 0 0 127 0" result="hardAlpha"/>
<feOffset dx="6" dy="6"/>
<feGaussianBlur stdDeviation="5"/>
<feColorMatrix type="matrix" values="0 0 0 0 0 0 0 0 0 0 0 0 0 0 0 0 0 0 0.65 0"/>
<feBlend mode="normal" in2="BackgroundImageFix" result="effect1_dropShadow_2617_3"/>
<feBlend mode="normal" in="SourceGraphic" in2="effect1_dropShadow_2617_3" result="shape"/>
</filter>
<filter id="filter1_d_2617_3" x="0.113613" y="18.9579" width="51.3734" height="51.3734" filterUnits="userSpaceOnUse" color-interpolation-filters="sRGB">
<feFlood flood-opacity="0" result="BackgroundImageFix"/>
<feColorMatrix in="SourceAlpha" type="matrix" values="0 0 0 0 0 0 0 0 0 0 0 0 0 0 0 0 0 0 127 0" result="hardAlpha"/>
<feOffset dx="5" dy="5"/>
<feGaussianBlur stdDeviation="4.17"/>
<feColorMatrix type="matrix" values="0 0 0 0 0 0 0 0 0 0 0 0 0 0 0 0 0 0 0.65 0"/>
<feBlend mode="normal" in2="BackgroundImageFix" result="effect1_dropShadow_2617_3"/>
<feBlend mode="normal" in="SourceGraphic" in2="effect1_dropShadow_2617_3" result="shape"/>
</filter>
</defs>
</svg>
