<svg width="213" height="193" viewBox="0 0 213 193" fill="none" xmlns="http://www.w3.org/2000/svg">
<g filter="url(#filter0_d_501_2)">
<path d="M50.1216 111.164C77.6274 117.364 104.951 100.093 111.152 72.587C117.352 45.0812 100.08 17.7572 72.5742 11.5571C45.0684 5.35698 17.7443 22.6287 11.5443 50.1345C5.34417 77.6402 22.6159 104.964 50.1216 111.164Z" fill="#213E72"/>
</g>
<path d="M63.0414 53.6962L52.0454 36.3005C51.2337 35.0163 50.8278 34.3742 50.2678 34.0419C49.7757 33.7492 49.2025 33.6199 48.6324 33.6733C47.984 33.7332 47.3419 34.1391 46.0577 34.9508L44.2229 36.1106C42.9388 36.9223 42.2967 37.3282 41.9644 37.8882C41.6714 38.3811 41.5424 38.9535 41.5957 39.5236C41.6556 40.172 42.0615 40.8141 42.8733 42.0983L53.8692 59.494M68.8391 62.8684L79.8345 80.2631C80.6462 81.5473 81.0521 82.1894 81.112 82.8378C81.1653 83.4079 81.0361 83.9811 80.7433 84.4732C80.4111 85.0332 79.769 85.4391 78.4848 86.2508L76.6502 87.4098C75.366 88.2215 74.7239 88.6274 74.0753 88.6881C73.5046 88.7405 72.9322 88.6115 72.4399 88.3195C71.8799 87.9872 71.4741 87.3451 70.6625 86.0601L59.6672 68.6654M54.0057 45.7906L56.89 43.9647M72.4541 74.9772L75.349 73.1671M74.7459 46.3011L80.5437 55.4732M32.4203 79.8626L32.7439 79.012C33.8896 76.0017 34.4625 74.4965 35.2947 73.1583C36.0337 71.9709 36.9219 70.8839 37.9393 69.9236C39.0849 68.842 40.4461 67.9809 43.169 66.2604L80.9423 42.3837C83.4754 40.7831 86.8265 41.5385 88.4272 44.0709C90.0279 46.6032 89.2724 49.9551 86.74 51.5558L48.2741 75.8704C45.804 77.4318 44.5694 78.2121 43.2407 78.7552C42.0617 79.237 40.8294 79.5782 39.5707 79.7733C38.1523 79.9925 36.6915 79.9594 33.7707 79.8933L32.4211 79.8628L32.4203 79.8626Z" stroke="#8EFE00" stroke-width="5" stroke-linecap="round" stroke-linejoin="round"/>
<g filter="url(#filter1_d_501_2)">
<path d="M146.974 178.716C178.375 175.998 201.627 148.339 198.909 116.938C196.191 85.5367 168.532 62.2844 137.13 65.0025C105.729 67.7206 82.477 95.3798 85.1951 126.781C87.9132 158.182 115.572 181.434 146.974 178.716Z" fill="#8EFE00"/>
</g>
<path d="M171.519 110.648L140.001 98.1575L111.096 115.879L126.026 121.796M171.519 110.649L157.828 119.043L171.519 110.649ZM171.519 110.649L173.611 134.818L171.519 110.649ZM171.519 110.649L141.307 113.264L171.519 110.649ZM126.026 121.796L125.62 138.505C125.568 140.619 126.84 142.541 128.806 143.32C138.651 147.222 149.759 146.26 158.789 140.725C160.591 139.62 161.513 137.508 161.099 135.434L157.828 119.043M126.026 121.796L142.615 128.37L157.828 119.043" fill="#8EFE00"/>
<path d="M171.519 110.648L140.001 98.1575L111.096 115.879L126.026 121.796M126.026 121.796L125.62 138.505C125.568 140.619 126.84 142.541 128.806 143.32C138.651 147.222 149.759 146.26 158.789 140.725C160.591 139.62 161.513 137.508 161.099 135.434L157.828 119.043M126.026 121.796L142.615 128.37L157.828 119.043M171.518 110.649L157.828 119.043M171.518 110.649L173.611 134.818M171.518 110.649L141.307 113.264" stroke="#FF0098" stroke-width="6" stroke-linecap="round" stroke-linejoin="round"/>
<defs>
<filter id="filter0_d_501_2" x="6.2836" y="6.29639" width="122.129" height="122.129" filterUnits="userSpaceOnUse" color-interpolation-filters="sRGB">
<feFlood flood-opacity="0" result="BackgroundImageFix"/>
<feColorMatrix in="SourceAlpha" type="matrix" values="0 0 0 0 0 0 0 0 0 0 0 0 0 0 0 0 0 0 127 0" result="hardAlpha"/>
<feOffset dx="6" dy="6"/>
<feGaussianBlur stdDeviation="5"/>
<feColorMatrix type="matrix" values="0 0 0 0 0 0 0 0 0 0 0 0 0 0 0 0 0 0 0.65 0"/>
<feBlend mode="normal" in2="BackgroundImageFix" result="effect1_dropShadow_501_2"/>
<feBlend mode="normal" in="SourceGraphic" in2="effect1_dropShadow_501_2" result="shape"/>
</filter>
<filter id="filter1_d_501_2" x="81.6391" y="61.4465" width="130.826" height="130.826" filterUnits="userSpaceOnUse" color-interpolation-filters="sRGB">
<feFlood flood-opacity="0" result="BackgroundImageFix"/>
<feColorMatrix in="SourceAlpha" type="matrix" values="0 0 0 0 0 0 0 0 0 0 0 0 0 0 0 0 0 0 127 0" result="hardAlpha"/>
<feOffset dx="5" dy="5"/>
<feGaussianBlur stdDeviation="4.17"/>
<feColorMatrix type="matrix" values="0 0 0 0 0 0 0 0 0 0 0 0 0 0 0 0 0 0 0.65 0"/>
<feBlend mode="normal" in2="BackgroundImageFix" result="effect1_dropShadow_501_2"/>
<feBlend mode="normal" in="SourceGraphic" in2="effect1_dropShadow_501_2" result="shape"/>
</filter>
</defs>
</svg>
