<svg width="175" height="175" viewBox="0 0 175 175" fill="none" xmlns="http://www.w3.org/2000/svg">
<g filter="url(#filter0_d_46_125)">
<path d="M70.28 156.511C109.095 165.321 147.702 140.997 156.511 102.182C165.321 63.3678 140.997 24.7608 102.182 15.9512C63.3678 7.14159 24.7608 31.4654 15.9512 70.28C7.14158 109.095 31.4655 147.702 70.28 156.511Z" fill="#A9E846"/>
</g>
<path d="M109.392 46.8418C109.35 44.7984 110.962 43.1083 113.007 43.0585C115.053 43.0086 116.741 44.6285 116.791 46.6735L116.843 48.8384L121.435 44.0327C122.843 42.5568 125.188 42.5004 126.669 43.9168C128.145 45.3245 128.201 47.6691 126.785 49.1504L122.193 53.9561L124.358 53.9036C126.401 53.8609 128.091 55.4736 128.141 57.5187C128.184 59.5622 126.571 61.2522 124.526 61.3021L114.963 61.5229L87.0864 90.7009C85.6787 92.1767 83.3342 92.2331 81.8528 90.8167C80.3715 89.4003 80.3206 87.0645 81.737 85.5832L109.613 56.4052L109.392 46.8418Z" fill="#272826"/>
<path d="M103.683 57.2944C105.276 55.6224 104.97 52.9008 102.914 51.853C97.1 48.8796 90.4841 47.2737 83.5049 47.4329C61.033 47.9421 43.23 66.5782 43.7409 89.043C44.2501 111.515 62.8861 129.318 85.3509 128.807C107.823 128.298 125.626 109.662 125.115 87.197C124.954 80.2249 123.052 73.7067 119.831 68.0367C118.686 66.0261 115.957 65.8389 114.362 67.518L114.255 67.6278C113.063 68.8769 112.915 70.773 113.733 72.292C116.162 76.7842 117.592 81.9063 117.718 87.3582C118.135 105.742 103.575 120.987 85.1826 121.409C66.7992 121.825 51.5543 107.265 51.1322 88.8731C50.7156 70.4897 65.2757 55.2447 83.6678 54.8227C89.1339 54.7 94.3221 55.8999 98.9336 58.1311C100.49 58.8867 102.383 58.6533 103.577 57.3971L103.684 57.2873L103.683 57.2944Z" fill="#272826"/>
<path d="M92.8272 68.6572C94.5366 66.8698 94.025 63.9377 91.6571 63.2439C89.1829 62.5258 86.5526 62.1673 83.8416 62.2299C69.5396 62.5522 58.2138 74.4116 58.5362 88.7135C58.8585 103.016 70.7179 114.341 85.0198 114.019C99.3218 113.697 110.648 101.837 110.325 87.5353C110.267 84.8401 109.79 82.2439 108.971 79.8156C108.176 77.4748 105.223 77.095 103.514 78.8823L103.181 79.2315C102.164 80.297 101.909 81.8482 102.294 83.2691C102.681 84.6829 102.895 86.1693 102.934 87.7053C103.164 97.9187 95.0736 106.385 84.8586 106.622C74.6451 106.852 66.1784 98.7619 65.9417 88.5469C65.712 78.3334 73.802 69.8667 84.017 69.6299C85.5601 69.5928 87.0668 69.7485 88.505 70.0749C89.9432 70.4013 91.4923 70.075 92.5089 69.0095L92.8414 68.6604L92.8272 68.6572Z" fill="#272826"/>
<path d="M80.7783 77.663C82.2788 77.1244 83.0849 78.8569 81.9804 80.0142L79.0684 83.0632C76.2459 86.0133 76.3532 90.6937 79.3049 93.5091C82.255 96.3317 86.9354 96.2244 89.7509 93.2726L92.6249 90.2597C93.7294 89.1024 95.5006 89.8322 95.0209 91.3548C93.6347 95.7558 89.5378 99.1021 84.6777 99.2133C78.5528 99.3503 73.4701 94.5017 73.3276 88.3681C73.2141 83.4851 76.4082 79.2263 80.7729 77.6543L80.7783 77.663Z" fill="#272826"/>
<defs>
<filter id="filter0_d_46_125" x="10.148" y="10.1479" width="164.166" height="164.167" filterUnits="userSpaceOnUse" color-interpolation-filters="sRGB">
<feFlood flood-opacity="0" result="BackgroundImageFix"/>
<feColorMatrix in="SourceAlpha" type="matrix" values="0 0 0 0 0 0 0 0 0 0 0 0 0 0 0 0 0 0 127 0" result="hardAlpha"/>
<feOffset dx="6" dy="6"/>
<feGaussianBlur stdDeviation="5"/>
<feColorMatrix type="matrix" values="0 0 0 0 0 0 0 0 0 0 0 0 0 0 0 0 0 0 0.65 0"/>
<feBlend mode="normal" in2="BackgroundImageFix" result="effect1_dropShadow_46_125"/>
<feBlend mode="normal" in="SourceGraphic" in2="effect1_dropShadow_46_125" result="shape"/>
</filter>
</defs>
</svg>
