<svg width="190" height="131" viewBox="0 0 190 131" fill="none" xmlns="http://www.w3.org/2000/svg">
<path d="M161.361 55.5447L161.256 55.7553V55.9905V56.0347V56.5415L161.665 56.8412C162.959 57.7905 164.206 58.823 165.364 59.9376C172.452 66.855 176.03 75.6564 176.03 86.4669C176.03 99.5815 171.698 110.049 163.129 117.886L163.129 117.886C154.476 125.804 144.06 129.744 131.78 129.744C120.319 129.744 111.117 126.279 104.122 119.498C97.1305 112.721 93.5894 103.836 93.5894 92.8364C93.5894 86.9988 94.7125 81.5131 96.8726 76.3276C99.0924 71.1056 102.9 64.4446 108.409 56.424L108.41 56.4214L145.71 1.74384H188.154L161.361 55.5447Z" stroke="url(#paint0_linear_60_23)" stroke-width="2"/>
<path d="M69.0028 55.5447L68.8979 55.7553V55.9905V56.0347V56.5415L69.3066 56.8412C70.6012 57.7905 71.8483 58.823 73.006 59.9376C80.0941 66.855 83.6717 75.6564 83.6717 86.4669C83.6717 99.5815 79.3405 110.049 70.7712 117.886L70.771 117.886C62.1181 125.804 51.7025 129.744 39.4216 129.744C27.961 129.744 18.7591 126.279 11.7644 119.498C4.77257 112.721 1.23138 103.836 1.23138 92.8364C1.23138 86.9988 2.35458 81.5131 4.51468 76.3276C6.73441 71.1056 10.5419 64.4446 16.0506 56.424L16.0524 56.4214L53.3525 1.74384H95.7956L69.0028 55.5447Z" stroke="url(#paint1_linear_60_23)" stroke-width="2"/>
<defs>
<linearGradient id="paint0_linear_60_23" x1="141.179" y1="0.743835" x2="141.179" y2="130.744" gradientUnits="userSpaceOnUse">
<stop stop-color="#FF0098"/>
<stop offset="1" stop-color="#7039C7"/>
</linearGradient>
<linearGradient id="paint1_linear_60_23" x1="48.821" y1="0.743835" x2="48.821" y2="130.744" gradientUnits="userSpaceOnUse">
<stop stop-color="#FF0098"/>
<stop offset="1" stop-color="#7039C7"/>
</linearGradient>
</defs>
</svg>
