<svg width="190" height="131" viewBox="0 0 190 131" fill="none" xmlns="http://www.w3.org/2000/svg">
<path d="M178.364 11.985L179.071 12.6791L179.106 12.6447C185.544 19.3267 188.769 27.9777 188.769 38.6071C188.769 44.4447 187.645 49.9305 185.485 55.1161C183.266 60.3381 179.458 66.999 173.949 75.0195L173.948 75.0221L136.648 129.7H94.2045L120.997 75.8987L121.373 75.1447L120.693 74.6465C119.399 73.6971 118.152 72.6646 116.994 71.55C109.906 64.6326 106.328 55.8312 106.328 45.0208C106.328 31.9083 110.658 21.4835 119.23 13.6005C127.883 5.68369 138.298 1.74384 150.578 1.74384C162.221 1.74384 171.462 5.21204 178.364 11.985Z" stroke="url(#paint0_linear_60_26)" stroke-width="2"/>
<path d="M96.3664 38.6513V40.6037C96.1391 45.7003 95.0394 50.5258 93.1273 55.1161C90.9075 60.3381 87.1001 66.999 81.5914 75.0195L81.5897 75.0221L44.2896 129.7H1.84653L28.6393 75.8987L29.0148 75.1447L28.3355 74.6465C27.0408 73.6971 25.7937 72.6646 24.636 71.55C17.548 64.6326 13.9704 55.8312 13.9704 45.0208C13.9704 31.9083 18.3002 21.4835 26.872 13.6005C35.5247 5.68369 45.9401 1.74384 58.2205 1.74384C69.863 1.74384 79.1044 5.21204 86.0059 11.985C92.909 18.7595 96.3664 27.6448 96.3664 38.6513Z" stroke="url(#paint1_linear_60_26)" stroke-width="2"/>
<defs>
<linearGradient id="paint0_linear_60_26" x1="141.179" y1="0.743835" x2="141.179" y2="130.7" gradientUnits="userSpaceOnUse">
<stop stop-color="#7039C7"/>
<stop offset="1" stop-color="#FF0098"/>
</linearGradient>
<linearGradient id="paint1_linear_60_26" x1="48.821" y1="0.743835" x2="48.821" y2="130.7" gradientUnits="userSpaceOnUse">
<stop stop-color="#7039C7"/>
<stop offset="1" stop-color="#FF0098"/>
</linearGradient>
</defs>
</svg>
