<svg width="232" height="165" viewBox="0 0 232 165" fill="none" xmlns="http://www.w3.org/2000/svg">
<g filter="url(#filter0_d_728_2)">
<path d="M139.841 145.975C170.405 155.712 203.074 138.829 212.811 108.265C222.547 77.7022 205.664 45.0326 175.101 35.296C144.538 25.5593 111.868 42.4426 102.131 73.0059C92.3947 103.569 109.278 136.239 139.841 145.975Z" fill="#FF0098"/>
</g>
<path d="M159.909 82.9197C158.472 79.5697 154.905 77.6558 151.29 79.1517C147.676 80.6488 145.994 84.5398 147.325 88.0958C148.115 90.2051 150.399 94.2606 152.125 97.2108C152.842 98.435 153.2 99.0476 153.748 99.4237C154.217 99.7455 154.818 99.9368 155.386 99.9456C156.051 99.9559 156.698 99.6635 157.99 99.0794C161.106 97.6717 165.314 95.6846 167.179 94.4206C170.321 92.2899 171.258 88.1333 169.118 84.8311C166.978 81.529 163.017 81.0178 159.907 82.9191L159.909 82.9197Z" stroke="#8EFE00" stroke-width="7" stroke-linecap="round" stroke-linejoin="round"/>
<path d="M182.988 98.7647C178.498 112.858 163.435 120.642 149.343 116.152L123.828 108.024C123.828 108.024 131.63 98.8174 130.994 94.695C130.384 90.7373 130.656 86.5817 131.954 82.5067C136.444 68.4139 151.507 60.6294 165.6 65.119C179.692 69.6086 187.477 84.6717 182.987 98.7645L182.988 98.7647Z" stroke="#8EFE00" stroke-width="7" stroke-linecap="round" stroke-linejoin="round"/>
<g filter="url(#filter1_d_728_2)">
<path d="M73.7342 112.875C101.754 106.575 119.361 78.7538 113.062 50.7341C106.762 22.7144 78.9407 5.10691 50.921 11.4066C22.9013 17.7063 5.29379 45.5276 11.5935 73.5473C17.8932 101.567 45.7145 119.175 73.7342 112.875Z" fill="#7039C7"/>
</g>
<path d="M60.0385 51.9975C57.1022 49.8653 53.0422 50.0271 50.6596 53.1201C48.277 56.2132 48.7794 60.3744 51.7277 62.7361C53.4809 64.1399 57.522 66.4559 60.5106 68.1036C61.7445 68.7837 62.361 69.1234 63.0219 69.1692C63.5872 69.208 64.1996 69.0704 64.6939 68.7933C65.2716 68.469 65.6833 67.8981 66.5074 66.7554C68.5033 63.9879 71.1642 60.1651 72.1477 58.1451C73.8014 54.7487 72.5184 50.7353 68.9971 48.9973C65.4758 47.2593 61.7813 48.8133 60.0403 51.9971L60.0385 51.9975Z" stroke="#48E580" stroke-width="6" stroke-linejoin="round"/>
<path d="M32.8549 54.0221C32.1184 50.7465 31.7502 49.1087 32.1067 47.7144C32.4199 46.4883 33.1136 45.3924 34.0876 44.5845C35.1951 43.6655 36.8329 43.2973 40.1084 42.5609L74.0281 34.9347C77.3037 34.1983 78.9414 33.83 80.3358 34.1865C81.5618 34.4998 82.6578 35.1934 83.4656 36.1674C84.3846 37.2749 84.7528 38.9127 85.4893 42.1883L93.9044 79.6168L83.091 76.9416C82.2713 76.7388 81.8615 76.6374 81.4463 76.5944C81.0775 76.5566 80.7061 76.5525 80.3367 76.5821C79.9206 76.6167 79.5083 76.7094 78.6846 76.8946L49.3133 83.4981C46.0378 84.2346 44.4 84.6028 43.0057 84.2463C41.7796 83.9331 40.6836 83.2395 39.8758 82.2655C38.9568 81.158 38.5886 79.5202 37.8521 76.2446L32.8558 54.0219L32.8549 54.0221Z" stroke="#48E580" stroke-width="6" stroke-linejoin="round"/>
<defs>
<filter id="filter0_d_728_2" x="95.3754" y="28.54" width="136.191" height="136.191" filterUnits="userSpaceOnUse" color-interpolation-filters="sRGB">
<feFlood flood-opacity="0" result="BackgroundImageFix"/>
<feColorMatrix in="SourceAlpha" type="matrix" values="0 0 0 0 0 0 0 0 0 0 0 0 0 0 0 0 0 0 127 0" result="hardAlpha"/>
<feOffset dx="6" dy="6"/>
<feGaussianBlur stdDeviation="5"/>
<feColorMatrix type="matrix" values="0 0 0 0 0 0 0 0 0 0 0 0 0 0 0 0 0 0 0.65 0"/>
<feBlend mode="normal" in2="BackgroundImageFix" result="effect1_dropShadow_728_2"/>
<feBlend mode="normal" in="SourceGraphic" in2="effect1_dropShadow_728_2" result="shape"/>
</filter>
<filter id="filter1_d_728_2" x="6.31573" y="6.12888" width="124.024" height="124.024" filterUnits="userSpaceOnUse" color-interpolation-filters="sRGB">
<feFlood flood-opacity="0" result="BackgroundImageFix"/>
<feColorMatrix in="SourceAlpha" type="matrix" values="0 0 0 0 0 0 0 0 0 0 0 0 0 0 0 0 0 0 127 0" result="hardAlpha"/>
<feOffset dx="6" dy="6"/>
<feGaussianBlur stdDeviation="5"/>
<feColorMatrix type="matrix" values="0 0 0 0 0 0 0 0 0 0 0 0 0 0 0 0 0 0 0.65 0"/>
<feBlend mode="normal" in2="BackgroundImageFix" result="effect1_dropShadow_728_2"/>
<feBlend mode="normal" in="SourceGraphic" in2="effect1_dropShadow_728_2" result="shape"/>
</filter>
</defs>
</svg>
