<svg width="758" height="154" viewBox="0 0 758 154" fill="none" xmlns="http://www.w3.org/2000/svg">
<path d="M160.421 10.7175V34.7527H146.927C146.927 32.9207 146.872 31.3347 146.763 29.9949C146.681 28.6277 146.476 27.5339 146.148 26.7136C145.819 25.866 145.314 25.2507 144.63 24.8679C143.974 24.4578 143.085 24.2527 141.964 24.2527H139.421V51.323C139.421 53.1003 139.941 54.3171 140.98 54.9734C142.019 55.6023 143.741 55.9167 146.148 55.9167V71.1335H108.536V55.9167C110.943 55.9167 112.651 55.6023 113.663 54.9734C114.702 54.3171 115.222 53.1003 115.222 51.323V24.2527H112.72C111.599 24.2527 110.696 24.4578 110.013 24.8679C109.357 25.2507 108.851 25.866 108.495 26.7136C108.167 27.5339 107.962 28.6277 107.88 29.9949C107.798 31.3347 107.757 32.9207 107.757 34.7527H94.2218V10.7175H160.421ZM200.308 10.7175V25.9343C198.23 25.9343 196.781 26.2625 195.96 26.9187C195.167 27.5476 194.771 28.6003 194.771 30.0769V49.0261C194.771 50.0378 194.88 51.0085 195.099 51.9382C195.318 52.8679 195.687 53.7019 196.206 54.4402C196.753 55.1511 197.464 55.7253 198.339 56.1628C199.241 56.573 200.376 56.7781 201.743 56.7781C204.368 56.7781 206.283 56.0945 207.486 54.7273C208.689 53.3328 209.29 51.4597 209.29 49.1082V30.241C209.29 28.5457 208.784 27.4109 207.773 26.8367C206.761 26.2351 205.366 25.9343 203.589 25.9343V10.7175H230.618V25.9343C228.786 25.9343 227.378 26.2078 226.394 26.7546C225.409 27.2742 224.917 28.3816 224.917 30.0769V49.6414C224.917 52.157 224.589 54.782 223.933 57.5164C223.304 60.2234 222.046 62.7117 220.159 64.9812C218.3 67.2234 215.634 69.0964 212.161 70.6003C208.689 72.0769 204.095 72.8152 198.38 72.8152C194.224 72.8152 190.642 72.4324 187.634 71.6667C184.654 70.9285 182.124 69.9441 180.046 68.7136C177.968 67.4832 176.314 66.0886 175.083 64.53C173.853 62.9441 172.896 61.3171 172.212 59.6492C171.556 57.9539 171.118 56.3132 170.9 54.7273C170.681 53.114 170.572 51.6375 170.572 50.2976V30.5691C170.572 28.7644 170.052 27.5476 169.013 26.9187C167.974 26.2625 166.251 25.9343 163.845 25.9343V10.7175H200.308ZM195.437 90.7175V114.753H181.943C181.943 112.921 181.888 111.335 181.779 109.995C181.697 108.628 181.492 107.534 181.163 106.714C180.835 105.866 180.329 105.251 179.646 104.868C178.99 104.458 178.101 104.253 176.98 104.253H174.437V131.323C174.437 133.1 174.956 134.317 175.995 134.973C177.035 135.602 178.757 135.917 181.163 135.917V151.134H143.552V135.917C145.958 135.917 147.667 135.602 148.679 134.973C149.718 134.317 150.238 133.1 150.238 131.323V104.253H147.736C146.615 104.253 145.712 104.458 145.029 104.868C144.372 105.251 143.867 105.866 143.511 106.714C143.183 107.534 142.978 108.628 142.896 109.995C142.814 111.335 142.773 112.921 142.773 114.753H129.238V90.7175H195.437ZM237.169 135.917C238.291 135.917 239.22 135.821 239.959 135.63C240.724 135.438 241.326 135.083 241.763 134.563C242.228 134.016 242.542 133.278 242.707 132.348C242.871 131.419 242.953 130.229 242.953 128.78H257.308V151.134H198.861V135.917C201.267 135.917 202.99 135.602 204.029 134.973C205.068 134.317 205.587 133.1 205.587 131.323V110.569C205.587 108.764 205.068 107.548 204.029 106.919C202.99 106.262 201.267 105.934 198.861 105.934V90.7175H257.308V113.071H242.953C242.953 111.622 242.871 110.432 242.707 109.503C242.542 108.573 242.228 107.848 241.763 107.329C241.326 106.809 240.724 106.454 239.959 106.262C239.22 106.044 238.291 105.934 237.169 105.934H229.787V116.844H242.871V124.104H229.787V135.917H237.169Z" fill="#EDEDED"/>
<path d="M265.89 30.5691C265.562 29.7214 265.248 29.0242 264.947 28.4773C264.673 27.9031 264.291 27.4246 263.798 27.0417C263.334 26.6316 262.732 26.3445 261.994 26.1804C261.283 26.0164 260.339 25.9343 259.164 25.9343V10.7175H294.765V25.9343C290.691 25.9343 289.132 27.3152 290.089 30.0769L296.447 49.9695H296.816L303.338 30.0769C304.295 27.3152 302.736 25.9343 298.662 25.9343V10.7175H322.492V25.9343C321.316 25.9343 320.359 26.0164 319.621 26.1804C318.91 26.3445 318.308 26.6316 317.816 27.0417C317.351 27.4246 316.982 27.9031 316.709 28.4773C316.435 29.0242 316.121 29.7214 315.765 30.5691L299.892 71.1335H281.681L265.89 30.5691ZM346.768 71.3015C340.216 71.3015 334.98 69.3695 331.06 65.5055C327.196 61.5855 325.264 56.0695 325.264 48.9575C325.264 44.5895 326.16 40.7535 327.952 37.4495C329.744 34.1455 332.236 31.5695 335.428 29.7215C338.676 27.8175 342.456 26.8655 346.768 26.8655C351.584 26.8655 355.588 27.8175 358.78 29.7215C361.972 31.5695 364.352 34.1455 365.92 37.4495C367.544 40.7535 368.356 44.5895 368.356 48.9575C368.356 56.0695 366.564 61.5855 362.98 65.5055C359.452 69.3695 354.048 71.3015 346.768 71.3015ZM335.26 47.5295C335.26 49.2655 336.128 50.4975 337.864 51.2255C339.6 51.8975 342.568 52.2335 346.768 52.2335C350.968 52.2335 353.936 51.8975 355.672 51.2255C357.408 50.4975 358.276 49.2655 358.276 47.5295C358.276 45.8495 357.408 44.6735 355.672 44.0015C353.936 43.3295 350.968 42.9935 346.768 42.9935C342.568 42.9935 339.6 43.3295 337.864 44.0015C336.128 44.6735 335.26 45.8495 335.26 47.5295ZM403.332 35.1628C400.98 35.1628 399.176 36.1609 397.918 38.157C396.66 40.1531 396.031 43.4753 396.031 48.1238C396.031 52.7722 396.674 56.0808 397.959 58.0496C399.271 59.991 401.268 60.9617 403.947 60.9617C404.713 60.9617 405.492 60.8386 406.285 60.5925C407.078 60.3464 407.789 59.991 408.418 59.5261C409.074 59.0339 409.607 58.4187 410.018 57.6804C410.455 56.9148 410.701 56.0261 410.756 55.0144H424.004C423.129 61.1121 420.668 65.6238 416.621 68.5496C412.602 71.448 406.859 72.8972 399.394 72.8972C395.648 72.8972 392.148 72.405 388.894 71.4207C385.641 70.4363 382.81 68.946 380.404 66.95C377.998 64.9265 376.111 62.3972 374.744 59.3621C373.377 56.2996 372.693 52.6628 372.693 48.4519C372.693 44.4324 373.377 40.905 374.744 37.8699C376.111 34.8347 378.025 32.3054 380.486 30.282C382.975 28.2312 385.9 26.6863 389.264 25.6472C392.654 24.6082 396.373 24.0886 400.42 24.0886C404.713 24.0886 408.336 24.6218 411.289 25.6882C414.242 26.7546 416.621 28.0945 418.426 29.7078C420.258 31.2937 421.557 33.0164 422.322 34.8757C423.115 36.7078 423.512 38.4304 423.512 40.0437C423.512 41.3289 423.32 42.5867 422.937 43.8171C422.582 45.0476 421.98 46.1687 421.133 47.1804C420.312 48.1921 419.26 49.0125 417.975 49.6414C416.689 50.2429 415.117 50.5437 413.258 50.5437C411.48 50.5437 410.031 50.2976 408.91 49.8054C407.789 49.2859 406.914 48.657 406.285 47.9187C405.684 47.1531 405.246 46.3601 404.973 45.5398C404.727 44.6921 404.603 43.8992 404.603 43.1609C404.603 41.4929 405 40.1667 405.793 39.1824C406.586 38.198 407.502 37.5144 408.541 37.1316C407.939 36.6667 407.324 36.2292 406.695 35.8191C406.094 35.3816 404.973 35.1628 403.332 35.1628ZM456.801 26.6975C463.241 26.6975 468.393 27.9015 472.257 30.3095C476.121 32.6615 478.053 36.2735 478.053 41.1455C478.053 42.9935 477.717 45.0935 477.045 47.4455L473.601 59.0375C473.545 59.2615 473.517 59.5415 473.517 59.8775C473.517 60.7735 473.881 61.2215 474.609 61.2215C475.281 61.2215 475.841 60.9415 476.289 60.3815C476.793 59.7655 477.129 59.4575 477.297 59.4575C477.577 59.4575 477.801 59.6535 477.969 60.0455C478.193 60.4375 478.305 60.8855 478.305 61.3895C478.361 62.9015 477.773 64.4415 476.541 66.0095C475.365 67.5775 473.769 68.8655 471.753 69.8735C469.737 70.8815 467.525 71.3855 465.117 71.3855C462.205 71.3855 459.713 70.8535 457.641 69.7895C455.569 68.7255 454.141 67.1575 453.357 65.0855C451.677 67.1015 449.689 68.6695 447.393 69.7895C445.097 70.8535 442.633 71.3855 440.001 71.3855C437.033 71.3855 434.541 70.8255 432.525 69.7055C430.509 68.5295 428.997 67.0455 427.989 65.2535C427.037 63.4055 426.561 61.4735 426.561 59.4575C426.561 58.5615 426.645 57.6935 426.813 56.8535C427.709 52.9895 429.641 50.0775 432.609 48.1175C435.633 46.1575 439.217 45.1775 443.361 45.1775C448.009 45.1775 452.573 45.9055 457.053 47.3615L459.153 41.8175C459.881 39.4655 460.245 37.6455 460.245 36.3575C460.189 35.0135 459.741 34.0055 458.901 33.3335C458.061 32.6615 456.773 32.3255 455.037 32.3255C455.373 33.2215 455.541 34.1455 455.541 35.0975C455.541 37.1695 454.757 38.9615 453.189 40.4735C451.621 41.9855 449.381 42.7415 446.469 42.7415C443.725 42.7415 441.569 42.1535 440.001 40.9775C438.489 39.7455 437.733 38.2335 437.733 36.4415C437.733 33.6415 439.301 31.3175 442.437 29.4695C445.573 27.6215 450.361 26.6975 456.801 26.6975ZM452.097 52.1495C450.529 52.1495 449.241 52.7655 448.233 53.9975C447.281 55.1735 446.805 56.4615 446.805 57.8615C446.805 58.7575 447.001 59.4855 447.393 60.0455C447.841 60.6055 448.457 60.8855 449.241 60.8855C449.969 60.8855 450.753 60.6055 451.593 60.0455C452.489 59.4295 453.133 58.5335 453.525 57.3575L455.289 52.4015C454.337 52.2335 453.273 52.1495 452.097 52.1495ZM506.47 71.3855C502.102 71.3855 498.238 70.4895 494.878 68.6975C491.518 66.8495 488.886 64.2455 486.982 60.8855C485.078 57.5255 484.126 53.5775 484.126 49.0415C484.126 44.5055 485.078 40.5575 486.982 37.1975C488.886 33.8375 491.518 31.2335 494.878 29.3855C498.294 27.5375 502.214 26.6135 506.638 26.6135C510.11 26.6135 513.162 26.9775 515.794 27.7055C518.482 28.4335 520.582 29.5255 522.094 30.9815C523.662 32.4375 524.446 34.2575 524.446 36.4415C524.446 39.0735 523.774 41.1455 522.43 42.6575C521.086 44.1135 519.154 44.8415 516.634 44.8415C514.954 44.8415 513.274 44.5895 511.594 44.0855C509.97 43.5815 507.87 43.3295 505.294 43.3295C503.166 43.3295 501.374 43.6655 499.918 44.3375C498.462 45.0095 497.734 46.2415 497.734 48.0335C497.734 49.8815 498.462 51.2255 499.918 52.0655C501.374 52.8495 503.166 53.2415 505.294 53.2415C507.03 53.2415 508.486 53.0735 509.662 52.7375C510.838 52.4015 511.958 52.0655 513.022 51.7295C514.086 51.3935 515.29 51.2255 516.634 51.2255C519.49 51.2255 521.59 52.0655 522.934 53.7455C524.334 55.3695 525.034 57.4695 525.034 60.0455C525.034 62.2295 524.222 64.1895 522.598 65.9255C520.974 67.6055 518.762 68.9495 515.962 69.9575C513.162 70.9095 509.998 71.3855 506.47 71.3855ZM550.432 13.3835L547.561 69.2468L530.252 70.1492L528.612 14.532L550.432 13.3835ZM585.052 26.6975C592.668 26.6975 598.268 28.2375 601.852 31.3175C605.492 34.3975 607.312 38.4295 607.312 43.4135C607.312 45.0935 607.088 46.9695 606.64 49.0415C605.576 53.6335 603.588 57.6655 600.676 61.1375C597.764 64.5535 594.18 67.2135 589.924 69.1175C585.724 70.9655 581.16 71.8895 576.232 71.8895C568.448 71.8895 562.68 70.3495 558.928 67.2695C555.232 64.1335 553.384 59.9895 553.384 54.8375C553.384 53.1015 553.608 51.1695 554.056 49.0415C555.12 44.6735 557.136 40.8095 560.104 37.4495C563.128 34.0335 566.796 31.4015 571.108 29.5535C575.476 27.6495 580.124 26.6975 585.052 26.6975ZM584.8 34.1735C583.624 34.1735 582.364 35.2375 581.02 37.3655C579.732 39.4375 578.192 43.3855 576.4 49.2095C574.608 55.0335 573.712 59.1215 573.712 61.4735C573.712 62.7055 573.908 63.5455 574.3 63.9935C574.692 64.3855 575.224 64.5815 575.896 64.5815C577.072 64.6935 578.276 63.6855 579.508 61.5575C580.796 59.4295 582.392 55.2855 584.296 49.1255C586.032 43.6935 586.9 39.7455 586.9 37.2815C586.9 36.1055 586.704 35.2935 586.312 34.8455C585.976 34.3975 585.472 34.1735 584.8 34.1735ZM592.528 13.9295C593.872 11.5775 595.244 9.86954 596.644 8.80554C598.1 7.74154 599.836 7.20954 601.852 7.20954C603.588 7.20954 604.96 7.68554 605.968 8.63754C606.976 9.53354 607.48 10.7655 607.48 12.3335C607.48 14.0135 606.92 15.4695 605.8 16.7015C604.68 17.9335 602.86 19.1655 600.34 20.3975L593.032 23.9255C591.968 24.3735 591.072 24.5975 590.344 24.5975C589.672 24.5975 589.112 24.4295 588.664 24.0935C588.272 23.7575 588.076 23.2535 588.076 22.5815C588.076 21.8535 588.356 21.0135 588.916 20.0615L592.528 13.9295ZM661.501 50.3796C661.501 53.4695 661.46 56.532 661.378 59.5671C661.323 62.575 661.227 65.6101 661.091 68.6726L637.466 68.2625C638.286 63.4226 638.997 58.5964 639.598 53.7839C640.2 48.9441 640.501 44.0632 640.501 39.1414C640.501 38.7859 640.487 38.2117 640.46 37.4187C640.432 36.6257 640.378 35.7371 640.296 34.7527C640.214 33.741 640.091 32.7156 639.927 31.6765C639.79 30.6101 639.585 29.6394 639.311 28.7644C639.065 27.8894 638.751 27.1785 638.368 26.6316C638.012 26.0574 637.575 25.7703 637.055 25.7703C636.126 25.7703 635.333 26.0437 634.677 26.5906C634.048 27.1375 633.514 27.8484 633.077 28.7234C632.667 29.571 632.339 30.5281 632.093 31.5945C631.846 32.6609 631.655 33.7273 631.518 34.7937C631.409 35.8601 631.327 36.8718 631.272 37.8289C631.245 38.7585 631.231 39.5242 631.231 40.1257C631.094 44.9656 630.985 49.7781 630.903 54.5632C630.821 59.321 630.712 64.1335 630.575 69.0007L609.657 69.9031C610.204 60.2507 610.723 50.6531 611.216 41.1101C611.735 31.5671 612.145 21.9695 612.446 12.3171L631.805 11.3328L631.641 17.8953C632.407 16.9656 633.227 16.0906 634.102 15.2703C635.005 14.45 635.962 13.7527 636.973 13.1785C637.985 12.5769 639.052 12.1121 640.173 11.7839C641.321 11.4285 642.524 11.2507 643.782 11.2507C646.106 11.2507 648.143 11.6335 649.893 12.3992C651.643 13.1648 653.147 14.2039 654.405 15.5164C655.663 16.8289 656.716 18.3875 657.563 20.1921C658.411 21.9695 659.094 23.8699 659.614 25.8933C660.134 27.9167 660.53 30.0359 660.803 32.2507C661.077 34.4382 661.255 36.5984 661.337 38.7312C661.446 40.864 661.501 42.9285 661.501 44.9246C661.501 46.9207 661.501 48.739 661.501 50.3796Z" fill="url(#paint0_linear_675_3)"/>
<path d="M331.842 151.134H296.226C293.482 151.134 291.634 150.938 290.682 150.546C289.73 150.154 289.254 149.538 289.254 148.698V95.5255C289.254 94.0695 289.898 93.0335 291.186 92.4175C292.53 91.8015 294.91 91.4935 298.326 91.4935H332.094C333.27 91.4935 333.858 93.4535 333.858 97.3735C333.858 101.238 333.606 104.206 333.102 106.278C332.598 108.294 331.926 109.302 331.086 109.302C327.446 109.302 321.314 108.938 312.69 108.21V113.838C320.978 113.502 326.382 113.334 328.902 113.334C330.414 113.334 331.17 115.098 331.17 118.626C331.17 122.154 330.862 124.842 330.246 126.69C329.686 128.482 328.902 129.378 327.894 129.378L312.69 129.042V134.418C322.434 133.69 329.154 133.326 332.85 133.326C334.026 133.326 334.614 135.286 334.614 139.206C334.614 143.126 334.362 146.094 333.858 148.11C333.354 150.126 332.682 151.134 331.842 151.134ZM384.12 147.606C382.44 148.838 380.088 149.874 377.064 150.714C374.096 151.498 370.232 151.89 365.472 151.89C360.768 151.89 356.288 151.498 352.032 150.714C347.776 149.93 344.724 149.062 342.876 148.11C341.028 147.158 340.104 146.234 340.104 145.338C340.104 142.202 340.552 138.954 341.448 135.594C342.344 132.178 343.408 130.47 344.64 130.47C344.864 130.47 347.188 131.226 351.612 132.738C356.036 134.25 359.368 135.006 361.608 135.006C363.848 135.006 365.304 134.782 365.976 134.334C366.648 133.83 366.984 133.13 366.984 132.234C366.984 131.338 366.368 130.554 365.136 129.882C363.904 129.154 362.364 128.538 360.516 128.034C358.668 127.474 356.652 126.69 354.468 125.682C352.34 124.674 350.352 123.554 348.504 122.322C346.656 121.09 345.116 119.354 343.884 117.114C342.652 114.818 342.036 112.214 342.036 109.302C342.036 96.8695 349.456 90.6535 364.296 90.6535C369.84 90.6535 374.628 91.0175 378.66 91.7455C382.692 92.4175 385.52 93.2015 387.144 94.0975C388.824 94.9375 389.664 95.7775 389.664 96.6175C389.664 99.5295 388.964 102.666 387.564 106.026C386.22 109.386 384.904 111.066 383.616 111.066C383.392 111.066 382.664 110.814 381.432 110.31C377.736 108.686 374.656 107.874 372.192 107.874C369.784 107.874 368.132 108.098 367.236 108.546C366.396 108.994 365.976 109.694 365.976 110.646C365.976 111.542 366.592 112.298 367.824 112.914C369.056 113.474 370.568 114.006 372.36 114.51C374.208 114.958 376.196 115.686 378.324 116.694C380.508 117.646 382.524 118.794 384.372 120.138C386.22 121.426 387.76 123.274 388.992 125.682C390.224 128.09 390.84 130.89 390.84 134.082C390.84 137.442 389.972 140.494 388.236 143.238C387.172 144.918 385.8 146.374 384.12 147.606ZM420.517 148.698C420.517 149.426 418.809 150.014 415.393 150.462C411.977 150.91 408.561 151.134 405.145 151.134C401.729 151.134 399.545 150.938 398.593 150.546C397.641 150.154 397.165 149.538 397.165 148.698V94.6855C397.165 91.9975 405.229 90.6535 421.357 90.6535C431.101 90.6535 437.541 91.3255 440.677 92.6695C444.485 94.2375 447.061 96.3655 448.405 99.0535C450.197 102.526 451.093 106.978 451.093 112.41C451.093 119.858 449.805 125.262 447.229 128.622C445.381 131.086 443.533 132.682 441.685 133.41C439.837 134.138 438.297 134.67 437.065 135.006C435.889 135.286 434.405 135.51 432.613 135.678C430.149 135.902 426.789 136.014 422.533 136.014L420.517 135.93V148.698ZM420.601 121.986H422.617C423.681 121.986 424.521 121.846 425.137 121.566C425.753 121.23 426.285 120.39 426.733 119.046C427.237 117.646 427.489 115.714 427.489 113.25C427.489 110.73 427.209 108.826 426.649 107.538C426.145 106.194 425.613 105.41 425.053 105.186C424.549 104.906 423.933 104.766 423.205 104.766H420.601V121.986ZM499.983 151.134H464.367C461.623 151.134 459.775 150.938 458.823 150.546C457.871 150.154 457.395 149.538 457.395 148.698V95.5255C457.395 94.0695 458.039 93.0335 459.327 92.4175C460.671 91.8015 463.051 91.4935 466.467 91.4935H500.235C501.411 91.4935 501.999 93.4535 501.999 97.3735C501.999 101.238 501.747 104.206 501.243 106.278C500.739 108.294 500.067 109.302 499.227 109.302C495.587 109.302 489.455 108.938 480.831 108.21V113.838C489.119 113.502 494.523 113.334 497.043 113.334C498.555 113.334 499.311 115.098 499.311 118.626C499.311 122.154 499.003 124.842 498.387 126.69C497.827 128.482 497.043 129.378 496.035 129.378L480.831 129.042V134.418C490.575 133.69 497.295 133.326 500.991 133.326C502.167 133.326 502.755 135.286 502.755 139.206C502.755 143.126 502.503 146.094 501.999 148.11C501.495 150.126 500.823 151.134 499.983 151.134ZM533.025 148.698C533.025 149.426 531.317 150.014 527.901 150.462C524.485 150.91 521.041 151.134 517.569 151.134C514.153 151.134 511.941 150.938 510.933 150.546C509.981 150.154 509.505 149.538 509.505 148.698V94.6855C509.505 93.2295 511.325 92.1935 514.965 91.5775C518.661 90.9615 523.309 90.6535 528.909 90.6535C534.509 90.6535 538.121 90.6815 539.745 90.7375C541.425 90.7375 543.385 90.8215 545.625 90.9895C547.865 91.1575 549.629 91.4375 550.917 91.8295C552.261 92.2215 553.717 92.7255 555.285 93.3415C556.909 93.9575 558.169 94.7695 559.065 95.7775C559.961 96.7295 560.829 97.8775 561.669 99.2215C563.181 101.63 563.937 105.074 563.937 109.554C563.937 113.978 563.181 117.73 561.669 120.81C560.213 123.834 558.253 126.13 555.789 127.698C562.229 137.834 565.449 144.274 565.449 147.018C565.449 149.762 559.933 151.134 548.901 151.134C545.709 151.134 543.497 150.994 542.265 150.714C541.033 150.434 540.249 149.818 539.913 148.866L534.453 131.562L533.025 131.478V148.698ZM533.025 118.542H535.209C538.457 118.542 540.081 116.022 540.081 110.982C540.081 108.406 539.633 106.586 538.737 105.522C537.897 104.458 536.917 103.926 535.797 103.926H533.025V118.542ZM593.658 146.85C593.546 148.474 592.678 149.594 591.054 150.21C589.486 150.826 586.63 151.134 582.486 151.134C578.342 151.134 574.87 150.77 572.07 150.042C569.326 149.258 567.954 148.278 567.954 147.102C567.954 145.758 570.446 137.19 575.43 121.398C580.414 105.55 583.27 96.4215 583.998 94.0135C584.278 93.2855 586.518 92.6975 590.718 92.2495C594.974 91.7455 599.51 91.4935 604.326 91.4935C609.198 91.4935 611.886 92.3335 612.39 94.0135C622.974 129.182 628.266 147.046 628.266 147.606C628.266 148.166 627.93 148.726 627.258 149.286C625.69 150.518 622.582 151.134 617.934 151.134C608.022 151.134 602.954 149.958 602.73 147.606L602.142 142.146H594.078L593.658 146.85ZM600.378 126.186L599.118 111.066H597.27L595.842 126.186H600.378Z" fill="url(#paint1_linear_675_3)"/>
<path d="M709.557 96.5613L709.651 97.4577H710.552H746.194H747.095L747.188 96.5613L756.099 11.0215L756.214 9.91785H755.104H701.642H700.532L700.647 11.0215L709.557 96.5613ZM708.865 145.291L708.875 145.3C713.971 150.121 720.499 152.504 728.373 152.504C736.373 152.504 742.91 150.124 747.881 145.291L747.881 145.291C752.947 140.361 755.51 134.497 755.51 127.743C755.51 120.864 752.951 115.054 747.865 110.379C742.893 105.686 736.362 103.378 728.373 103.378C720.507 103.378 713.982 105.69 708.885 110.374C703.796 115.05 701.236 120.861 701.236 127.743C701.236 134.497 703.798 140.361 708.865 145.291Z" stroke="url(#paint2_linear_675_3)" stroke-width="2"/>
<path d="M47.989 65.8609L47.8958 64.9643H46.9944H11.3528H10.4513L10.3582 65.8609L1.44774 151.599L1.33307 152.702H2.44238H55.9048H57.0141L56.8994 151.599L47.989 65.8609ZM48.6766 17.1264C43.706 12.2965 37.1708 9.91785 29.1736 9.91785C21.2999 9.91785 14.7715 12.3012 9.67556 17.1217C4.59588 21.9268 2.03641 27.798 2.03641 34.6789C2.03641 41.5607 4.59701 47.3715 9.68613 52.048C14.7832 56.7318 21.308 59.044 29.1736 59.044C37.1626 59.044 43.6942 56.7365 48.666 52.0434C53.7519 47.3677 56.3107 41.5584 56.3107 34.6789C56.3107 27.8003 53.753 21.9307 48.6766 17.1264Z" stroke="url(#paint3_linear_675_3)" stroke-width="2"/>
<defs>
<linearGradient id="paint0_linear_675_3" x1="179.056" y1="126.441" x2="582.993" y2="164.413" gradientUnits="userSpaceOnUse">
<stop stop-color="#FF0098"/>
<stop offset="1" stop-color="#7039C7"/>
</linearGradient>
<linearGradient id="paint1_linear_675_3" x1="293.773" y1="75.9179" x2="616.773" y2="75.9178" gradientUnits="userSpaceOnUse">
<stop stop-color="#8EFE00"/>
<stop offset="1" stop-color="#1B81C4"/>
</linearGradient>
<linearGradient id="paint2_linear_675_3" x1="728.373" y1="10.9178" x2="728.373" y2="151.504" gradientUnits="userSpaceOnUse">
<stop stop-color="#29A9FF"/>
<stop offset="0.513224" stop-color="#7039C7"/>
<stop offset="1" stop-color="#FF0098"/>
</linearGradient>
<linearGradient id="paint3_linear_675_3" x1="29.1736" y1="10.9178" x2="29.1736" y2="151.702" gradientUnits="userSpaceOnUse">
<stop stop-color="#7039C7"/>
<stop offset="0.519107" stop-color="#29A9FF"/>
<stop offset="1" stop-color="#8EFE00"/>
</linearGradient>
</defs>
</svg>
