<svg width="64" height="65" viewBox="0 0 64 65" fill="none" xmlns="http://www.w3.org/2000/svg">
<g filter="url(#filter0_d_426_86)">
<path d="M30.0929 58.1265C45.3907 58.1265 57.792 45.7252 57.792 30.4274C57.792 15.1296 45.3907 2.72827 30.0929 2.72827C14.7951 2.72827 2.3938 15.1296 2.3938 30.4274C2.3938 45.7252 14.7951 58.1265 30.0929 58.1265Z" fill="#29A9FF"/>
</g>
<path fill-rule="evenodd" clip-rule="evenodd" d="M23.5596 44.5152C36.8499 44.5152 44.1193 33.6741 44.1193 24.273C44.1193 23.9644 44.1193 23.6575 44.0982 23.3529C45.5122 22.3469 46.7326 21.0983 47.7029 19.6702C46.3857 20.2456 44.9857 20.6237 43.554 20.7897C45.0614 19.9004 46.1902 18.5035 46.7309 16.8543C45.3115 17.6833 43.76 18.268 42.1417 18.5819C39.4051 15.7176 34.8282 15.5785 31.9173 18.2733C30.0418 20.01 29.2441 22.6 29.827 25.0712C24.0175 24.7832 18.6041 22.0823 14.9342 17.6384C13.0165 20.8888 13.9974 25.0461 17.1725 27.1337C16.0225 27.1011 14.8972 26.7956 13.8917 26.2444V26.3347C13.8935 29.7206 16.3184 32.6364 19.6889 33.3074C18.6253 33.5935 17.5088 33.6349 16.4276 33.4284C17.3732 36.3279 20.0869 38.3134 23.1775 38.3702C20.6187 40.3505 17.4577 41.4251 14.2034 41.4221C13.6293 41.4203 13.0552 41.3877 12.4829 41.3199C15.7883 43.4076 19.6326 44.5152 23.5596 44.51" fill="#1D1B22"/>
<defs>
<filter id="filter0_d_426_86" x="0.393799" y="0.728271" width="63.3982" height="63.3982" filterUnits="userSpaceOnUse" color-interpolation-filters="sRGB">
<feFlood flood-opacity="0" result="BackgroundImageFix"/>
<feColorMatrix in="SourceAlpha" type="matrix" values="0 0 0 0 0 0 0 0 0 0 0 0 0 0 0 0 0 0 127 0" result="hardAlpha"/>
<feOffset dx="2" dy="2"/>
<feGaussianBlur stdDeviation="2"/>
<feColorMatrix type="matrix" values="0 0 0 0 0.0708333 0 0 0 0 0.0708333 0 0 0 0 0.0708333 0 0 0 0.65 0"/>
<feBlend mode="normal" in2="BackgroundImageFix" result="effect1_dropShadow_426_86"/>
<feBlend mode="normal" in="SourceGraphic" in2="effect1_dropShadow_426_86" result="shape"/>
</filter>
</defs>
</svg>
