<svg width="39" height="39" viewBox="0 0 39 39" fill="none" xmlns="http://www.w3.org/2000/svg">
<g filter="url(#filter0_d_80_57)">
<path d="M17.25 32.9824C25.6033 32.9824 32.375 26.2107 32.375 17.8574C32.375 9.50412 25.6033 2.73242 17.25 2.73242C8.89669 2.73242 2.125 9.50412 2.125 17.8574C2.125 26.2107 8.89669 32.9824 17.25 32.9824Z" fill="#29A9FF"/>
</g>
<path fill-rule="evenodd" clip-rule="evenodd" d="M13.6825 25.55C20.9397 25.55 24.9091 19.6303 24.9091 14.4968C24.9091 14.3283 24.9091 14.1608 24.8976 13.9944C25.6697 13.4451 26.3361 12.7633 26.8659 11.9835C26.1467 12.2977 25.3822 12.5042 24.6004 12.5948C25.4235 12.1092 26.0399 11.3464 26.3351 10.4459C25.5601 10.8986 24.7129 11.2178 23.8292 11.3892C22.3349 9.82519 19.8358 9.74922 18.2462 11.2207C17.2222 12.1691 16.7866 13.5833 17.1048 14.9327C13.9326 14.7754 10.9766 13.3006 8.97269 10.874C7.92552 12.6489 8.46112 14.919 10.1949 16.0589C9.56695 16.0411 8.95249 15.8743 8.40343 15.5733V15.6226C8.40439 17.4715 9.7285 19.0637 11.569 19.43C10.9882 19.5863 10.3785 19.6089 9.78811 19.4961C10.3045 21.0794 11.7863 22.1636 13.4739 22.1946C12.0767 23.2759 10.3506 23.8627 8.57363 23.861C8.26015 23.8601 7.94667 23.8423 7.63416 23.8052C9.43906 24.9452 11.5382 25.55 13.6825 25.5472" fill="#1D1B22"/>
<defs>
<filter id="filter0_d_80_57" x="0.125" y="0.732422" width="38.25" height="38.25" filterUnits="userSpaceOnUse" color-interpolation-filters="sRGB">
<feFlood flood-opacity="0" result="BackgroundImageFix"/>
<feColorMatrix in="SourceAlpha" type="matrix" values="0 0 0 0 0 0 0 0 0 0 0 0 0 0 0 0 0 0 127 0" result="hardAlpha"/>
<feOffset dx="2" dy="2"/>
<feGaussianBlur stdDeviation="2"/>
<feColorMatrix type="matrix" values="0 0 0 0 0.0708333 0 0 0 0 0.0708333 0 0 0 0 0.0708333 0 0 0 0.65 0"/>
<feBlend mode="normal" in2="BackgroundImageFix" result="effect1_dropShadow_80_57"/>
<feBlend mode="normal" in="SourceGraphic" in2="effect1_dropShadow_80_57" result="shape"/>
</filter>
</defs>
</svg>
