<svg width="121" height="44" viewBox="0 0 121 44" fill="none" xmlns="http://www.w3.org/2000/svg">
<g filter="url(#filter0_d_353_137)">
<path d="M20.3768 37.8015C30.2234 37.8015 38.2057 29.8192 38.2057 19.9726C38.2057 10.1259 30.2234 2.14366 20.3768 2.14366C10.5301 2.14366 2.54785 10.1259 2.54785 19.9726C2.54785 29.8192 10.5301 37.8015 20.3768 37.8015Z" fill="#7039C7"/>
</g>
<path fill-rule="evenodd" clip-rule="evenodd" d="M29.4443 29.0404H25.8171V22.6938C25.8171 20.9528 25.0491 19.9814 23.6717 19.9814C22.1728 19.9814 21.2832 20.9936 21.2832 22.6938V29.0404H17.6561V17.2522H21.2832V18.5779C21.2832 18.5779 22.4212 16.581 24.9856 16.581C27.55 16.581 29.4443 18.1461 29.4443 21.3853V29.0404ZM13.523 15.367C12.2997 15.367 11.3086 14.3675 11.3086 13.1354C11.3086 11.9033 12.2997 10.9047 13.523 10.9047C14.7462 10.9047 15.7364 11.904 15.7364 13.1354C15.7373 14.3677 14.7453 15.367 13.523 15.367ZM11.3086 29.0404H15.8425V17.2522H11.3086V29.0404Z" fill="#1D1B22"/>
<path d="M50.9307 15.8H52.7017L49.3687 23.5H47.6087L44.2867 15.8H46.2117L48.5547 21.3L50.9307 15.8ZM58.5802 20.563C58.5802 20.695 58.5582 20.882 58.5472 21.025H54.0702C54.2352 21.762 54.8622 22.213 55.7642 22.213C56.3912 22.213 56.8422 22.026 57.2492 21.641L58.1622 22.631C57.6122 23.258 56.7872 23.588 55.7202 23.588C53.6742 23.588 52.3432 22.301 52.3432 20.541C52.3432 18.77 53.6962 17.494 55.5002 17.494C57.2382 17.494 58.5802 18.66 58.5802 20.563ZM55.5112 18.792C54.7302 18.792 54.1692 19.265 54.0482 20.024H56.9632C56.8422 19.276 56.2812 18.792 55.5112 18.792ZM61.3617 18.363C61.7797 17.791 62.4837 17.494 63.3967 17.494V19.078C63.2537 19.067 63.1437 19.056 63.0117 19.056C62.0657 19.056 61.4387 19.573 61.4387 20.706V23.5H59.7227V17.582H61.3617V18.363ZM67.6962 23.5V15.8H69.4782V22.048H73.3392V23.5H67.6962ZM75.0719 16.757C74.4339 16.757 74.0049 16.339 74.0049 15.8C74.0049 15.261 74.4339 14.843 75.0719 14.843C75.7099 14.843 76.1389 15.239 76.1389 15.767C76.1389 16.339 75.7099 16.757 75.0719 16.757ZM74.2139 23.5V17.582H75.9299V23.5H74.2139ZM81.1195 17.494C82.5165 17.494 83.5725 18.308 83.5725 20.112V23.5H81.8565V20.376C81.8565 19.419 81.4165 18.979 80.6575 18.979C79.8325 18.979 79.2385 19.485 79.2385 20.574V23.5H77.5225V17.582H79.1615V18.275C79.6235 17.769 80.3165 17.494 81.1195 17.494ZM89.5389 23.5L87.6689 21.179L86.8439 21.993V23.5H85.1279V15.338H86.8439V19.958L89.3519 17.582H91.3979L88.9339 20.09L91.6179 23.5H89.5389ZM97.9288 20.563C97.9288 20.695 97.9068 20.882 97.8958 21.025H93.4188C93.5838 21.762 94.2108 22.213 95.1128 22.213C95.7398 22.213 96.1908 22.026 96.5978 21.641L97.5108 22.631C96.9608 23.258 96.1358 23.588 95.0688 23.588C93.0228 23.588 91.6918 22.301 91.6918 20.541C91.6918 18.77 93.0448 17.494 94.8488 17.494C96.5868 17.494 97.9288 18.66 97.9288 20.563ZM94.8598 18.792C94.0788 18.792 93.5178 19.265 93.3968 20.024H96.3118C96.1908 19.276 95.6298 18.792 94.8598 18.792ZM103.383 15.338H105.099V23.5H103.46V22.818C103.031 23.335 102.404 23.588 101.612 23.588C99.9403 23.588 98.6533 22.4 98.6533 20.541C98.6533 18.682 99.9403 17.494 101.612 17.494C102.338 17.494 102.954 17.725 103.383 18.209V15.338ZM101.909 22.18C102.756 22.18 103.416 21.564 103.416 20.541C103.416 19.518 102.756 18.902 101.909 18.902C101.051 18.902 100.391 19.518 100.391 20.541C100.391 21.564 101.051 22.18 101.909 22.18ZM106.809 23.5V15.8H108.591V23.5H106.809ZM113.894 17.494C115.291 17.494 116.347 18.308 116.347 20.112V23.5H114.631V20.376C114.631 19.419 114.191 18.979 113.432 18.979C112.607 18.979 112.013 19.485 112.013 20.574V23.5H110.297V17.582H111.936V18.275C112.398 17.769 113.091 17.494 113.894 17.494Z" fill="#7039C7"/>
<defs>
<filter id="filter0_d_353_137" x="0.547852" y="0.143661" width="43.6577" height="43.6578" filterUnits="userSpaceOnUse" color-interpolation-filters="sRGB">
<feFlood flood-opacity="0" result="BackgroundImageFix"/>
<feColorMatrix in="SourceAlpha" type="matrix" values="0 0 0 0 0 0 0 0 0 0 0 0 0 0 0 0 0 0 127 0" result="hardAlpha"/>
<feOffset dx="2" dy="2"/>
<feGaussianBlur stdDeviation="2"/>
<feColorMatrix type="matrix" values="0 0 0 0 0.0708333 0 0 0 0 0.0708333 0 0 0 0 0.0708333 0 0 0 0.65 0"/>
<feBlend mode="normal" in2="BackgroundImageFix" result="effect1_dropShadow_353_137"/>
<feBlend mode="normal" in="SourceGraphic" in2="effect1_dropShadow_353_137" result="shape"/>
</filter>
</defs>
</svg>
