<svg width="101" height="100" viewBox="0 0 101 100" fill="none" xmlns="http://www.w3.org/2000/svg">
<g filter="url(#filter0_d_938_870)">
<path d="M85.378 33.1423L70.5955 46.0393C69.878 46.6695 69.7594 47.7397 70.3275 48.5079L82.0185 64.26C83.0087 65.5888 81.8559 67.4483 80.2248 67.146L60.9248 63.6315C59.9872 63.4604 59.0748 64.0425 58.8329 64.9642L53.8063 83.9344C53.3837 85.5403 51.2163 85.7899 50.4274 84.3365L41.1405 67.0505C40.694 66.2088 39.671 65.8601 38.7962 66.244L20.8355 74.1418C19.3194 74.8124 17.7641 73.2754 18.4177 71.752L26.1403 53.7136C26.5137 52.8381 26.1509 51.8183 25.3089 51.3737L7.93772 42.2541C6.46784 41.483 6.70786 39.3144 8.29988 38.8709L27.2168 33.6658C28.1335 33.4112 28.7066 32.4921 28.5257 31.563L24.8268 12.2928C24.5163 10.6658 26.3549 9.49423 27.6993 10.4657L43.5649 22.0063C44.3358 22.5688 45.4107 22.4443 46.0307 21.7142L58.785 6.80915C59.8642 5.55023 61.9243 6.25783 62.0032 7.91854L62.8745 27.5213C62.915 28.4714 63.6837 29.2313 64.6391 29.2681L84.2441 29.9466C85.9045 30.0017 86.6305 32.0589 85.3817 33.1493L85.378 33.1423Z" fill="#7039C7"/>
</g>
<defs>
<filter id="filter0_d_938_870" x="0.958984" y="0.166504" width="99.0527" height="99.1292" filterUnits="userSpaceOnUse" color-interpolation-filters="sRGB">
<feFlood flood-opacity="0" result="BackgroundImageFix"/>
<feColorMatrix in="SourceAlpha" type="matrix" values="0 0 0 0 0 0 0 0 0 0 0 0 0 0 0 0 0 0 127 0" result="hardAlpha"/>
<feOffset dx="4" dy="4"/>
<feGaussianBlur stdDeviation="5"/>
<feColorMatrix type="matrix" values="0 0 0 0 0 0 0 0 0 0 0 0 0 0 0 0 0 0 0.65 0"/>
<feBlend mode="normal" in2="BackgroundImageFix" result="effect1_dropShadow_938_870"/>
<feBlend mode="normal" in="SourceGraphic" in2="effect1_dropShadow_938_870" result="shape"/>
</filter>
</defs>
</svg>
