<svg width="75" height="76" viewBox="0 0 75 76" fill="none" xmlns="http://www.w3.org/2000/svg">
<circle cx="37.5" cy="38.3" r="37.5" fill="#1D1B22"/>
<path d="M26.7985 60.3655C24.274 60.3655 23.0117 60.3655 22.0476 59.874C21.1998 59.4419 20.5102 58.7523 20.0782 57.9045C19.5867 56.9404 19.5867 55.6781 19.5867 53.1536V27.0119C19.5867 24.4874 19.5867 23.2251 20.0782 22.261C20.5102 21.4132 21.1998 20.7236 22.0476 20.2916C23.0117 19.8 24.274 19.8 26.7985 19.8H48.4334C50.9579 19.8 52.2202 19.8 53.1843 20.2916C54.0321 20.7236 54.7217 21.4132 55.1538 22.261C55.6453 23.2251 55.6453 24.4874 55.6453 27.0119V28.815M28.6017 28.815H42.1235M28.6017 46.8443H30.8551M28.6017 37.83H37.616M35.8027 60.1288L38.766 59.5434C40.365 59.2276 41.1641 59.0694 41.9098 58.778C42.5717 58.5198 43.2005 58.1844 43.7833 57.7781C44.4398 57.3204 45.0165 56.7443 46.1685 55.5923L57.7716 43.9899C59.3205 42.441 59.3205 39.93 57.7716 38.381C56.2227 36.8321 53.7117 36.8321 52.1627 38.381L40.3616 50.1822C39.2819 51.2619 38.7417 51.8021 38.3056 52.414C37.9182 52.9576 37.593 53.5417 37.3347 54.1569C37.044 54.8499 36.8696 55.593 36.52 57.0797L35.8034 60.1282L35.8027 60.1288Z" stroke="#29A9FF" stroke-width="5" stroke-linecap="round" stroke-linejoin="round"/>
</svg>
